<svg width="335" height="390" viewBox="0 0 335 390" fill="none" xmlns="http://www.w3.org/2000/svg">
<path opacity="0.7" d="M167 335.053C249.29 335.053 316 296.538 316 249.027C316 201.515 249.29 163 167 163C84.7096 163 18 201.515 18 249.027C18 296.538 84.7096 335.053 167 335.053Z" fill="#086AF9" fill-opacity="0.24"/>
<path d="M234.266 296.482C255.916 296.482 273.467 286.349 273.467 273.849C273.467 261.35 255.916 251.217 234.266 251.217C212.615 251.217 195.064 261.35 195.064 273.849C195.064 286.349 212.615 296.482 234.266 296.482Z" fill="#E0E0E0"/>
<path d="M105.525 296.482C127.175 296.482 144.727 286.349 144.727 273.849C144.727 261.35 127.175 251.217 105.525 251.217C83.8744 251.217 66.3232 261.35 66.3232 273.849C66.3232 286.349 83.8744 296.482 105.525 296.482Z" fill="#E0E0E0"/>
<path d="M290.827 186.2L284.442 182.515C284.442 182.515 282.881 168.847 283.919 158.261C285.38 143.38 294.988 125.484 306.452 129.685C317.915 133.886 301.192 149.042 297.474 161.658C293.755 174.274 290.827 186.2 290.827 186.2Z" fill="#5264F2"/>
<path opacity="0.15" d="M290.827 186.2L284.442 182.515C284.442 182.515 282.881 168.847 283.919 158.261C285.38 143.38 294.988 125.484 306.452 129.685C317.915 133.886 301.192 149.042 297.474 161.658C293.755 174.274 290.827 186.2 290.827 186.2Z" fill="black"/>
<path d="M287.47 184.645C287.571 184.64 287.666 184.596 287.735 184.522C287.803 184.448 287.841 184.351 287.839 184.25C286.72 151.192 303.175 134.57 303.343 134.402C303.403 134.328 303.433 134.234 303.428 134.139C303.423 134.043 303.384 133.953 303.317 133.885C303.249 133.817 303.16 133.776 303.064 133.77C302.969 133.764 302.875 133.794 302.8 133.853C302.626 134.02 285.936 150.884 287.068 184.277C287.07 184.328 287.082 184.377 287.103 184.424C287.124 184.47 287.154 184.511 287.192 184.546C287.229 184.58 287.273 184.606 287.321 184.623C287.369 184.641 287.42 184.648 287.47 184.645Z" fill="white"/>
<path d="M294.841 188.498L290.298 185.871C290.298 185.871 289.521 176.491 294.124 165.101C298.144 155.179 308.06 146.951 313.058 148.68C318.056 150.408 317.929 153.953 315.49 157.664C313.051 161.376 298.238 170.24 294.841 188.498Z" fill="#5264F2"/>
<path d="M292.442 187.499C292.545 187.499 292.644 187.459 292.716 187.386C292.789 187.313 292.83 187.214 292.83 187.111C292.736 166.214 312.361 152.09 312.562 151.949C312.603 151.919 312.638 151.882 312.665 151.838C312.692 151.795 312.71 151.746 312.718 151.696C312.726 151.646 312.724 151.594 312.712 151.544C312.7 151.495 312.679 151.448 312.649 151.407C312.62 151.365 312.583 151.329 312.54 151.302C312.498 151.275 312.45 151.256 312.399 151.248C312.349 151.24 312.298 151.242 312.249 151.254C312.2 151.267 312.153 151.289 312.113 151.319C311.912 151.46 291.966 165.818 292.053 187.118C292.056 187.219 292.099 187.315 292.171 187.386C292.243 187.457 292.34 187.498 292.442 187.499Z" fill="white"/>
<path d="M51.0607 179.62L56.4207 176.511C56.4207 176.511 59.6233 163.205 58.3503 151.226C56.5547 134.389 45.4662 128.057 41.2519 129.504C37.0376 130.951 35.8182 135.856 42.7929 145.886C46.9 151.802 51.9853 164.15 51.0607 179.62Z" fill="#5264F2"/>
<g opacity="0.15">
<path d="M51.0607 179.62L56.4207 176.511C56.4207 176.511 59.6233 163.205 58.3503 151.226C56.5547 134.389 45.4662 128.057 41.2519 129.504C37.0376 130.951 35.8182 135.856 42.7929 145.886C46.9 151.802 51.9853 164.15 51.0607 179.62Z" fill="black"/>
</g>
<path d="M53.2918 173.081H53.2382C53.1901 173.072 53.1441 173.054 53.1032 173.027C53.0622 173 53.0269 172.966 52.9995 172.925C52.972 172.885 52.9529 172.839 52.9433 172.791C52.9337 172.743 52.9337 172.693 52.9434 172.645C55.8914 157.115 50.4644 139.668 43.7443 132.405C43.6836 132.331 43.6533 132.237 43.6598 132.142C43.6663 132.046 43.7089 131.957 43.7791 131.892C43.8493 131.827 43.9416 131.791 44.0373 131.792C44.1329 131.793 44.2247 131.83 44.2937 131.896C51.1344 139.266 56.6686 157.028 53.6737 172.766C53.662 172.857 53.616 172.941 53.5451 172.999C53.4741 173.058 53.3836 173.087 53.2918 173.081Z" fill="white"/>
<path d="M36.964 187.761C36.1131 188.196 33.8485 186.26 33.2187 185.791C32.1385 184.973 31.2871 183.891 30.7464 182.649C30.1478 181.238 29.998 179.678 30.3176 178.18C30.4867 177.388 30.7106 176.609 30.9876 175.848C31.2489 175.091 31.5035 174.341 31.7648 173.59C32.0683 172.863 32.221 172.081 32.2137 171.292C32.0931 169.718 30.7598 168.552 29.5337 167.54C28.1937 166.421 26.8068 164.967 26.9073 163.078C27.0951 161.616 27.7646 160.258 28.8101 159.219C29.7682 158.12 30.8871 157.162 31.7648 156.003C32.4346 155.187 32.8099 154.17 32.8301 153.115C32.7742 152.464 32.5873 151.83 32.2807 151.252C31.5763 150.045 30.9692 148.784 30.465 147.48C30.0697 146.14 30.2171 144.499 31.2958 143.608C32.1802 142.877 33.4398 142.831 34.5855 142.938C35.6485 143.124 36.6587 143.537 37.5469 144.15C40.4614 145.966 41.989 149.604 45.0978 151.045C46.3433 151.51 47.6165 151.897 48.9101 152.204C50.1764 152.606 51.4427 153.323 51.972 154.535C53.0239 156.921 50.7124 159.688 51.4092 162.2C52.0256 164.425 54.0892 165.369 55.2014 167.399C55.6447 168.295 55.7903 169.309 55.6168 170.294C55.4274 171.964 54.9347 173.585 54.1629 175.078C53.2966 176.607 52.3367 178.082 51.2886 179.493L36.964 187.761Z" fill="#5264F2"/>
<path d="M45.1984 183.473C45.0982 183.464 45.0054 183.417 44.9402 183.34C44.875 183.264 44.8425 183.164 44.85 183.064C46.19 168.291 40.0662 151.574 35.2355 146.596C35.1655 146.526 35.1262 146.431 35.1262 146.331C35.1262 146.232 35.1655 146.137 35.2355 146.067C35.3058 145.997 35.4009 145.958 35.5001 145.958C35.5993 145.958 35.6945 145.997 35.7648 146.067C40.6893 151.179 46.9739 168.17 45.5602 183.131C45.5535 183.223 45.5126 183.309 45.4457 183.372C45.3787 183.436 45.2905 183.471 45.1984 183.473Z" fill="white"/>
<path d="M43.731 165.255C43.6955 165.262 43.6592 165.262 43.6238 165.255C40.1663 164.112 36.594 163.35 32.9708 162.984C32.9214 162.98 32.8734 162.966 32.8295 162.943C32.7855 162.92 32.7466 162.889 32.7148 162.851C32.683 162.813 32.6591 162.769 32.6444 162.722C32.6297 162.675 32.6245 162.625 32.6291 162.575C32.6313 162.526 32.644 162.477 32.6663 162.432C32.6887 162.388 32.7201 162.348 32.7587 162.317C32.7972 162.285 32.842 162.262 32.8901 162.249C32.9382 162.236 32.9885 162.233 33.0378 162.24C36.725 162.612 40.3604 163.387 43.8784 164.552C43.96 164.585 44.0277 164.645 44.0695 164.722C44.1113 164.8 44.1245 164.889 44.107 164.975C44.0894 165.062 44.0422 165.139 43.9734 165.194C43.9047 165.249 43.8189 165.278 43.731 165.276V165.255Z" fill="white"/>
<path d="M270.258 201.838C270.258 201.838 268.569 200.498 267.712 200.679C267.31 200.759 267.605 201.858 267.142 203.935C266.952 204.683 266.582 205.373 266.064 205.945L265.755 206.032H265.668L264.851 206.26C257.715 208.27 241.562 212.625 233.475 213.476C227.304 214.146 224.818 212.504 223.117 207.05C220.437 198.34 218.607 177.034 218.105 170.522C213.683 181.021 209.469 191.667 205.556 202.32C214.621 210.012 220.53 232.651 223.746 241.455L224.463 243.311L224.825 244.235C224.825 244.235 226.601 246.339 224.108 249.012C221.616 251.686 218.661 251.746 217.314 250.252C210.105 240.128 197.509 223.271 191.499 213.248C187.225 206.106 186.581 204.772 187.419 199.72C190.099 183.292 195.539 161.403 200.866 144.559L200.966 144.318L239.022 146.67C241.414 165.102 238.808 196.92 238.808 196.92L263.799 195.734L265.501 195.566C266.03 195.821 266.888 197.061 267.29 198.153C267.692 199.245 269.4 200.002 270.258 201.838Z" fill="#B16668"/>
<path d="M264.851 206.286L265.668 206.059H265.755L266.064 205.972C266.582 205.4 266.952 204.71 267.142 203.962C267.605 201.885 267.31 200.786 267.712 200.705C268.569 200.538 270.258 201.864 270.258 201.864C269.4 200.029 267.719 199.339 267.317 198.24C266.915 197.141 266.057 195.908 265.528 195.654L263.826 195.821L238.808 196.98C238.808 196.98 241.917 207.399 236.396 213.107C244.985 211.72 258.499 208.049 264.851 206.286Z" fill="#37474F"/>
<path d="M241.314 212.182C244.664 206.32 243.545 200.545 241.93 196.819L238.808 196.973C238.808 196.973 241.917 207.392 236.396 213.1C237.903 212.859 239.565 212.544 241.314 212.182Z" fill="#5264F2"/>
<path d="M224.45 243.337L223.78 241.482C220.966 233.83 216.162 215.874 209.04 206.193C206.702 212.551 197.128 216.109 192.759 215.318C199.138 225.469 210.581 240.812 217.315 250.279C218.655 251.773 221.609 251.719 224.109 249.039C226.608 246.359 224.825 244.262 224.825 244.262L224.45 243.337Z" fill="#37474F"/>
<path d="M209.04 206.193C206.702 212.551 197.128 216.109 192.759 215.318C193.55 216.578 194.414 217.911 195.339 219.298C203.191 219.452 208.658 214.916 211.58 210.139C210.81 208.775 209.962 207.458 209.04 206.193Z" fill="#5264F2"/>
<path d="M227.646 246.895C228.075 247.431 228.845 248.543 228.751 249.166C228.658 249.789 227.552 252.945 227.411 256.208C227.291 259.102 228.564 264.61 225.777 268.529C223.324 271.966 221.087 272.777 219.077 273.159C218.291 273.355 217.47 273.36 216.682 273.173C215.894 272.987 215.162 272.614 214.547 272.087C214.547 272.087 212.758 270.486 213.556 269.253C214.353 268.02 227.646 246.895 227.646 246.895Z" fill="#37474F"/>
<path d="M227.8 247.156C227.7 246.351 227.342 245.599 226.782 245.012C225.951 244.115 225.046 243.344 224.718 242.111C224.604 241.676 224.504 240.858 223.968 240.711C223.921 240.711 223.438 240.711 223.438 240.711L223.847 241.924C223.619 242.426 223.177 243.599 222.963 244.115C222.48 245.455 223.09 246.855 222.125 248.027C222.058 246.54 221.998 244.818 221.013 244.838C220.343 244.838 219.164 245.743 217.824 245.937C216.484 246.131 215.425 245.863 214.902 246.058C214.38 246.252 214.675 246.915 215.01 248.456C215.44 250.183 215.685 251.95 215.74 253.729C215.626 255.149 215.479 256.617 215.271 258.017C214.474 263.417 212.511 266.191 212.959 269.099C213.422 272.114 218.165 273.172 221.582 270.559C227.398 266.117 226.199 261.642 226.098 258.339C225.977 256.204 226.174 254.064 226.681 251.987C227.217 250.044 227.8 249.046 227.8 247.156Z" fill="#5264F2"/>
<path opacity="0.4" d="M227.8 247.156C227.7 246.351 227.342 245.599 226.782 245.012C225.951 244.115 225.046 243.344 224.718 242.111C224.604 241.676 224.504 240.858 223.968 240.711C223.921 240.711 223.438 240.711 223.438 240.711L223.847 241.924C223.619 242.426 223.177 243.599 222.963 244.115C222.48 245.455 223.09 246.855 222.125 248.027C222.058 246.54 221.998 244.818 221.013 244.838C220.343 244.838 219.164 245.743 217.824 245.937C216.484 246.131 215.425 245.863 214.902 246.058C214.38 246.252 214.675 246.915 215.01 248.456C215.44 250.183 215.685 251.95 215.74 253.729C215.626 255.149 215.479 256.617 215.271 258.017C214.474 263.417 212.511 266.191 212.959 269.099C213.422 272.114 218.165 273.172 221.582 270.559C227.398 266.117 226.199 261.642 226.098 258.339C225.977 256.204 226.174 254.064 226.681 251.987C227.217 250.044 227.8 249.046 227.8 247.156Z" fill="black"/>
<path opacity="0.15" d="M224.745 242.111C224.742 242.124 224.742 242.138 224.745 242.151V242.225C224.627 242.969 224.464 243.705 224.256 244.429C224.068 245.3 223.948 246.185 223.82 247.069C223.733 247.686 223.686 248.302 223.659 248.925C223.633 249.548 223.606 250.051 223.613 250.614C223.653 253.294 224.041 255.431 223.378 258.868C222.715 262.305 221.743 262.633 221.053 262.218C220.363 261.803 221 260.911 221.656 257.89C222.326 254.727 221.777 251.27 222.118 248.021C222.356 247.746 222.521 247.417 222.601 247.063C222.835 246.118 222.601 245.093 222.956 244.128C223.15 243.612 223.626 242.44 223.84 241.937L223.432 240.724H223.586H223.773H223.86H223.961C224.296 240.811 224.457 241.167 224.564 241.528C224.658 241.729 224.698 241.95 224.745 242.111Z" fill="black"/>
<path opacity="0.15" d="M222.842 265.22C221.053 266.258 219.974 266.024 220.015 264.255C220.107 263.005 220.473 261.79 221.087 260.697L216.397 260.891C216.397 260.891 216.698 264.114 215.76 264.911C215.184 265.387 214.373 264.643 213.904 263.692C213.234 265.816 212.698 267.451 212.96 269.126C213.422 272.141 218.165 273.199 221.582 270.586C226.453 266.861 226.4 263.122 226.199 260.067C226.286 261.89 224.631 264.181 222.842 265.22Z" fill="black"/>
<path opacity="0.15" d="M215.07 248.57C215.457 250.26 215.682 251.983 215.74 253.716C215.626 255.136 215.479 256.603 215.271 258.004C215.13 258.928 214.963 259.772 214.775 260.556C214.812 260.991 214.96 261.408 215.204 261.769C215.801 262.292 216.062 262.238 216.397 260.878C216.765 259.35 216.779 250.962 215.057 248.57H215.07Z" fill="black"/>
<path d="M215.231 261.3C215.273 261.383 215.34 261.45 215.424 261.491C215.507 261.532 215.602 261.545 215.693 261.528C217.739 261.2 219.822 261.168 221.877 261.434C221.933 261.443 221.99 261.441 222.045 261.429C222.1 261.416 222.153 261.392 222.199 261.359C222.245 261.326 222.284 261.284 222.314 261.236C222.344 261.188 222.364 261.135 222.373 261.079C222.382 261.023 222.38 260.966 222.367 260.911C222.355 260.856 222.331 260.804 222.298 260.758C222.265 260.711 222.223 260.672 222.175 260.642C222.127 260.613 222.074 260.592 222.018 260.583C219.865 260.298 217.682 260.329 215.539 260.677C215.426 260.698 215.327 260.763 215.262 260.857C215.197 260.951 215.171 261.067 215.191 261.179C215.196 261.222 215.209 261.263 215.231 261.3Z" fill="#E0E0E0"/>
<path d="M215.398 259.056C215.444 259.151 215.524 259.226 215.622 259.264C215.72 259.303 215.83 259.302 215.928 259.263C217.99 258.57 220.217 258.535 222.299 259.163C222.408 259.202 222.527 259.196 222.631 259.147C222.736 259.098 222.816 259.01 222.856 258.901C222.892 258.793 222.884 258.675 222.834 258.572C222.784 258.469 222.695 258.39 222.588 258.352C220.318 257.642 217.881 257.677 215.633 258.453C215.525 258.492 215.436 258.572 215.388 258.677C215.339 258.781 215.333 258.9 215.372 259.009C215.378 259.026 215.387 259.041 215.398 259.056Z" fill="#E0E0E0"/>
<path d="M215.365 256.958C215.415 257.059 215.503 257.136 215.61 257.172C215.716 257.209 215.833 257.202 215.934 257.153C218.03 256.246 220.374 256.086 222.574 256.697C222.684 256.731 222.803 256.721 222.906 256.668C223.008 256.616 223.086 256.525 223.123 256.416C223.157 256.306 223.146 256.188 223.094 256.087C223.041 255.985 222.951 255.908 222.842 255.873C220.431 255.185 217.855 255.361 215.559 256.369C215.457 256.419 215.378 256.508 215.341 256.616C215.303 256.724 215.309 256.842 215.358 256.945L215.365 256.958Z" fill="#E0E0E0"/>
<path d="M215.331 254.734C215.359 254.784 215.397 254.827 215.441 254.862C215.486 254.897 215.538 254.923 215.592 254.938C215.647 254.953 215.705 254.957 215.761 254.949C215.817 254.942 215.872 254.924 215.921 254.895C218.936 253.153 222.5 254.225 222.534 254.225C222.643 254.257 222.761 254.246 222.862 254.193C222.963 254.141 223.04 254.051 223.077 253.944C223.094 253.889 223.101 253.832 223.096 253.776C223.092 253.719 223.076 253.664 223.05 253.613C223.023 253.563 222.987 253.518 222.944 253.481C222.9 253.445 222.85 253.418 222.795 253.401C222.634 253.347 218.842 252.188 215.492 254.118C215.439 254.145 215.392 254.184 215.354 254.231C215.317 254.278 215.29 254.332 215.275 254.39C215.259 254.448 215.257 254.509 215.266 254.568C215.276 254.627 215.298 254.684 215.331 254.734Z" fill="#E0E0E0"/>
<path d="M215.358 252.382V252.416C215.42 252.512 215.517 252.58 215.629 252.605C215.74 252.63 215.857 252.61 215.954 252.55C218.829 250.727 222.654 251.88 222.688 251.88C222.795 251.905 222.908 251.888 223.004 251.833C223.099 251.778 223.17 251.689 223.203 251.583C223.235 251.478 223.226 251.364 223.178 251.265C223.13 251.166 223.045 251.089 222.942 251.049C222.768 250.995 218.701 249.783 215.499 251.82C215.408 251.878 215.342 251.968 215.316 252.073C215.29 252.178 215.305 252.288 215.358 252.382Z" fill="#E0E0E0"/>
<path d="M215.204 250.352C215.266 250.448 215.363 250.516 215.475 250.541C215.586 250.567 215.703 250.547 215.8 250.486C216.807 249.942 217.911 249.603 219.05 249.488C220.188 249.373 221.338 249.485 222.433 249.816C222.486 249.837 222.543 249.847 222.599 249.846C222.656 249.845 222.712 249.833 222.764 249.81C222.816 249.787 222.863 249.754 222.902 249.714C222.941 249.673 222.972 249.625 222.993 249.572C223.014 249.519 223.024 249.463 223.022 249.406C223.021 249.349 223.009 249.293 222.986 249.241C222.964 249.189 222.931 249.142 222.89 249.103C222.849 249.064 222.801 249.033 222.748 249.012C221.528 248.631 220.244 248.499 218.972 248.624C217.7 248.75 216.467 249.13 215.345 249.743C215.293 249.771 215.248 249.81 215.213 249.858C215.178 249.905 215.152 249.959 215.139 250.016C215.126 250.074 215.125 250.133 215.136 250.191C215.147 250.249 215.17 250.304 215.204 250.352Z" fill="#E0E0E0"/>
<path d="M276.435 221.314C277.413 221.723 279.959 221.757 281.306 220.725C284.113 218.587 284.422 212.685 283.316 209.516C281.976 205.656 279.718 203.787 278.854 201.476C277.99 199.164 278.01 195.774 276.924 193.764C276.486 192.994 275.888 192.327 275.171 191.808C274.453 191.289 273.632 190.93 272.764 190.756C272.207 190.633 271.63 190.638 271.077 190.772C270.523 190.905 270.007 191.163 269.568 191.526L268.717 192.196L276.435 221.314Z" fill="#263238"/>
<path d="M281.929 210.534C280.964 206.206 276.415 203.519 276.241 199.238C276.067 194.957 273.253 189.483 267.98 192.625C266.475 193.521 265.075 194.582 263.806 195.788L265.507 195.62C266.037 195.875 266.894 197.114 267.296 198.206C267.698 199.298 269.38 199.995 270.238 201.831C270.238 201.831 268.549 200.491 267.692 200.672C267.29 200.752 267.584 201.851 267.122 203.928C266.932 204.676 266.562 205.366 266.043 205.938L265.742 206.018H265.655L264.837 206.246C265.541 206.615 267.471 206.916 268.71 207.841C269.199 208.354 269.611 208.933 269.936 209.563C270.433 210.599 270.836 211.678 271.142 212.785C271.658 214.434 272.187 216.082 272.764 217.71C273.023 218.551 273.395 219.353 273.869 220.095C275.356 222.219 278.271 222.065 280.06 220.383C280.951 219.595 281.61 218.578 281.963 217.442C282.74 215.151 282.398 212.611 281.929 210.534Z" fill="#5264F2"/>
<path opacity="0.4" d="M281.929 210.534C280.964 206.206 276.415 203.519 276.241 199.238C276.067 194.957 273.253 189.483 267.98 192.625C266.475 193.521 265.075 194.582 263.806 195.788L265.507 195.62C266.037 195.875 266.894 197.114 267.296 198.206C267.698 199.298 269.38 199.995 270.238 201.831C270.238 201.831 268.549 200.491 267.692 200.672C267.29 200.752 267.584 201.851 267.122 203.928C266.932 204.676 266.562 205.366 266.043 205.938L265.742 206.018H265.655L264.837 206.246C265.541 206.615 267.471 206.916 268.71 207.841C269.199 208.354 269.611 208.933 269.936 209.563C270.433 210.599 270.836 211.678 271.142 212.785C271.658 214.434 272.187 216.082 272.764 217.71C273.023 218.551 273.395 219.353 273.869 220.095C275.356 222.219 278.271 222.065 280.06 220.383C280.951 219.595 281.61 218.578 281.963 217.442C282.74 215.151 282.398 212.611 281.929 210.534Z" fill="black"/>
<path opacity="0.15" d="M272.148 213.395C271.961 212.451 271.699 211.523 271.364 210.621C271.023 209.715 270.466 208.906 269.742 208.263C268.988 207.672 268.107 207.261 267.169 207.063C267.725 207.257 268.249 207.533 268.724 207.881C269.212 208.394 269.625 208.973 269.95 209.603C270.446 210.639 270.85 211.718 271.156 212.825C271.471 213.81 271.786 214.795 272.114 215.78C272.213 215.685 272.294 215.574 272.355 215.452C272.476 215.07 272.476 214.661 272.355 214.279L272.148 213.395Z" fill="black"/>
<path opacity="0.15" d="M281.822 212.464C281.789 213.315 281.443 214.124 280.85 214.735C280.46 215.016 279.991 215.168 279.51 215.168C279.029 215.168 278.561 215.016 278.17 214.735C277.578 214.35 277.099 213.813 276.783 213.181C276.569 212.658 276.522 212.062 276.013 212.31C274.696 212.964 273.533 213.891 272.603 215.03C272.546 215.086 272.505 215.155 272.482 215.231C272.46 215.381 272.496 215.535 272.583 215.66C272.873 216.289 272.939 216.998 272.77 217.67V217.75C273.03 218.591 273.402 219.394 273.876 220.135C275.363 222.259 278.278 222.105 280.067 220.423C280.958 219.636 281.616 218.618 281.969 217.482C282.539 215.267 282.539 212.944 281.969 210.729C281.949 211.318 281.902 211.894 281.822 212.464Z" fill="black"/>
<path opacity="0.15" d="M275.37 203.539C274.853 202.78 274.225 202.103 273.508 201.529C273.159 201.255 272.771 201.101 272.422 200.859C272.037 200.583 271.678 200.271 271.35 199.928C270.01 198.588 269.072 196.96 267.906 195.493C267.531 195.004 267.059 194.598 266.52 194.3C266.307 194.19 266.082 194.107 265.85 194.052C265.113 194.615 264.416 195.211 263.799 195.788L265.501 195.62C266.03 195.875 266.888 197.114 267.29 198.206C267.692 199.298 269.3 199.975 270.198 201.757C271.055 202.488 271.973 203.151 272.764 203.908C273.42 204.494 273.959 205.198 274.352 205.985C275.324 208 276.046 210.126 276.503 212.316C276.549 212.744 276.714 213.15 276.978 213.489C277.049 213.567 277.136 213.629 277.232 213.671C277.328 213.714 277.432 213.736 277.538 213.736C277.643 213.736 277.747 213.714 277.843 213.671C277.94 213.629 278.026 213.567 278.097 213.489C278.182 213.342 278.228 213.176 278.231 213.007C278.326 211.118 277.998 209.232 277.273 207.486C276.809 206.095 276.169 204.769 275.37 203.539Z" fill="black"/>
<path d="M271.665 216.323C271.76 216.369 271.868 216.379 271.97 216.352C272.072 216.325 272.161 216.263 272.221 216.176C273.473 214.396 275.248 213.052 277.3 212.33C277.41 212.296 277.502 212.22 277.556 212.118C277.61 212.016 277.621 211.897 277.588 211.787C277.572 211.733 277.545 211.682 277.509 211.639C277.474 211.595 277.43 211.558 277.38 211.532C277.33 211.505 277.275 211.488 277.219 211.483C277.163 211.477 277.106 211.483 277.052 211.499C274.802 212.272 272.857 213.741 271.498 215.693C271.435 215.79 271.413 215.907 271.436 216.019C271.458 216.132 271.524 216.231 271.618 216.296L271.665 216.323Z" fill="#E0E0E0"/>
<path d="M271.095 213.509C271.134 213.54 271.177 213.565 271.223 213.583C271.404 213.65 271.497 213.583 271.591 213.415C271.81 213.101 272.055 212.805 272.321 212.531C272.81 212.027 273.351 211.578 273.936 211.191C274.725 210.663 275.581 210.244 276.482 209.945L276.764 209.857C276.874 209.829 276.969 209.758 277.028 209.661C277.087 209.563 277.105 209.446 277.078 209.335C277.064 209.279 277.039 209.227 277.005 209.182C276.971 209.136 276.928 209.097 276.879 209.068C276.83 209.039 276.775 209.019 276.719 209.011C276.662 209.003 276.605 209.006 276.549 209.02C275.931 209.18 275.331 209.404 274.76 209.69C273.516 210.287 272.4 211.123 271.477 212.149C271.229 212.424 270.874 212.772 270.935 213.174C270.945 213.302 271.002 213.421 271.095 213.509Z" fill="#E0E0E0"/>
<path d="M270.298 211.258C270.573 211.472 270.801 211.03 270.968 210.836C271.185 210.538 271.425 210.258 271.685 209.998C272.164 209.528 272.692 209.11 273.26 208.752C273.969 208.301 274.732 207.941 275.531 207.68H275.631C275.732 207.642 275.815 207.568 275.864 207.472C275.913 207.376 275.925 207.266 275.898 207.162C275.87 207.058 275.805 206.968 275.715 206.909C275.625 206.85 275.517 206.826 275.41 206.842C274.792 207.019 274.194 207.262 273.628 207.566C272.419 208.172 271.348 209.023 270.486 210.065C270.375 210.168 270.285 210.292 270.223 210.43C270.161 210.568 270.127 210.718 270.124 210.869C270.129 211 270.179 211.125 270.265 211.224C270.275 211.236 270.286 211.248 270.298 211.258Z" fill="#E0E0E0"/>
<path d="M269.34 209.141C269.394 209.177 269.456 209.2 269.521 209.208C269.708 209.208 269.769 209.013 269.856 208.879C269.949 208.727 270.049 208.579 270.157 208.437C270.361 208.157 270.585 207.893 270.827 207.647C271.281 207.198 271.777 206.794 272.308 206.441C272.937 206.017 273.611 205.664 274.318 205.389H274.351C274.405 205.371 274.455 205.342 274.498 205.304C274.541 205.267 274.576 205.221 274.601 205.17C274.626 205.119 274.64 205.063 274.643 205.007C274.647 204.95 274.638 204.893 274.619 204.839C274.581 204.731 274.503 204.643 274.4 204.593C274.297 204.543 274.179 204.535 274.07 204.571C273.449 204.801 272.852 205.09 272.288 205.436C271.119 206.11 270.105 207.023 269.313 208.116C269.179 208.272 269.082 208.458 269.032 208.658C269.014 208.75 269.028 208.844 269.072 208.926C269.112 208.985 269.162 209.037 269.219 209.08L269.34 209.141Z" fill="#E0E0E0"/>
<path d="M271.303 201.864C271.242 201.851 271.178 201.851 271.116 201.864C270.928 201.898 270.921 202.119 270.875 202.266C270.828 202.414 270.754 202.601 270.687 202.769C270.551 203.089 270.394 203.4 270.218 203.7C269.893 204.25 269.511 204.764 269.079 205.235C268.577 205.803 268.01 206.311 267.391 206.749C267.343 206.78 267.303 206.82 267.272 206.867C267.24 206.914 267.218 206.967 267.207 207.022C267.196 207.077 267.195 207.134 267.206 207.19C267.217 207.245 267.239 207.298 267.27 207.345C267.301 207.392 267.341 207.433 267.388 207.464C267.435 207.496 267.488 207.518 267.543 207.529C267.599 207.54 267.656 207.54 267.711 207.529C267.766 207.518 267.819 207.497 267.866 207.466C268.41 207.093 268.915 206.667 269.374 206.193C270.344 205.246 271.103 204.104 271.598 202.843C271.69 202.657 271.739 202.453 271.739 202.246C271.732 202.154 271.694 202.067 271.632 201.998C271.581 201.947 271.519 201.908 271.451 201.885L271.303 201.864Z" fill="#E0E0E0"/>
<path d="M238.185 142.663C239.753 148.258 241.039 154.864 240.791 165.751C240.544 176.639 240.825 186.407 240.825 186.407C240.825 186.407 239.405 190.87 230.333 191.975C221.261 193.081 217.697 190.146 217.697 190.146L216.31 176.88L212.504 186.93C212.504 186.93 208.276 187.989 201.047 185.59C193.818 183.191 190.997 177.858 190.997 177.858C190.997 177.858 197.416 151.058 200.203 144.847L238.185 142.663Z" fill="#455A64"/>
<path d="M216.309 176.88L215.472 168.351C215.472 168.351 207.432 168.686 204.028 161.376C204.028 161.376 204.739 168.076 213.877 170.756L214.976 176.706L212.504 186.93L216.309 176.88Z" fill="#37474F"/>
<path d="M235.204 190.87C235.961 175.949 234.587 153.551 232.169 146.261L230.42 148.07C233.16 158.636 233.77 181.175 233.288 191.446C233.936 191.288 234.576 191.096 235.204 190.87Z" fill="#5264F2"/>
<path d="M234.266 147.635C236.993 158.12 237.113 179.922 236.57 190.293C237.256 189.972 237.908 189.586 238.52 189.141C239.257 174.247 238.393 152.961 236.021 145.832L234.266 147.635Z" fill="#5264F2"/>
<path d="M176.518 73.2713C177.52 76.2692 179.029 79.0726 180.98 81.5592C189.838 92.1586 198.809 97.733 203.379 107.153C208.625 106.483 215.439 97.398 211.224 92.1921C206.635 90.5573 189.53 72.4204 187.942 69.7806C186.495 67.0269 181.637 54.3706 180.498 49.5868C180.327 48.7843 180.45 47.947 180.846 47.2284C181.959 45.1246 181.818 42.8734 182.32 40.7495C182.716 39.0879 183.426 38.3174 183.098 38.0695C182.682 37.8104 182.185 37.7175 181.704 37.8094C181.223 37.9014 180.795 38.1713 180.505 38.5653C179.759 39.6195 179.113 40.7411 178.575 41.9153C178.421 39.996 178.407 38.0679 178.535 36.1466C178.816 31.7179 177.798 28.4282 172.894 31.2422C169.818 33.0043 168.096 37.5335 169.738 45.6271C170.214 47.952 171.078 53.3857 171.909 56.729C173.456 62.9064 174.361 67.6701 176.518 73.2713Z" fill="#B16668"/>
<path d="M213.978 92.2055C211.901 91.2206 209.409 90.4233 206.668 88.1855C203.807 85.8539 200.256 83.2141 200.256 83.2141C200.256 83.2141 194.019 88.286 194.166 95.7766C196.465 98.0867 198.46 100.68 200.102 103.495C201.341 105.671 202.313 107.988 202.997 110.396C202.997 110.396 209.891 111.736 211.151 104.312C211.814 100.217 212.759 96.1714 213.978 92.2055Z" fill="#5264F2"/>
<path d="M203.01 127.461C202.756 125.27 202.823 121.203 202.776 120.091C196.994 115.153 199.185 109.86 201.014 105.592C204.679 97.0696 208.384 92.1518 212.028 92.125L222.078 92.4198C227.271 92.5136 233.267 92.8017 234.601 93.0295C237.998 93.6124 239.579 97.0495 239.961 100.621C240.356 104.52 241.267 104.821 240.631 111.341C240.631 111.341 238.292 118.041 236.202 123.977C236.202 123.977 235.445 128.352 236.202 130.389C237.596 134.161 239.599 142.911 240.296 149.269C240.296 149.269 236.604 154.502 219.901 154.495C207.754 154.495 198.461 148.137 198.461 148.137L203.01 127.461Z" fill="#5264F2"/>
<path d="M238.332 105.357C238.332 105.927 238.286 106.537 238.239 107.24L201.194 105.23C201.476 104.56 201.75 103.977 202.032 103.388L238.332 105.357Z" fill="#455A64"/>
<path d="M212.048 92.1453L222.098 92.4401C227.291 92.5339 233.287 92.822 234.62 93.0498C238.017 93.6327 237.749 96.7147 238.104 100.272C238.28 101.284 238.372 102.308 238.379 103.334L202.943 101.579C205.958 95.5623 209.04 92.1721 212.048 92.1453Z" fill="#455A64"/>
<path opacity="0.1" d="M232.751 130.208C232.698 129.585 232.664 128.955 232.664 128.332C232.693 126.247 232.97 124.174 233.488 122.155C234.44 118.329 236.457 114.115 235.646 111.984C234.835 109.853 232.825 106.249 233.756 99.2941L239.224 97.4382C239.592 98.4718 239.829 99.5479 239.927 100.641C240.322 104.54 241.234 104.842 240.597 111.361C240.597 111.361 238.259 118.061 236.168 123.997C236.168 123.997 235.411 128.372 236.168 130.409C237.562 134.181 239.565 142.931 240.262 149.29C240.262 149.29 236.57 154.522 219.867 154.516H219.372C226.072 153.028 232.584 148.486 233.569 141.223C234.091 137.565 233.06 133.893 232.751 130.208Z" fill="black"/>
<path opacity="0.1" d="M229.334 116.479C228.611 118.04 227.452 119.36 225.997 120.278C224.543 121.197 222.854 121.676 221.133 121.659C219.476 121.696 217.838 121.294 216.385 120.496C214.932 119.697 213.716 118.529 212.859 117.109C212.859 117.109 213.475 123.655 221.227 123.233C228.979 122.811 229.334 116.479 229.334 116.479Z" fill="black"/>
<path d="M203.064 65.2381C202.902 64.0966 202.89 62.9387 203.03 61.7943C203.337 59.1751 204.599 56.7611 206.574 55.0139C210.139 52.0056 214.655 53.0039 218.902 53.2049C226.594 53.5533 234.265 56.5549 236.423 63.3755C237.763 67.6434 237.207 72.7555 235.337 78.685C233.723 83.8507 231.659 86.9126 227.391 87.5625L219.512 86.2225C215.981 86.859 212.584 85.4587 209.978 83.1137C209.277 82.4803 208.626 81.795 208.028 81.0635C207.467 80.3349 207.069 79.494 206.862 78.5979C206.223 76.5397 205.726 74.4399 205.375 72.3133C205.131 71.3043 204.758 70.3313 204.263 69.4189C203.672 68.0872 203.269 66.6803 203.064 65.2381Z" fill="#263238"/>
<path d="M209.094 60.0588C207.124 61.1308 204.571 65.8878 204.437 76.0584C204.33 84.6813 207.043 86.9057 208.424 87.569C209.804 88.2323 212.517 87.9576 215.164 87.6159L214.976 92.7816C214.976 92.7816 214.628 98.3024 216.745 98.6642C222.514 98.3024 227.378 93.0429 227.378 93.0429V82.0415C228.072 82.282 228.821 82.3163 229.535 82.1403C230.248 81.9643 230.895 81.5856 231.398 81.0499C233.408 78.9595 234.078 76.0651 232.483 74.2896C232.061 73.8692 231.545 73.5549 230.977 73.3725C230.41 73.1901 229.807 73.1447 229.219 73.2402C228.63 73.3356 228.073 73.5692 227.592 73.9216C227.112 74.2741 226.721 74.7354 226.453 75.2678C226.453 75.2678 224.906 75.3415 223.465 72.4203C220.875 72.6128 218.294 71.9388 216.129 70.5041C210.722 67.1072 209.509 61.8008 209.094 60.0588Z" fill="#B16668"/>
<path d="M215.66 73.7536C215.65 73.9661 215.703 74.1768 215.812 74.3595C215.921 74.5421 216.082 74.6887 216.273 74.781C216.465 74.8733 216.679 74.9072 216.89 74.8786C217.101 74.85 217.299 74.76 217.459 74.6199C217.619 74.4798 217.734 74.2958 217.791 74.0907C217.847 73.8855 217.842 73.6684 217.776 73.4661C217.71 73.2639 217.586 73.0856 217.419 72.9532C217.253 72.8209 217.051 72.7404 216.839 72.7218C216.694 72.7109 216.547 72.7291 216.409 72.7752C216.271 72.8214 216.143 72.8946 216.033 72.9906C215.923 73.0867 215.834 73.2036 215.77 73.3346C215.706 73.4656 215.668 73.608 215.66 73.7536Z" fill="#263238"/>
<g style="mix-blend-mode:multiply" opacity="0.5">
<path d="M214.058 80.9092L210.641 81.8673C210.694 82.0959 210.793 82.3115 210.931 82.5012C211.069 82.6909 211.244 82.8509 211.445 82.9716C211.647 83.0922 211.87 83.1711 212.103 83.2036C212.335 83.236 212.572 83.2213 212.798 83.1604C213.258 83.0203 213.646 82.7077 213.881 82.2881C214.116 81.8685 214.179 81.3744 214.058 80.9092Z" fill="#9A4A4D"/>
</g>
<path d="M205.992 70.0285L208.236 68.588C208.149 68.4378 208.033 68.3068 207.894 68.2029C207.755 68.0991 207.597 68.0245 207.428 67.9838C207.26 67.9431 207.085 67.937 206.914 67.966C206.743 67.995 206.58 68.0585 206.434 68.1525C206.134 68.3491 205.921 68.6533 205.839 69.0023C205.756 69.3514 205.811 69.7186 205.992 70.0285Z" fill="#263238"/>
<path d="M217.308 70.0016L219.76 71.02C219.835 70.8623 219.877 70.691 219.884 70.5165C219.891 70.3421 219.862 70.168 219.799 70.005C219.736 69.8421 219.641 69.6935 219.519 69.5685C219.397 69.4436 219.251 69.3447 219.09 69.278C218.756 69.1498 218.387 69.1533 218.056 69.2877C217.725 69.4221 217.457 69.6773 217.308 70.0016Z" fill="#263238"/>
<path d="M206.48 73.1843C206.45 73.4746 206.536 73.765 206.72 73.9922C206.903 74.2194 207.169 74.3649 207.459 74.397C207.751 74.4136 208.039 74.3149 208.259 74.1219C208.48 73.929 208.616 73.6573 208.638 73.3652C208.661 73.2178 208.654 73.0671 208.616 72.9227C208.579 72.7783 208.512 72.6431 208.42 72.5257C208.328 72.4082 208.212 72.3111 208.081 72.2402C207.95 72.1694 207.805 72.1264 207.657 72.1139C207.508 72.1014 207.358 72.1198 207.217 72.1678C207.076 72.2157 206.946 72.2924 206.835 72.3928C206.725 72.4933 206.636 72.6154 206.575 72.7516C206.514 72.8877 206.482 73.035 206.48 73.1843Z" fill="#263238"/>
<g style="mix-blend-mode:multiply" opacity="0.5">
<path d="M211.7 72.7488L211.291 79.2612L207.901 78.0753L211.7 72.7488Z" fill="#9A4A4D"/>
</g>
<g style="mix-blend-mode:multiply" opacity="0.5">
<path d="M215.164 87.616C217.944 87.348 223.7 85.9209 224.671 83.6965C224.273 84.8253 223.539 85.8051 222.567 86.5038C220.812 87.8974 215.104 89.3379 215.104 89.3379L215.164 87.616Z" fill="#9A4A4D"/>
</g>
<path d="M226.46 75.2679L226.292 79.8038C225.475 79.7724 224.704 79.4184 224.148 78.8193C223.591 78.2202 223.295 77.425 223.324 76.6079L223.472 72.4204L226.46 75.2679Z" fill="#263238"/>
<path d="M235.666 155.38C234.761 155.587 232.946 155.775 232.678 154.656C232.41 153.537 233.917 153.463 235.036 152.512C236.241 151.433 237.51 150.426 238.835 149.497C240.523 148.392 242.607 148.385 243.451 147.065C244.322 145.993 249.381 131.461 250.714 127.112C246.272 120.935 241.81 114.811 238.513 110.114C238.513 110.114 234.065 100.292 234.808 93.7263C237.803 93.0563 242.493 93.9139 247.411 100.105C251.787 105.482 255.815 111.132 259.471 117.022C263.632 123.856 264.014 123.722 261.756 130.054C259.592 136.131 254.526 147.125 251.706 151.896C249.32 155.956 248.563 157.356 246.486 160.157C244.604 162.696 240.758 165.336 238.741 165.798C235.746 166.468 231.713 165.644 231.713 162.676C231.713 159.708 237.381 157.222 238.48 154.308C237.578 154.754 236.636 155.113 235.666 155.38Z" fill="#B16668"/>
<path d="M234.594 93.0497C234.594 93.0497 241.012 92.9693 242.862 94.3897C245.354 96.2657 248.456 100.473 250.232 102.791C252.007 105.11 254.922 108.647 254.922 108.647C254.922 108.647 251.665 117.069 243.746 118.376L236.208 108.868C234.346 106.885 232.698 100.554 234.594 93.0497Z" fill="#5264F2"/>
<path d="M241.796 62.625C241.575 62.4106 241.347 62.2096 241.126 62.0086C239.9 60.8585 238.291 60.2044 236.611 60.1728C235.271 60.2331 232.55 61.7741 231.833 59.8244C231.699 59.3649 231.699 58.8768 231.833 58.4174C232.617 55.1679 235.853 54.0222 238.882 54.1361C244.53 54.3438 248.141 59.3755 252.583 62.1225C254.206 63.0284 256.031 63.51 257.89 63.5228C259.788 63.6105 261.689 63.4483 263.545 63.0404C265.501 62.6049 267.404 61.8947 269.394 61.6535C271.384 61.4123 273.568 61.7004 275.062 63.0404C275.86 63.8282 276.423 64.8231 276.687 65.9131C276.951 67.0032 276.905 68.1453 276.556 69.2111C275.823 71.3476 274.412 73.1855 272.536 74.4438C270.654 75.7778 268.526 76.7237 266.274 77.2264C264.023 77.7291 261.694 77.7785 259.424 77.3717C254.857 76.5163 250.737 74.0802 247.786 70.4908C245.676 67.9515 244.148 64.903 241.796 62.625Z" fill="#263238"/>
<path d="M232.55 57.9953C232.242 57.9073 231.955 57.7595 231.704 57.5604C231.453 57.3612 231.244 57.1146 231.088 56.8347C230.933 56.5547 230.834 56.2468 230.797 55.9287C230.761 55.6105 230.787 55.2882 230.875 54.9803C230.963 54.6723 231.111 54.3847 231.31 54.1339C231.509 53.883 231.756 53.6739 232.036 53.5183C232.316 53.3628 232.624 53.2639 232.942 53.2274C233.26 53.1908 233.582 53.2173 233.89 53.3053L232.55 57.9953Z" fill="#263238"/>
<path d="M220.43 183.929C220.41 183.9 220.396 183.867 220.39 183.832C220.385 183.797 220.387 183.761 220.397 183.728C220.416 183.659 220.459 183.6 220.517 183.56L222.815 182.12L222.99 182.019C223.048 181.991 223.113 181.98 223.177 181.986L223.934 182.066C224.005 182.074 224.069 182.11 224.114 182.165C224.159 182.22 224.181 182.29 224.175 182.361L223.505 188.672C223.495 188.741 223.459 188.804 223.405 188.848C223.35 188.892 223.28 188.913 223.211 188.907L222.42 188.826C222.349 188.818 222.284 188.782 222.239 188.726C222.217 188.699 222.201 188.668 222.192 188.634C222.183 188.601 222.181 188.566 222.186 188.532L222.695 183.707L221.194 184.645C221.135 184.679 221.066 184.691 221 184.679C220.929 184.658 220.867 184.613 220.825 184.552L220.43 183.929Z" fill="#5264F2"/>
<path d="M230.413 185.336C230.413 185.456 230.413 185.597 230.413 185.744L230.359 186.207L230.313 186.662C230.313 186.816 230.279 186.95 230.259 187.071C230.204 187.426 230.11 187.775 229.978 188.109C229.857 188.408 229.674 188.678 229.442 188.9C229.193 189.121 228.898 189.281 228.577 189.369C228.177 189.474 227.761 189.5 227.351 189.443C226.937 189.408 226.532 189.297 226.159 189.114C225.862 188.954 225.61 188.724 225.422 188.444C225.239 188.179 225.115 187.877 225.06 187.56C224.998 187.206 224.978 186.846 224.999 186.488C224.999 186.24 225.04 185.959 225.073 185.644C225.107 185.329 225.14 185.047 225.18 184.8C225.235 184.441 225.332 184.09 225.468 183.754C225.589 183.452 225.771 183.178 226.004 182.95C226.249 182.723 226.542 182.556 226.862 182.461C227.263 182.35 227.683 182.322 228.095 182.381C228.507 182.416 228.909 182.527 229.281 182.709C229.58 182.868 229.836 183.098 230.024 183.379C230.207 183.645 230.331 183.946 230.386 184.264C230.436 184.619 230.445 184.978 230.413 185.336ZM226.293 186.609C226.262 186.997 226.339 187.386 226.514 187.734C226.62 187.883 226.759 188.005 226.921 188.09C227.083 188.175 227.262 188.22 227.445 188.223C227.624 188.26 227.809 188.254 227.985 188.205C228.161 188.156 228.323 188.066 228.457 187.942C228.709 187.641 228.867 187.273 228.912 186.883C228.952 186.635 228.986 186.367 229.019 186.066C229.053 185.764 229.073 185.49 229.086 185.242C229.12 184.853 229.043 184.463 228.865 184.116C228.759 183.967 228.62 183.846 228.458 183.761C228.296 183.676 228.117 183.63 227.934 183.627C227.755 183.59 227.569 183.596 227.393 183.646C227.216 183.697 227.055 183.789 226.922 183.915C226.672 184.214 226.513 184.58 226.467 184.967C226.427 185.208 226.393 185.483 226.36 185.784C226.326 186.086 226.306 186.361 226.293 186.609Z" fill="#5264F2"/>
<path d="M144.117 206.119C146.402 201.516 147.393 197.556 147.152 194.802C146.006 181.965 144.472 165.209 143.172 155.594C142.308 149.222 140.606 142.194 137.953 130.134C137.953 127.702 137.585 123.782 137.585 123.782L110.155 124.573C104.751 135.444 101.535 147.27 100.688 159.38C99.8367 169.945 97.8937 180.82 97.552 186.555C90.9659 189.329 87.502 193.174 84.42 195.982C78.9662 200.966 65.3116 215.66 62.4641 216.805L62.2899 216.973C61.037 218.313 59.295 224.296 57.9751 227.907C57.0907 230.333 56.4944 234.205 58.0354 237.287C59.5027 240.228 61.2782 241.032 62.1425 237.897C62.2966 236.771 62.4306 235.659 62.578 234.621C63.047 231.411 66.5511 224.785 72.8491 220.658C75.9579 218.648 93.1769 207.767 107.997 200.229C112.285 198.045 114.423 195.01 116.433 190.642C119.052 184.94 123.535 173.389 123.535 173.389L128.479 198.32C125.458 203.117 123.615 207.238 121.572 216.738C119.679 225.133 117.217 233.388 114.202 241.448C114.021 241.984 113.846 242.52 113.666 243.056C113.441 243.907 113.17 244.746 112.855 245.568C112.334 246.542 112.006 247.606 111.89 248.704C111.818 249.79 112.016 250.876 112.466 251.866C112.728 252.429 113.069 252.958 113.31 253.535C113.793 254.872 113.929 256.311 113.706 257.715C113.558 259.129 113.27 260.529 113.264 261.943C113.238 264.024 113.913 266.054 115.18 267.705C115.817 268.519 116.616 269.194 117.525 269.686C118.435 270.178 119.436 270.478 120.466 270.566C121.246 270.656 122.034 270.489 122.711 270.09C123.189 269.71 123.559 269.21 123.78 268.64C124.001 268.07 124.067 267.451 123.97 266.848C123.767 265.646 123.418 264.474 122.932 263.357C122.476 262.067 122.135 260.74 121.913 259.39C121.515 256.775 121.367 254.128 121.471 251.484C121.525 249.012 121.377 246.299 122.657 244.114C122.67 244.068 137.571 219.338 144.117 206.119Z" fill="#FFA8A7"/>
<path d="M122.657 244.088C122.657 244.088 135.132 223.385 142.268 209.743C138.114 210.561 128.761 207.224 125.692 203.358C124.151 206.655 122.905 210.561 121.571 216.758C119.679 225.153 117.217 233.408 114.201 241.468C114.021 242.004 113.846 242.54 113.665 243.076C113.441 243.928 113.17 244.766 112.855 245.588C112.336 246.556 112.009 247.613 111.89 248.704C111.818 249.79 112.016 250.876 112.466 251.866C112.727 252.429 113.069 252.959 113.31 253.535C113.793 254.873 113.929 256.311 113.706 257.716C113.558 259.129 113.27 260.53 113.263 261.943C113.238 264.024 113.913 266.054 115.18 267.705C115.817 268.519 116.616 269.194 117.525 269.686C118.434 270.178 119.436 270.478 120.466 270.566C121.246 270.656 122.034 270.489 122.71 270.09C123.189 269.71 123.558 269.21 123.78 268.64C124.001 268.07 124.067 267.451 123.97 266.848C123.767 265.646 123.418 264.474 122.932 263.357C122.475 262.067 122.135 260.74 121.913 259.391C121.515 256.775 121.367 254.128 121.471 251.485C121.525 249.012 121.377 246.299 122.657 244.088Z" fill="#37474F"/>
<path d="M125.692 203.358C125.143 204.538 124.627 205.804 124.131 207.211C126.254 209.3 128.783 210.934 131.561 212.01C134.339 213.086 137.308 213.582 140.285 213.469C140.955 212.189 141.625 210.936 142.295 209.743C138.114 210.561 128.761 207.224 125.692 203.358Z" fill="#5264F2"/>
<path d="M110.329 246.955C109.9 247.491 109.13 248.604 109.217 249.22C109.304 249.836 110.423 252.999 110.557 256.268C110.677 259.163 109.411 264.663 112.198 268.583C114.65 272.027 116.888 272.831 118.898 273.213C119.684 273.408 120.505 273.413 121.293 273.227C122.081 273.04 122.813 272.668 123.427 272.141C123.427 272.141 125.21 270.546 124.419 269.313C123.628 268.08 110.329 246.955 110.329 246.955Z" fill="#37474F"/>
<path d="M110.148 247.23C110.247 246.426 110.605 245.676 111.166 245.093C111.997 244.188 112.902 243.418 113.23 242.192C113.344 241.749 113.444 240.932 113.98 240.785H114.51L114.101 241.997C114.329 242.5 114.771 243.666 114.979 244.182C115.468 245.522 114.858 246.922 115.823 248.094C115.89 246.607 115.95 244.892 116.935 244.905C117.605 244.905 118.784 245.816 120.124 246.011C121.464 246.205 122.523 245.93 123.045 246.125C123.568 246.319 123.273 246.989 122.938 248.523C122.506 250.261 122.261 252.04 122.208 253.83C122.315 255.25 122.469 256.717 122.677 258.124C123.474 263.518 125.431 266.298 124.988 269.199C124.526 272.214 119.776 273.273 116.359 270.66C110.55 266.218 111.749 261.749 111.85 258.439C111.971 256.307 111.774 254.169 111.267 252.094C110.758 250.104 110.195 249.099 110.148 247.23Z" fill="#5264F2"/>
<path opacity="0.4" d="M110.148 247.23C110.247 246.426 110.605 245.676 111.166 245.093C111.997 244.188 112.902 243.418 113.23 242.192C113.344 241.749 113.444 240.932 113.98 240.785H114.51L114.101 241.997C114.329 242.5 114.771 243.666 114.979 244.182C115.468 245.522 114.858 246.922 115.823 248.094C115.89 246.607 115.95 244.892 116.935 244.905C117.605 244.905 118.784 245.816 120.124 246.011C121.464 246.205 122.523 245.93 123.045 246.125C123.568 246.319 123.273 246.989 122.938 248.523C122.506 250.261 122.261 252.04 122.208 253.83C122.315 255.25 122.469 256.717 122.677 258.124C123.474 263.518 125.431 266.298 124.988 269.199C124.526 272.214 119.776 273.273 116.359 270.66C110.55 266.218 111.749 261.749 111.85 258.439C111.971 256.307 111.774 254.169 111.267 252.094C110.758 250.104 110.195 249.099 110.148 247.23Z" fill="black"/>
<path opacity="0.15" d="M113.23 242.171C113.23 242.171 113.23 242.171 113.23 242.212C113.233 242.234 113.233 242.256 113.23 242.279C113.349 243.025 113.515 243.764 113.726 244.49C113.913 245.361 114.034 246.245 114.161 247.123C114.248 247.739 114.289 248.356 114.322 248.979C114.356 249.602 114.376 250.104 114.369 250.674C114.329 253.354 113.933 255.491 114.603 258.921C115.273 262.352 116.238 262.687 116.928 262.271C117.618 261.856 116.982 260.931 116.325 257.937C115.655 254.774 116.205 251.317 115.863 248.067C115.625 247.796 115.459 247.469 115.381 247.116C115.146 246.171 115.381 245.14 115.019 244.175C114.831 243.659 114.349 242.493 114.141 241.991L114.55 240.778H114.021C113.686 240.872 113.525 241.227 113.418 241.582C113.317 241.79 113.27 242.004 113.23 242.171Z" fill="black"/>
<path opacity="0.15" d="M115.133 265.28C116.922 266.318 118 266.077 117.96 264.308C117.866 263.058 117.501 261.844 116.888 260.751L121.578 260.952C121.578 260.952 121.277 264.168 122.248 264.972C122.824 265.447 123.635 264.704 124.104 263.752C124.774 265.869 125.303 267.504 125.049 269.179C124.586 272.194 119.836 273.253 116.419 270.64C111.555 266.921 111.609 263.183 111.81 260.121C111.682 261.97 113.344 264.241 115.133 265.28Z" fill="black"/>
<path opacity="0.15" d="M122.898 248.644C122.511 250.331 122.287 252.052 122.228 253.783C122.335 255.203 122.489 256.67 122.697 258.077C122.831 258.995 123.005 259.84 123.193 260.623C123.158 261.058 123.01 261.476 122.764 261.836C122.168 262.365 121.907 262.305 121.572 260.952C121.203 259.424 121.19 251.029 122.912 248.644H122.898Z" fill="black"/>
<path d="M122.744 261.334C122.701 261.415 122.633 261.481 122.55 261.522C122.467 261.563 122.373 261.577 122.282 261.561C120.236 261.233 118.153 261.202 116.098 261.468C115.988 261.478 115.878 261.447 115.79 261.379C115.703 261.312 115.644 261.214 115.626 261.105C115.608 260.996 115.633 260.884 115.694 260.792C115.756 260.7 115.85 260.635 115.957 260.61C118.11 260.325 120.293 260.359 122.436 260.71C122.548 260.732 122.648 260.796 122.713 260.89C122.778 260.984 122.804 261.1 122.784 261.213C122.777 261.255 122.764 261.296 122.744 261.334Z" fill="#E0E0E0"/>
<path d="M122.61 259.116C122.562 259.209 122.482 259.282 122.384 259.32C122.287 259.358 122.179 259.359 122.08 259.323C120.019 258.626 117.791 258.591 115.709 259.223C115.654 259.249 115.594 259.263 115.533 259.264C115.472 259.265 115.412 259.254 115.356 259.23C115.299 259.207 115.249 259.172 115.207 259.128C115.165 259.083 115.133 259.031 115.113 258.973C115.093 258.916 115.085 258.855 115.09 258.794C115.095 258.734 115.112 258.675 115.141 258.621C115.17 258.568 115.21 258.521 115.258 258.484C115.306 258.447 115.362 258.42 115.421 258.406C117.691 257.703 120.126 257.738 122.375 258.506C122.482 258.547 122.57 258.628 122.618 258.731C122.667 258.835 122.674 258.954 122.637 259.062L122.61 259.116Z" fill="#E0E0E0"/>
<path d="M122.61 257.012C122.559 257.113 122.471 257.189 122.365 257.226C122.258 257.262 122.142 257.255 122.04 257.206C119.941 256.303 117.597 256.142 115.394 256.751C115.338 256.776 115.277 256.79 115.215 256.79C115.154 256.791 115.093 256.778 115.036 256.753C114.98 256.728 114.93 256.691 114.888 256.645C114.847 256.599 114.816 256.545 114.798 256.486C114.779 256.427 114.773 256.365 114.78 256.304C114.787 256.243 114.807 256.184 114.839 256.131C114.871 256.078 114.913 256.032 114.964 255.997C115.015 255.962 115.072 255.938 115.133 255.927C117.542 255.243 120.114 255.418 122.409 256.422C122.461 256.447 122.508 256.481 122.546 256.524C122.585 256.566 122.615 256.616 122.634 256.671C122.654 256.725 122.662 256.782 122.659 256.84C122.656 256.897 122.641 256.953 122.617 257.005L122.61 257.012Z" fill="#E0E0E0"/>
<path d="M122.643 254.794C122.584 254.893 122.488 254.964 122.376 254.992C122.265 255.021 122.147 255.005 122.047 254.948C119.039 253.213 115.474 254.278 115.441 254.278C115.385 254.304 115.324 254.318 115.262 254.318C115.201 254.318 115.14 254.306 115.083 254.281C115.027 254.256 114.976 254.219 114.935 254.173C114.894 254.127 114.863 254.073 114.845 254.014C114.826 253.955 114.82 253.893 114.827 253.832C114.834 253.771 114.854 253.712 114.886 253.659C114.918 253.606 114.96 253.56 115.011 253.525C115.061 253.49 115.119 253.466 115.18 253.454C115.34 253.407 119.133 252.242 122.483 254.171C122.536 254.2 122.583 254.239 122.621 254.286C122.658 254.334 122.685 254.389 122.7 254.447C122.716 254.506 122.718 254.567 122.709 254.627C122.699 254.687 122.676 254.744 122.643 254.794Z" fill="#E0E0E0"/>
<path d="M122.61 252.436V252.469C122.548 252.566 122.451 252.634 122.339 252.659C122.228 252.684 122.111 252.664 122.014 252.603C119.146 250.788 115.314 251.933 115.314 251.933C115.204 251.967 115.085 251.955 114.983 251.901C114.881 251.847 114.805 251.755 114.771 251.645C114.755 251.591 114.749 251.534 114.755 251.478C114.76 251.422 114.777 251.367 114.804 251.317C114.83 251.268 114.867 251.224 114.911 251.188C114.954 251.152 115.005 251.125 115.059 251.109C115.233 251.056 119.294 249.843 122.503 251.873C122.587 251.937 122.644 252.03 122.664 252.134C122.684 252.238 122.665 252.345 122.61 252.436Z" fill="#E0E0E0"/>
<path d="M122.771 250.412C122.71 250.51 122.613 250.579 122.501 250.605C122.39 250.632 122.272 250.613 122.174 250.553C121.167 250.011 120.063 249.673 118.924 249.558C117.786 249.443 116.637 249.554 115.541 249.883C115.435 249.925 115.316 249.923 115.211 249.877C115.106 249.831 115.024 249.745 114.982 249.639C114.94 249.532 114.942 249.413 114.988 249.308C115.034 249.203 115.12 249.121 115.226 249.079C116.442 248.704 117.72 248.575 118.985 248.701C120.251 248.826 121.479 249.203 122.596 249.809C122.648 249.837 122.694 249.874 122.731 249.92C122.768 249.965 122.796 250.018 122.812 250.074C122.828 250.13 122.833 250.189 122.826 250.247C122.819 250.306 122.8 250.362 122.771 250.412Z" fill="#E0E0E0"/>
<path d="M102.765 203.01C99.7111 202.091 97.0829 200.118 95.3477 197.442C93.0362 194.092 93.512 188.652 93.512 188.618C89.4116 191.057 86.8119 193.844 84.42 195.988C78.9662 200.973 65.3116 215.666 62.4641 216.812L62.2899 216.98C61.037 218.32 59.295 224.303 57.9751 227.914C57.0907 230.339 56.4944 234.212 58.0354 237.294C59.5027 240.235 61.2782 241.039 62.1425 237.904C62.2966 236.778 62.4306 235.666 62.578 234.627C63.047 231.418 66.5511 224.792 72.8491 220.665C75.5961 218.869 89.3714 210.179 102.765 202.977V203.01Z" fill="#37474F"/>
<path d="M102.764 203.01C99.7109 202.091 97.0827 200.118 95.3476 197.442C93.0361 194.092 93.5118 188.652 93.5118 188.618C92.1605 189.421 90.8665 190.317 89.6392 191.298C89.7129 195.466 90.6978 201.683 98.6172 205.261C99.9974 204.491 101.384 203.734 102.764 202.99V203.01Z" fill="#5264F2"/>
<path d="M59.0337 217.509C58.3637 217.75 57.1644 218.319 56.9299 218.902C56.6954 219.485 56.0589 222.768 54.5179 225.656C53.1779 228.209 49.2785 232.316 49.6939 237.106C50.0691 241.314 51.5967 243.136 53.1109 244.476C53.6899 245.044 54.3965 245.466 55.1717 245.705C55.9469 245.943 56.768 245.993 57.5664 245.85C57.5664 245.85 59.9114 245.374 59.8511 243.913C59.7908 242.453 59.0337 217.509 59.0337 217.509Z" fill="#37474F"/>
<path d="M58.7521 217.636C59.2415 216.986 59.9314 216.515 60.7152 216.296C61.881 215.934 63.0602 215.733 63.958 214.836C64.2796 214.514 64.7821 213.864 65.298 214.005C65.3449 214.005 65.7737 214.246 65.7737 214.246L64.8089 215.09C64.7553 215.64 64.561 216.879 64.4605 217.422C64.2126 218.795 62.9664 219.72 63.2076 221.221C64.0183 219.974 64.9362 218.541 65.7804 219.03C66.3365 219.371 66.9127 220.752 67.9713 221.596C69.0299 222.44 70.0818 222.742 70.4302 223.177C70.7786 223.613 70.189 224.035 69.0902 225.187C67.8218 226.462 66.6983 227.873 65.7402 229.395C65.1171 230.674 64.5074 232.014 63.9714 233.328C61.9614 238.386 62.2093 241.776 60.3601 244.048C58.5109 246.319 53.8008 244.919 52.1794 240.939C49.419 234.165 52.7154 230.889 54.4708 228.115C55.646 226.336 56.5492 224.392 57.1508 222.346C57.8074 220.43 57.8342 219.291 58.7521 217.636Z" fill="#5264F2"/>
<path opacity="0.4" d="M58.7521 217.636C59.2415 216.986 59.9314 216.515 60.7152 216.296C61.881 215.934 63.0602 215.733 63.958 214.836C64.2796 214.514 64.7821 213.864 65.298 214.005C65.3449 214.005 65.7737 214.246 65.7737 214.246L64.8089 215.09C64.7553 215.64 64.561 216.879 64.4605 217.422C64.2126 218.795 62.9664 219.72 63.2076 221.221C64.0183 219.974 64.9362 218.541 65.7804 219.03C66.3365 219.371 66.9127 220.752 67.9713 221.596C69.0299 222.44 70.0818 222.742 70.4302 223.177C70.7786 223.613 70.189 224.035 69.0902 225.187C67.8218 226.462 66.6983 227.873 65.7402 229.395C65.1171 230.674 64.5074 232.014 63.9714 233.328C61.9614 238.386 62.2093 241.776 60.3601 244.048C58.5109 246.319 53.8008 244.919 52.1794 240.939C49.419 234.165 52.7154 230.889 54.4708 228.115C55.646 226.336 56.5492 224.392 57.1508 222.346C57.8074 220.43 57.8342 219.291 58.7521 217.636Z" fill="black"/>
<path opacity="0.15" d="M63.9584 214.849L63.8981 214.903C63.6328 215.606 63.4091 216.324 63.2281 217.053C62.9534 217.898 62.6117 218.722 62.27 219.546C62.0355 220.122 61.7608 220.678 61.4727 221.227C61.1846 221.777 60.9501 222.226 60.6553 222.708C59.255 225.02 57.8413 226.648 56.6822 229.944C55.5231 233.241 56.1864 234.024 57.0038 233.964C57.8212 233.904 57.714 232.859 58.6721 229.944C59.6838 226.869 61.9216 224.175 63.275 221.201C63.2097 220.845 63.2327 220.48 63.342 220.135C63.6167 219.204 64.3336 218.434 64.5145 217.422C64.615 216.879 64.8093 215.64 64.8629 215.09L65.8277 214.246L65.7607 214.213L65.6937 214.172L65.5262 214.085L65.4458 214.052C65.416 214.033 65.3846 214.018 65.352 214.005C65.1778 213.988 65.0021 214.015 64.8407 214.083C64.6794 214.151 64.5374 214.257 64.4274 214.393C64.2264 214.561 64.079 214.728 63.9584 214.849Z" fill="black"/>
<path opacity="0.15" d="M53.9016 235.739C54.9133 237.542 55.9652 237.883 56.8295 236.336C57.3805 235.21 57.68 233.978 57.7072 232.724L61.6401 235.257C61.6401 235.257 59.744 237.883 60.1661 239.022C60.4207 239.726 61.5061 239.498 62.3771 238.915C61.8746 241.073 61.5128 242.761 60.4475 244.074C58.5179 246.439 53.8882 244.945 52.2668 240.965C49.9553 235.291 51.8916 232.095 53.6068 229.575C52.6152 231.15 52.8832 233.937 53.9016 235.739Z" fill="black"/>
<path opacity="0.15" d="M69.0101 225.328C67.8109 226.581 66.7382 227.95 65.8075 229.415C65.1844 230.694 64.5747 232.034 64.0387 233.348C63.6903 234.212 63.4156 235.029 63.1811 235.8C62.9284 236.156 62.5895 236.441 62.1962 236.631C61.4123 236.778 61.218 236.597 61.62 235.257C62.0689 233.756 66.31 226.507 68.99 225.328H69.0101Z" fill="black"/>
<path d="M62.4642 236.188C62.3894 236.243 62.299 236.273 62.2062 236.273C62.1134 236.273 62.023 236.243 61.9483 236.188C60.3487 234.87 58.5685 233.787 56.662 232.972C56.5554 232.931 56.4697 232.848 56.4238 232.743C56.378 232.638 56.3757 232.52 56.4174 232.413C56.4592 232.306 56.5416 232.221 56.6465 232.175C56.7514 232.129 56.8703 232.127 56.9769 232.168C58.9766 233.006 60.8415 234.135 62.5111 235.518C62.5974 235.593 62.6508 235.7 62.6595 235.814C62.6683 235.928 62.6318 236.041 62.558 236.128C62.5301 236.153 62.4984 236.173 62.4642 236.188Z" fill="#E0E0E0"/>
<path d="M63.4421 234.192C63.3539 234.249 63.2479 234.271 63.1442 234.255C63.0404 234.239 62.9462 234.186 62.8793 234.105C61.4528 232.461 59.5484 231.304 57.4322 230.795C57.3194 230.77 57.221 230.701 57.1588 230.604C57.0966 230.507 57.0757 230.389 57.1006 230.276C57.1254 230.163 57.1941 230.065 57.2915 230.002C57.3889 229.94 57.507 229.919 57.6198 229.944C59.9341 230.486 62.0156 231.751 63.5627 233.555C63.6358 233.644 63.6711 233.757 63.6611 233.871C63.651 233.985 63.5964 234.091 63.5091 234.165L63.4421 234.192Z" fill="#E0E0E0"/>
<path d="M64.5342 232.403C64.4385 232.462 64.3237 232.481 64.2138 232.458C64.1039 232.434 64.0075 232.369 63.9446 232.275C62.5907 230.436 60.6506 229.113 58.4439 228.523C58.3322 228.496 58.2357 228.426 58.1754 228.328C58.1152 228.231 58.0961 228.113 58.1223 228.001C58.1349 227.946 58.1583 227.894 58.1911 227.848C58.2239 227.802 58.2655 227.763 58.3134 227.733C58.3614 227.703 58.4147 227.683 58.4705 227.674C58.5262 227.664 58.5832 227.666 58.6382 227.679C61.0659 228.307 63.1986 229.762 64.6682 231.793C64.7327 231.888 64.7569 232.005 64.7355 232.118C64.7142 232.231 64.649 232.331 64.5543 232.396L64.5342 232.403Z" fill="#E0E0E0"/>
<path d="M65.6598 230.48C65.6102 230.509 65.5553 230.527 65.4984 230.535C65.4415 230.542 65.3837 230.538 65.3283 230.524C65.2728 230.509 65.2209 230.483 65.1755 230.448C65.1301 230.413 65.092 230.369 65.0635 230.319C63.3483 227.291 59.7035 226.426 59.7035 226.413C59.6485 226.4 59.5965 226.377 59.5505 226.344C59.5045 226.311 59.4654 226.27 59.4355 226.222C59.4056 226.174 59.3855 226.121 59.3763 226.065C59.3671 226.009 59.369 225.952 59.3819 225.897C59.3937 225.842 59.4166 225.789 59.4492 225.743C59.4818 225.696 59.5234 225.657 59.5715 225.627C59.6197 225.597 59.6734 225.577 59.7295 225.568C59.7855 225.559 59.8428 225.562 59.8978 225.576C60.0586 225.576 63.9178 226.527 65.834 229.89C65.8621 229.94 65.8799 229.995 65.8863 230.052C65.8928 230.109 65.8877 230.167 65.8715 230.222C65.8552 230.277 65.8281 230.328 65.7918 230.372C65.7554 230.417 65.7106 230.453 65.6598 230.48Z" fill="#E0E0E0"/>
<path d="M66.8595 228.47H66.826C66.7237 228.522 66.6051 228.531 66.496 228.496C66.3869 228.461 66.296 228.384 66.2431 228.282C64.6887 225.261 60.8161 224.309 60.7826 224.262C60.7271 224.251 60.6745 224.228 60.6281 224.195C60.5816 224.163 60.5422 224.121 60.5121 224.073C60.4821 224.025 60.4621 223.971 60.4533 223.915C60.4445 223.859 60.4472 223.802 60.461 223.747C60.4736 223.691 60.497 223.639 60.5298 223.593C60.5626 223.547 60.6042 223.508 60.6521 223.478C60.7001 223.449 60.7534 223.428 60.8092 223.419C60.8649 223.41 60.9219 223.412 60.9769 223.425C61.1511 223.465 65.2716 224.477 67.0069 227.854C67.0394 227.903 67.0615 227.959 67.0717 228.017C67.0819 228.076 67.08 228.136 67.0662 228.194C67.0524 228.251 67.027 228.306 66.9914 228.353C66.9559 228.401 66.911 228.44 66.8595 228.47Z" fill="#E0E0E0"/>
<path d="M68.0186 226.788C67.9163 226.84 67.7978 226.849 67.6886 226.814C67.5795 226.779 67.4886 226.702 67.4357 226.601C66.238 224.635 64.311 223.224 62.0757 222.675C61.9629 222.656 61.8621 222.593 61.7955 222.5C61.7289 222.407 61.702 222.292 61.7206 222.179C61.7393 222.066 61.802 221.965 61.895 221.899C61.988 221.832 62.1036 221.805 62.2164 221.824C63.4637 222.111 64.6405 222.646 65.6764 223.398C66.7124 224.15 67.5865 225.102 68.2464 226.199C68.2718 226.252 68.286 226.31 68.2882 226.369C68.2904 226.428 68.2806 226.487 68.2593 226.543C68.2379 226.598 68.2056 226.648 68.1642 226.69C68.1229 226.732 68.0733 226.766 68.0186 226.788Z" fill="#E0E0E0"/>
<path d="M106.999 132.365C104.46 137.591 102.021 143.862 100.299 154.623C98.577 165.383 97.1968 175.714 97.1968 175.714C97.1968 175.714 97.1968 179.587 105.907 182.287C114.617 184.987 121.029 181.965 121.029 181.965L123.039 176.136L124.332 180.471C124.332 180.471 128.305 182.26 135.836 181.215C143.366 180.17 147.078 175.386 147.078 175.386C147.078 175.386 142.248 142.442 139.078 136.057L106.999 132.365Z" fill="#455A64"/>
<path d="M123.112 176.136L126.63 164.82C126.63 164.82 132.66 163.426 137.296 156.84C137.296 156.84 137.296 163.594 127.916 167.038L124.921 175.245L124.446 180.451L123.112 176.136Z" fill="#37474F"/>
<path d="M107.147 175.62C107.134 175.591 107.127 175.559 107.127 175.527C107.127 175.494 107.134 175.462 107.147 175.433C107.153 175.401 107.167 175.372 107.187 175.346C107.206 175.321 107.232 175.3 107.26 175.285L109.404 174.006L109.565 173.919C109.622 173.902 109.683 173.902 109.739 173.919L110.409 174.012C110.442 174.014 110.473 174.023 110.501 174.04C110.529 174.056 110.553 174.079 110.57 174.106C110.591 174.13 110.607 174.157 110.616 174.188C110.625 174.218 110.628 174.249 110.624 174.28L109.88 180.049C109.879 180.081 109.869 180.113 109.853 180.141C109.837 180.169 109.814 180.193 109.786 180.21C109.762 180.23 109.734 180.244 109.704 180.253C109.674 180.261 109.643 180.262 109.612 180.257L108.882 180.163C108.85 180.16 108.819 180.15 108.791 180.134C108.763 180.118 108.739 180.096 108.721 180.069C108.682 180.017 108.666 179.952 108.674 179.888L109.25 175.46L107.843 176.29C107.815 176.304 107.784 176.31 107.753 176.31C107.722 176.31 107.691 176.304 107.662 176.29C107.598 176.274 107.543 176.233 107.508 176.176L107.147 175.62Z" fill="#5264F2"/>
<path d="M113.987 180.833C113.923 180.824 113.866 180.79 113.826 180.739C113.788 180.687 113.772 180.622 113.779 180.558L113.92 179.473L111.14 179.111C111.108 179.108 111.077 179.098 111.049 179.082C111.021 179.066 110.997 179.044 110.979 179.017C110.958 178.992 110.943 178.963 110.935 178.932C110.927 178.901 110.926 178.868 110.932 178.836L111.012 178.2C111.022 178.122 111.052 178.048 111.099 177.985L111.267 177.805L114.449 174.736C114.498 174.678 114.56 174.632 114.63 174.601C114.7 174.571 114.775 174.558 114.851 174.562L115.521 174.649C115.585 174.659 115.643 174.693 115.683 174.744C115.723 174.795 115.742 174.859 115.736 174.924L115.267 178.508L116.037 178.609C116.101 178.619 116.159 178.652 116.199 178.704C116.239 178.755 116.258 178.819 116.252 178.883L116.171 179.52C116.162 179.584 116.128 179.641 116.077 179.681C116.025 179.718 115.961 179.735 115.897 179.727L115.126 179.627L114.985 180.712C114.981 180.745 114.969 180.776 114.952 180.803C114.935 180.831 114.912 180.855 114.885 180.873C114.861 180.893 114.833 180.908 114.803 180.918C114.773 180.927 114.742 180.93 114.711 180.927L113.987 180.833ZM114.067 178.354L114.315 176.431L112.56 178.153L114.067 178.354Z" fill="#5264F2"/>
<path d="M113.679 139.059L112.279 136.975C108.553 143.809 104.607 166.267 102.765 181.088C103.314 181.336 103.917 181.583 104.574 181.818C105.82 171.828 109.036 149.115 113.679 139.059Z" fill="#5264F2"/>
<path d="M99.1934 178.89C99.7335 179.361 100.317 179.781 100.935 180.143C102.228 169.879 105.411 147.836 109.967 137.933L108.54 135.869C104.929 142.536 101.083 164.07 99.1934 178.89Z" fill="#5264F2"/>
<path d="M164.994 71.087C164.107 73.9246 162.684 76.5654 160.8 78.8657C152.137 89.6326 142.904 96.0713 138.335 105.492C133.089 104.822 126.275 95.7363 130.496 90.5237C135.079 88.8889 152.184 70.752 153.779 68.1189C155.219 65.3652 160.077 52.7089 161.216 47.9251C161.389 47.1205 161.265 46.2805 160.867 45.56C159.755 43.4562 159.896 41.205 159.393 39.0744C158.998 37.4195 158.288 36.6423 158.616 36.3944C159.03 36.1346 159.528 36.0407 160.008 36.1313C160.489 36.222 160.918 36.4906 161.209 36.8835C161.954 37.9382 162.6 39.0596 163.138 40.2335C163.293 38.312 163.307 36.3817 163.179 34.4581C162.897 30.0361 163.916 26.7464 168.82 29.5604C171.902 31.3225 173.617 35.8517 171.976 43.9386C171.507 46.2702 170.2 51.0339 169.363 54.3772C167.815 60.5747 167.152 65.4791 164.994 71.087Z" fill="#FFA8A7"/>
<path d="M127.735 90.5371C129.812 89.5522 132.305 88.7549 135.045 86.5171C137.906 84.1855 141.464 81.5457 141.464 81.5457C141.464 81.5457 147.695 86.6176 147.547 94.1082C145.25 96.4244 143.255 99.0223 141.611 101.84C140.373 104.013 139.403 106.328 138.723 108.734C138.723 108.734 131.822 110.074 130.563 102.651C129.899 98.5528 128.954 94.5055 127.735 90.5371Z" fill="#5264F2"/>
<path d="M137.792 126.241C138.047 124.044 137.98 119.984 138.02 118.871C143.809 113.933 142.509 108.192 140.7 103.93C137.035 95.408 133.33 90.4902 129.692 90.4634L119.642 90.7515C114.449 90.8453 108.453 91.1401 107.12 91.3679C103.723 91.9508 102.142 95.3879 101.76 98.959C101.371 102.858 100.453 103.16 101.09 109.679C101.09 109.679 103.428 116.379 105.518 122.308C105.518 122.308 106.275 126.69 105.518 128.727C104.125 132.499 102.121 141.243 101.425 147.608C101.425 147.608 105.116 152.84 121.819 152.834C129.091 152.831 136.196 150.654 142.221 146.583L137.792 126.241Z" fill="#5264F2"/>
<path d="M103.388 103.689C103.388 104.259 103.428 104.875 103.481 105.579L140.519 103.569C140.238 102.899 139.963 102.316 139.688 101.719L103.388 103.689Z" fill="#455A64"/>
<path d="M129.672 90.4836L119.622 90.7717C114.429 90.8655 108.433 91.1603 107.1 91.3881C103.703 91.971 103.971 95.053 103.616 98.604C103.443 99.6181 103.352 100.644 103.341 101.673L138.784 99.9172C135.755 93.9006 132.707 90.5037 129.672 90.4836Z" fill="#455A64"/>
<path opacity="0.1" d="M109.967 128.64C108.533 127.434 109.17 124.332 108.225 120.506C107.28 116.681 105.257 112.466 106.068 110.336C106.878 108.205 108.855 103.971 108.614 97.8603L102.51 95.8101C102.141 96.8436 101.905 97.9197 101.807 99.0127C101.418 102.912 100.5 103.214 101.137 109.733C101.137 109.733 103.475 116.433 105.565 122.362C105.565 122.362 106.322 126.744 105.565 128.781C104.172 132.553 102.168 141.296 101.472 147.661C101.472 147.661 105.163 152.894 121.866 152.887H122.362C129.189 132.03 111.341 129.786 109.967 128.64Z" fill="black"/>
<path opacity="0.1" d="M112.379 114.811C113.103 116.377 114.264 117.699 115.723 118.619C117.182 119.54 118.875 120.018 120.6 119.997C122.257 120.034 123.895 119.633 125.348 118.834C126.801 118.035 128.017 116.867 128.874 115.448C128.874 115.448 128.258 121.994 120.506 121.565C112.754 121.136 112.379 114.811 112.379 114.811Z" fill="black"/>
<path d="M139.869 63.7439C140.904 60.9855 141.24 58.014 140.847 55.0942C139.814 55.4138 138.762 55.6733 137.698 55.8714C138.058 55.0335 138.465 54.217 138.918 53.4259C139.375 52.6297 139.607 51.7241 139.588 50.8062C139.564 50.3493 139.407 49.9094 139.135 49.5413C138.864 49.1731 138.49 48.893 138.06 48.7359C137.264 48.6207 136.453 48.7615 135.742 49.1379C131.595 50.6447 127.229 51.4574 122.818 51.5432C115.126 51.8916 107.455 54.8932 105.297 61.7138C103.957 65.9817 105.17 71.7236 107.193 76.7151C109.217 81.7066 112.352 85.4251 114.329 85.8941L122.208 84.5541C125.739 85.1839 129.136 83.7903 131.742 81.4453C132.443 80.8119 133.094 80.1266 133.692 79.3951C134.252 78.6658 134.649 77.8251 134.858 76.9295C135.497 74.8711 135.994 72.7713 136.345 70.6449C136.398 70.2215 136.499 69.8057 136.646 69.4054C136.862 68.97 137.129 68.5627 137.444 68.1927C138.461 66.8334 139.278 65.3352 139.869 63.7439Z" fill="#263238"/>
<path d="M132.62 58.3972C134.589 59.4625 137.142 64.2262 137.276 74.3968C137.383 83.013 134.67 85.2441 133.29 85.9074C131.909 86.5707 129.196 86.296 126.549 85.9476L126.737 91.12C126.737 91.12 127.085 96.6408 124.975 97.0026C119.199 96.6408 114.335 91.3813 114.335 91.3813V80.3799C113.641 80.6186 112.892 80.6521 112.179 80.4762C111.466 80.3003 110.819 79.9226 110.315 79.3883C108.305 77.2979 107.635 74.3968 109.23 72.628C109.652 72.2076 110.169 71.8933 110.736 71.7109C111.303 71.5285 111.906 71.4831 112.494 71.5786C113.083 71.674 113.64 71.9075 114.121 72.26C114.602 72.6124 114.992 73.0738 115.26 73.6062C115.26 73.6062 116.808 73.6799 118.248 70.7587C120.85 70.9579 123.445 70.281 125.618 68.8358C130.991 65.4389 132.204 60.1392 132.62 58.3972Z" fill="#FFA8A7"/>
<path d="M126.054 72.0853C126.07 72.2298 126.056 72.3759 126.015 72.5153C125.974 72.6546 125.906 72.7845 125.814 72.8972C125.723 73.01 125.61 73.1035 125.482 73.1723C125.354 73.2411 125.213 73.2838 125.069 73.2981C124.846 73.3253 124.62 73.2853 124.421 73.1833C124.221 73.0813 124.056 72.9219 123.947 72.7255C123.839 72.5292 123.791 72.3049 123.811 72.0813C123.831 71.8578 123.917 71.6453 124.058 71.4712C124.2 71.297 124.39 71.1691 124.605 71.1038C124.82 71.0386 125.049 71.039 125.263 71.105C125.478 71.171 125.668 71.2996 125.809 71.4743C125.949 71.649 126.035 71.8618 126.054 72.0853Z" fill="#263238"/>
<g style="mix-blend-mode:multiply" opacity="0.5">
<path d="M127.655 79.2476L131.072 80.2057C131.019 80.4334 130.921 80.6482 130.783 80.8371C130.645 81.026 130.47 81.1852 130.27 81.3053C130.069 81.4253 129.846 81.5037 129.615 81.5358C129.383 81.5679 129.147 81.553 128.921 81.4921C128.46 81.3562 128.069 81.0458 127.833 80.6267C127.596 80.2076 127.533 79.7129 127.655 79.2476Z" fill="#F28F8F"/>
</g>
<path d="M135.722 68.34L133.478 66.8995C133.563 66.7479 133.678 66.6154 133.817 66.5104C133.956 66.4055 134.115 66.3302 134.284 66.2893C134.453 66.2485 134.629 66.2429 134.8 66.2729C134.971 66.303 135.135 66.368 135.28 66.464C135.581 66.6595 135.795 66.9637 135.878 67.3132C135.96 67.6628 135.904 68.0306 135.722 68.34Z" fill="#263238"/>
<path d="M124.406 68.3401L121.94 69.3852C121.864 69.2278 121.821 69.0563 121.814 68.8816C121.806 68.7068 121.835 68.5325 121.898 68.3692C121.961 68.206 122.056 68.0573 122.179 67.9325C122.301 67.8076 122.448 67.7092 122.61 67.6433C122.942 67.5076 123.313 67.5043 123.647 67.6339C123.981 67.7635 124.252 68.0162 124.406 68.3401Z" fill="#263238"/>
<path d="M135.239 71.5224C135.249 71.7349 135.196 71.9456 135.087 72.1283C134.978 72.3109 134.818 72.4575 134.626 72.5498C134.434 72.6421 134.22 72.676 134.009 72.6474C133.798 72.6188 133.601 72.5288 133.44 72.3887C133.28 72.2486 133.165 72.0646 133.109 71.8595C133.052 71.6543 133.057 71.4372 133.123 71.235C133.189 71.0327 133.313 70.8544 133.48 70.722C133.647 70.5897 133.848 70.5092 134.06 70.4906C134.206 70.4797 134.352 70.4979 134.49 70.544C134.629 70.5902 134.756 70.6634 134.866 70.7594C134.976 70.8555 135.065 70.9724 135.13 71.1034C135.194 71.2344 135.231 71.3768 135.239 71.5224Z" fill="#263238"/>
<g style="mix-blend-mode:multiply" opacity="0.5">
<path d="M130.02 71.0869L130.422 77.5993L133.819 76.4134L130.02 71.0869Z" fill="#F28F8F"/>
</g>
<g style="mix-blend-mode:multiply" opacity="0.5">
<path d="M126.55 85.9477C123.769 85.6864 118.014 84.2526 117.042 82.0349C117.44 83.1621 118.174 84.1397 119.146 84.8355C120.902 86.2358 126.61 87.6763 126.61 87.6763L126.55 85.9477Z" fill="#F28F8F"/>
</g>
<path d="M115.273 73.6063L115.441 78.1355C115.846 78.1217 116.244 78.0279 116.613 77.8596C116.982 77.6913 117.314 77.4518 117.59 77.1547C117.865 76.8577 118.08 76.5091 118.22 76.129C118.361 75.7488 118.425 75.3446 118.409 74.9396L118.262 70.7588L115.273 73.6063Z" fill="#263238"/>
<path d="M106.718 164.8C116.154 164.8 123.803 157.151 123.803 147.715C123.803 138.279 116.154 130.63 106.718 130.63C97.282 130.63 89.6328 138.279 89.6328 147.715C89.6328 157.151 97.282 164.8 106.718 164.8Z" fill="#F5F5F5"/>
<path d="M109.712 139.394C107.316 139.578 104.98 140.233 102.838 141.323C102.624 143.623 102.624 145.938 102.838 148.238C104.779 149.229 106.849 149.942 108.989 150.355C108.989 150.355 112.258 147.675 113.156 145.189C112.495 143.007 111.313 141.018 109.712 139.394Z" fill="#455A64"/>
<path d="M98.2621 138.422L97.7797 137.464C97.7462 137.504 97.7194 137.551 97.6859 137.598L97.6055 137.698L98.0611 138.61L102.751 141.43L103.26 141.812C103.274 141.779 103.292 141.747 103.314 141.718C103.347 141.676 103.385 141.637 103.428 141.604L102.898 141.209L98.2621 138.422Z" fill="#455A64"/>
<path d="M108.017 131.816C107.622 131.769 107.2 131.722 106.724 131.688C104.233 131.515 101.753 132.155 99.6557 133.511L98.6909 134.067C98.7349 134.147 98.7665 134.232 98.7847 134.322L99.7964 133.732C101.846 132.408 104.27 131.783 106.704 131.95C107.307 131.997 107.843 132.057 108.312 132.124C108.191 132.046 108.09 131.94 108.017 131.816Z" fill="#455A64"/>
<path d="M111.361 134.067L111.133 134.817L109.592 139.346L109.224 140.305C109.31 140.322 109.396 140.347 109.478 140.378L109.84 139.434L111.388 134.898L111.616 134.141C111.528 134.126 111.443 134.102 111.361 134.067Z" fill="#455A64"/>
<path d="M119.595 145.336C119.423 145.482 119.242 145.617 119.052 145.738C117.103 145.404 115.137 145.181 113.163 145.068H113.069C112.948 145.07 112.827 145.081 112.708 145.102C112.714 145.189 112.714 145.276 112.708 145.363C112.854 145.346 113.003 145.346 113.15 145.363C115.129 145.472 117.099 145.696 119.052 146.033H119.106H119.146C119.331 145.921 119.506 145.793 119.669 145.651C119.632 145.55 119.607 145.444 119.595 145.336Z" fill="#455A64"/>
<path d="M117.13 135.849C118.175 136.848 120.124 138.717 120.922 141.303C120.986 141.506 121.033 141.715 121.062 141.926C121.142 141.89 121.225 141.861 121.31 141.839C121.281 141.633 121.236 141.429 121.176 141.229C120.359 138.549 118.376 136.673 117.31 135.655C117.183 135.541 117.076 135.434 116.982 135.34C116.771 135.136 116.548 134.946 116.312 134.771C116.298 134.813 116.277 134.854 116.252 134.891C116.223 134.925 116.189 134.955 116.151 134.978C116.367 135.15 116.573 135.333 116.768 135.528L117.13 135.849Z" fill="#455A64"/>
<path d="M109.13 150.355C109.13 150.248 109.264 149.899 109.438 149.43C109.337 149.482 109.229 149.516 109.116 149.531C108.962 149.966 108.875 150.268 108.862 150.321L110.537 156.68H110.577C110.624 156.713 111.167 157.095 111.79 157.51H111.85L112.131 157.443C111.636 157.122 111.126 156.773 110.791 156.519L109.13 150.355Z" fill="#455A64"/>
<path d="M120.962 151.219C120.834 151.534 120.694 151.889 120.533 152.197C119.509 154.187 118.097 155.95 116.379 157.383C116.138 157.51 115.709 157.718 115.267 157.912C115.347 157.965 115.417 158.03 115.474 158.107C115.984 157.885 116.419 157.658 116.52 157.597C118.283 156.143 119.73 154.344 120.774 152.311C120.921 152.003 121.049 151.695 121.169 151.4C121.094 151.347 121.024 151.286 120.962 151.219Z" fill="#455A64"/>
<path d="M103.575 147.661C103.334 147.789 103.066 147.943 102.765 148.124C100.966 149.319 99.272 150.664 97.6994 152.144C97.6324 152.251 97.418 152.626 97.1768 153.129C97.2427 153.202 97.3032 153.281 97.3577 153.363C97.5654 152.934 97.7664 152.552 97.9138 152.291C99.4705 150.815 101.147 149.47 102.925 148.271C103.254 148.07 103.548 147.909 103.803 147.775C103.724 147.745 103.647 147.706 103.575 147.661Z" fill="#455A64"/>
<path d="M107.334 160.411C106.885 160.411 106.376 160.364 105.813 160.318C103.538 160.151 101.355 159.347 99.515 157.999H99.4815C99.204 157.934 98.931 157.851 98.6641 157.751C98.6641 157.845 98.6641 157.932 98.6641 158.026C99.0326 158.153 99.3341 158.227 99.4212 158.254C101.3 159.621 103.523 160.437 105.84 160.612L107.267 160.699C107.27 160.6 107.293 160.502 107.334 160.411Z" fill="#455A64"/>
<path d="M92.8283 150.08C92.9189 150.061 93.0124 150.061 93.103 150.08C93.0216 149.782 92.9567 149.48 92.9087 149.176C92.7294 146.926 92.8397 144.663 93.237 142.442C93.3169 142.035 93.4176 141.633 93.5385 141.236C93.4762 141.243 93.4133 141.243 93.3509 141.236H93.2571C93.1499 141.607 93.0561 141.989 92.9757 142.382C92.5715 144.632 92.4611 146.924 92.6474 149.202C92.6943 149.511 92.7546 149.805 92.8283 150.08Z" fill="#455A64"/>
<path d="M106.718 131.816C108.423 132.511 109.969 133.546 111.26 134.858C113.156 134.717 115.061 134.912 116.888 135.434C116.835 134.87 116.734 134.312 116.587 133.766C114.088 131.994 111.158 130.929 108.105 130.684C107.617 131.029 107.154 131.407 106.718 131.816Z" fill="#455A64"/>
<path d="M123.28 143.534C122.626 142.691 121.875 141.929 121.042 141.263C120.552 142.865 119.891 144.41 119.072 145.872C119.752 147.96 120.278 150.094 120.647 152.257C121.583 152.069 122.5 151.798 123.387 151.447C123.966 148.837 123.929 146.127 123.28 143.534Z" fill="#455A64"/>
<path d="M95.3676 159.252C95.3676 159.252 98.1213 159.004 99.4345 158.107C99.4345 158.107 98.5702 155.514 97.793 152.271C96.0341 151.395 94.3569 150.363 92.7814 149.189C92.7814 149.189 91.7094 150.301 91.4414 153.832C92.3845 155.877 93.7183 157.719 95.3676 159.252Z" fill="#455A64"/>
<path d="M91.79 139.46C91.992 140.539 92.4518 141.553 93.13 142.415C94.427 140.679 96.1739 139.331 98.1818 138.516C98.5834 136.85 99.1051 135.215 99.7429 133.625C98.9004 133.525 98.0512 133.494 97.2036 133.531C94.9534 135.049 93.0975 137.082 91.79 139.46Z" fill="#455A64"/>
<path d="M116.439 157.497C114.483 157.435 112.54 157.145 110.651 156.633C109.169 158.069 107.543 159.348 105.8 160.452C105.8 160.452 107.026 162.931 108.52 163.842C110.711 163.608 112.845 162.993 114.825 162.026C115.642 160.631 116.19 159.095 116.439 157.497Z" fill="#455A64"/>
<path opacity="0.1" d="M121.431 156.405C118.57 160.458 107.548 163.018 100.52 153.899C93.4918 144.78 97.552 134.301 102.664 131.119C99.9263 131.787 97.3964 133.123 95.2999 135.006C93.2033 136.89 91.6052 139.262 90.648 141.913C89.6908 144.564 89.4041 147.41 89.8136 150.199C90.2231 152.987 91.3161 155.631 92.995 157.894C94.6739 160.158 96.8868 161.971 99.4363 163.172C101.986 164.373 104.793 164.925 107.607 164.778C110.422 164.631 113.156 163.79 115.567 162.331C117.978 160.871 119.99 158.837 121.424 156.411L121.431 156.405Z" fill="black"/>
<path d="M101.579 154.576C102.456 154.857 104.259 155.199 104.614 154.107C104.969 153.015 103.481 152.814 102.443 151.775C101.33 150.59 100.149 149.472 98.9052 148.425C97.3173 147.179 95.2403 147.005 94.51 145.618C93.7261 144.479 90.0344 128.151 89.0629 123.709C94.0142 117.927 98.5099 113.049 102.195 108.641C102.195 108.641 107.374 98.403 107.18 91.7901C104.252 90.8521 100.875 91.2139 95.4614 96.9759C90.3358 102.496 85.5307 108.306 81.0698 114.376C76.3798 120.835 75.9845 120.654 77.7198 127.166C79.9074 134.885 82.6389 142.439 85.8938 149.772C87.9038 154.02 88.5738 155.474 90.4029 158.435C92.0712 161.115 95.6825 164.076 97.6523 164.706C100.587 165.631 104.674 165.135 104.915 162.18C105.156 159.226 99.7226 156.271 98.8851 153.276C99.7401 153.793 100.642 154.228 101.579 154.576Z" fill="#FFA8A7"/>
<path d="M107.964 91.2809C107.964 91.2809 102.55 90.8186 99.9907 92.6946C97.4313 94.5706 95.9707 95.8167 91.1936 100.936C89.4516 102.818 87.3076 105.492 87.3076 105.492C87.3076 105.492 89.9876 113.532 97.9271 114.811L105.512 107.2C107.374 105.19 109.88 98.7849 107.964 91.2809Z" fill="#5264F2"/>
<path d="M190.823 51.4092C190.646 51.4107 190.473 51.3644 190.321 51.2752L185.463 48.4679C185.232 48.3346 185.063 48.115 184.994 47.8574C184.925 47.5999 184.961 47.3254 185.095 47.0944C185.228 46.8634 185.447 46.6948 185.705 46.6257C185.963 46.5566 186.237 46.5926 186.468 46.7259L191.326 49.5332C191.517 49.6436 191.667 49.8144 191.752 50.0189C191.837 50.2235 191.852 50.4503 191.795 50.6642C191.738 50.8781 191.611 51.0671 191.436 51.2018C191.26 51.3365 191.044 51.4094 190.823 51.4092Z" fill="#5264F2"/>
<path d="M194.153 40.1999H188.023C187.756 40.1999 187.5 40.0941 187.312 39.9056C187.123 39.7171 187.018 39.4615 187.018 39.1949C187.018 38.9284 187.123 38.6728 187.312 38.4843C187.5 38.2958 187.756 38.1899 188.023 38.1899H194.153C194.42 38.1899 194.675 38.2958 194.864 38.4843C195.052 38.6728 195.158 38.9284 195.158 39.1949C195.158 39.4615 195.052 39.7171 194.864 39.9056C194.675 40.0941 194.42 40.1999 194.153 40.1999Z" fill="#5264F2"/>
<path d="M185.316 32.1601C185.094 32.1603 184.879 32.0874 184.703 31.9527C184.527 31.818 184.401 31.629 184.344 31.4151C184.286 31.2012 184.301 30.9743 184.386 30.7698C184.471 30.5653 184.621 30.3945 184.813 30.2841L191.078 26.6661C191.192 26.6001 191.318 26.5572 191.449 26.5401C191.58 26.5229 191.713 26.5316 191.841 26.5658C191.968 26.6001 192.088 26.6591 192.193 26.7395C192.297 26.8199 192.385 26.9202 192.451 27.0346C192.517 27.1489 192.56 27.2752 192.577 27.4061C192.594 27.537 192.586 27.6701 192.551 27.7976C192.517 27.9252 192.458 28.0447 192.378 28.1495C192.297 28.2542 192.197 28.3421 192.083 28.4081L185.818 32.0261C185.666 32.1146 185.492 32.1609 185.316 32.1601Z" fill="#5264F2"/>
<path d="M179.5 26.2172C179.323 26.2187 179.15 26.1724 178.997 26.0832C178.775 25.9503 178.613 25.7368 178.544 25.4871C178.476 25.2375 178.506 24.971 178.629 24.7432L182.086 18.7601C182.147 18.6364 182.232 18.5266 182.337 18.4374C182.442 18.3482 182.565 18.2815 182.696 18.2415C182.828 18.2015 182.967 18.1891 183.104 18.2049C183.241 18.2207 183.373 18.2645 183.492 18.3336C183.611 18.4026 183.715 18.4954 183.797 18.6062C183.878 18.717 183.937 18.8435 183.968 18.9777C183.998 19.112 184.001 19.2511 183.976 19.3866C183.951 19.522 183.898 19.6509 183.821 19.7651L180.371 25.7482C180.279 25.8948 180.15 26.0151 179.997 26.0973C179.845 26.1794 179.673 26.2208 179.5 26.2172Z" fill="#5264F2"/>
<path d="M152.023 51.4092C151.802 51.4094 151.586 51.3365 151.411 51.2018C151.235 51.0671 151.109 50.8781 151.051 50.6642C150.994 50.4503 151.009 50.2235 151.094 50.0189C151.179 49.8144 151.329 49.6436 151.521 49.5332L156.378 46.7259C156.609 46.5926 156.884 46.5566 157.141 46.6257C157.399 46.6948 157.618 46.8634 157.752 47.0944C157.885 47.3254 157.921 47.5999 157.852 47.8574C157.783 48.115 157.614 48.3346 157.383 48.4679L152.526 51.2752C152.373 51.3637 152.2 51.41 152.023 51.4092Z" fill="#5264F2"/>
<path d="M154.817 40.1999H148.687C148.42 40.1999 148.164 40.0941 147.976 39.9056C147.788 39.7171 147.682 39.4615 147.682 39.1949C147.682 38.9284 147.788 38.6728 147.976 38.4843C148.164 38.2958 148.42 38.1899 148.687 38.1899H154.817C155.084 38.1899 155.339 38.2958 155.528 38.4843C155.716 38.6728 155.822 38.9284 155.822 39.1949C155.822 39.4615 155.716 39.7171 155.528 39.9056C155.339 40.0941 155.084 40.1999 154.817 40.1999Z" fill="#5264F2"/>
<path d="M157.531 32.1599C157.354 32.1607 157.181 32.1144 157.028 32.0259L150.75 28.4347C150.636 28.3687 150.535 28.2808 150.455 28.1761C150.375 28.0713 150.316 27.9518 150.281 27.8242C150.247 27.6967 150.238 27.5637 150.256 27.4327C150.273 27.3018 150.316 27.1755 150.382 27.0612C150.448 26.9468 150.535 26.8465 150.64 26.7661C150.745 26.6857 150.865 26.6267 150.992 26.5925C151.12 26.5582 151.253 26.5495 151.384 26.5667C151.514 26.5839 151.641 26.6267 151.755 26.6927L158.026 30.3107C158.218 30.4211 158.368 30.5919 158.453 30.7964C158.538 31.001 158.553 31.2278 158.496 31.4417C158.438 31.6556 158.312 31.8446 158.136 31.9793C157.961 32.114 157.745 32.1869 157.524 32.1867L157.531 32.1599Z" fill="#5264F2"/>
<path d="M163.346 26.2171C163.17 26.2172 162.996 26.1708 162.843 26.0826C162.69 25.9944 162.563 25.8674 162.475 25.7146L159.018 19.7315C158.952 19.6171 158.909 19.4908 158.892 19.3599C158.875 19.229 158.883 19.0959 158.918 18.9684C158.987 18.7108 159.155 18.4912 159.386 18.3579C159.617 18.2247 159.892 18.1886 160.149 18.2577C160.407 18.3268 160.627 18.4954 160.76 18.7265L164.217 24.7096C164.34 24.9374 164.37 25.2039 164.302 25.4535C164.233 25.7031 164.071 25.9167 163.849 26.0496C163.699 26.1499 163.526 26.2078 163.346 26.2171Z" fill="#5264F2"/>
<path d="M171.42 24.8905C171.153 24.8905 170.897 24.7846 170.709 24.5961C170.52 24.4077 170.415 24.152 170.415 23.8855V15.6847C170.415 15.4181 170.52 15.1625 170.709 14.974C170.897 14.7856 171.153 14.6797 171.42 14.6797C171.686 14.6797 171.942 14.7856 172.13 14.974C172.319 15.1625 172.425 15.4181 172.425 15.6847V23.8855C172.425 24.152 172.319 24.4077 172.13 24.5961C171.942 24.7846 171.686 24.8905 171.42 24.8905Z" fill="#5264F2"/>
</svg>
