<svg width="16" height="16" viewBox="0 0 16 16" fill="none" xmlns="http://www.w3.org/2000/svg">
<path d="M11.4933 15.1668H4.50668C2.64001 15.1668 1.45335 14.0535 1.34668 12.1935L1.00001 6.6935C0.946681 5.86016 1.23335 5.06016 1.80668 4.4535C2.37335 3.84683 3.17335 3.50016 4.00001 3.50016C4.21335 3.50016 4.42001 3.3735 4.52001 3.1735L5.00001 2.22016C5.39335 1.44016 6.38001 0.833496 7.24001 0.833496H8.76668C9.62668 0.833496 10.6067 1.44016 11 2.2135L11.48 3.18683C11.58 3.3735 11.78 3.50016 12 3.50016C12.8267 3.50016 13.6267 3.84683 14.1933 4.4535C14.7667 5.06683 15.0533 5.86016 15 6.6935L14.6533 12.2002C14.5333 14.0868 13.38 15.1668 11.4933 15.1668ZM7.24001 1.8335C6.74668 1.8335 6.12001 2.22016 5.89335 2.66683L5.41335 3.62683C5.13335 4.16683 4.59335 4.50016 4.00001 4.50016C3.44001 4.50016 2.92001 4.72683 2.53335 5.1335C2.15335 5.54016 1.96001 6.0735 2.00001 6.62683L2.34668 12.1335C2.42668 13.4802 3.15335 14.1668 4.50668 14.1668H11.4933C12.84 14.1668 13.5667 13.4802 13.6533 12.1335L14 6.62683C14.0333 6.0735 13.8467 5.54016 13.4667 5.1335C13.08 4.72683 12.56 4.50016 12 4.50016C11.4067 4.50016 10.8667 4.16683 10.5867 3.64016L10.1 2.66683C9.88001 2.22683 9.25335 1.84016 8.76001 1.84016H7.24001V1.8335Z" fill="#5264F2"/>
<path d="M9 5.8335H7C6.72667 5.8335 6.5 5.60683 6.5 5.3335C6.5 5.06016 6.72667 4.8335 7 4.8335H9C9.27333 4.8335 9.5 5.06016 9.5 5.3335C9.5 5.60683 9.27333 5.8335 9 5.8335Z" fill="#5264F2"/>
<path d="M7.99998 12.4998C6.52665 12.4998 5.33331 11.3065 5.33331 9.83317C5.33331 8.35984 6.52665 7.1665 7.99998 7.1665C9.47331 7.1665 10.6666 8.35984 10.6666 9.83317C10.6666 11.3065 9.47331 12.4998 7.99998 12.4998ZM7.99998 8.1665C7.07998 8.1665 6.33331 8.91317 6.33331 9.83317C6.33331 10.7532 7.07998 11.4998 7.99998 11.4998C8.91998 11.4998 9.66665 10.7532 9.66665 9.83317C9.66665 8.91317 8.91998 8.1665 7.99998 8.1665Z" fill="#5264F2"/>
</svg>
