<svg width="246" height="29" viewBox="0 0 246 29" fill="none" xmlns="http://www.w3.org/2000/svg">
<path d="M15.427 2.211V4.949H4.216V13.644H13.318V16.382H4.216V28H0.849V2.211H15.427ZM28.3365 28.333C26.4372 28.333 24.7105 27.9013 23.1565 27.038C21.6272 26.1747 20.4185 24.9537 19.5305 23.375C18.6672 21.7717 18.2355 19.9217 18.2355 17.825C18.2355 15.753 18.6795 13.9277 19.5675 12.349C20.4802 10.7457 21.7135 9.52467 23.2675 8.686C24.8215 7.82267 26.5605 7.391 28.4845 7.391C30.4085 7.391 32.1475 7.82267 33.7015 8.686C35.2555 9.52467 36.4765 10.7333 37.3645 12.312C38.2772 13.8907 38.7335 15.7283 38.7335 17.825C38.7335 19.9217 38.2649 21.7717 37.3275 23.375C36.4149 24.9537 35.1692 26.1747 33.5905 27.038C32.0119 27.9013 30.2605 28.333 28.3365 28.333ZM28.3365 25.373C29.5452 25.373 30.6799 25.0893 31.7405 24.522C32.8012 23.9547 33.6522 23.1037 34.2935 21.969C34.9595 20.8343 35.2925 19.453 35.2925 17.825C35.2925 16.197 34.9719 14.8157 34.3305 13.681C33.6892 12.5463 32.8505 11.7077 31.8145 11.165C30.7785 10.5977 29.6562 10.314 28.4475 10.314C27.2142 10.314 26.0795 10.5977 25.0435 11.165C24.0322 11.7077 23.2182 12.5463 22.6015 13.681C21.9849 14.8157 21.6765 16.197 21.6765 17.825C21.6765 19.4777 21.9725 20.8713 22.5645 22.006C23.1812 23.1407 23.9952 23.9917 25.0065 24.559C26.0179 25.1017 27.1279 25.373 28.3365 25.373ZM52.0035 28.333C50.1042 28.333 48.3775 27.9013 46.8235 27.038C45.2942 26.1747 44.0855 24.9537 43.1975 23.375C42.3342 21.7717 41.9025 19.9217 41.9025 17.825C41.9025 15.753 42.3465 13.9277 43.2345 12.349C44.1472 10.7457 45.3805 9.52467 46.9345 8.686C48.4885 7.82267 50.2275 7.391 52.1515 7.391C54.0755 7.391 55.8145 7.82267 57.3685 8.686C58.9225 9.52467 60.1435 10.7333 61.0315 12.312C61.9442 13.8907 62.4005 15.7283 62.4005 17.825C62.4005 19.9217 61.9319 21.7717 60.9945 23.375C60.0819 24.9537 58.8362 26.1747 57.2575 27.038C55.6789 27.9013 53.9275 28.333 52.0035 28.333ZM52.0035 25.373C53.2122 25.373 54.3469 25.0893 55.4075 24.522C56.4682 23.9547 57.3192 23.1037 57.9605 21.969C58.6265 20.8343 58.9595 19.453 58.9595 17.825C58.9595 16.197 58.6389 14.8157 57.9975 13.681C57.3562 12.5463 56.5175 11.7077 55.4815 11.165C54.4455 10.5977 53.3232 10.314 52.1145 10.314C50.8812 10.314 49.7465 10.5977 48.7105 11.165C47.6992 11.7077 46.8852 12.5463 46.2685 13.681C45.6519 14.8157 45.3435 16.197 45.3435 17.825C45.3435 19.4777 45.6395 20.8713 46.2315 22.006C46.8482 23.1407 47.6622 23.9917 48.6735 24.559C49.6849 25.1017 50.7949 25.373 52.0035 25.373ZM70.9345 10.499V22.45C70.9345 23.4367 71.1442 24.1397 71.5635 24.559C71.9828 24.9537 72.7105 25.151 73.7465 25.151H76.2255V28H73.1915C71.3168 28 69.9108 27.5683 68.9735 26.705C68.0362 25.8417 67.5675 24.4233 67.5675 22.45V10.499H64.9405V7.724H67.5675V2.618H70.9345V7.724H76.2255V10.499H70.9345ZM83.6721 11.498C84.3627 10.2893 85.3741 9.30267 86.7061 8.538C88.0381 7.77333 89.5551 7.391 91.2571 7.391C93.0824 7.391 94.7227 7.82267 96.1781 8.686C97.6334 9.54933 98.7804 10.7703 99.6191 12.349C100.458 13.903 100.877 15.716 100.877 17.788C100.877 19.8353 100.458 21.6607 99.6191 23.264C98.7804 24.8673 97.6211 26.113 96.1411 27.001C94.6857 27.889 93.0577 28.333 91.2571 28.333C89.5057 28.333 87.9641 27.9507 86.6321 27.186C85.3247 26.4213 84.3381 25.447 83.6721 24.263V28H80.3051V0.62H83.6721V11.498ZM97.4361 17.788C97.4361 16.2587 97.1277 14.9267 96.5111 13.792C95.8944 12.6573 95.0557 11.794 93.9951 11.202C92.9591 10.61 91.8121 10.314 90.5541 10.314C89.3207 10.314 88.1737 10.6223 87.1131 11.239C86.0771 11.831 85.2384 12.7067 84.5971 13.866C83.9804 15.0007 83.6721 16.3203 83.6721 17.825C83.6721 19.3543 83.9804 20.6987 84.5971 21.858C85.2384 22.9927 86.0771 23.8683 87.1131 24.485C88.1737 25.077 89.3207 25.373 90.5541 25.373C91.8121 25.373 92.9591 25.077 93.9951 24.485C95.0557 23.8683 95.8944 22.9927 96.5111 21.858C97.1277 20.6987 97.4361 19.342 97.4361 17.788ZM104.051 17.788C104.051 15.716 104.47 13.903 105.309 12.349C106.148 10.7703 107.295 9.54933 108.75 8.686C110.23 7.82267 111.87 7.391 113.671 7.391C115.447 7.391 116.989 7.77333 118.296 8.538C119.603 9.30267 120.578 10.2647 121.219 11.424V7.724H124.623V28H121.219V24.226C120.553 25.41 119.554 26.3967 118.222 27.186C116.915 27.9507 115.385 28.333 113.634 28.333C111.833 28.333 110.205 27.889 108.75 27.001C107.295 26.113 106.148 24.8673 105.309 23.264C104.47 21.6607 104.051 19.8353 104.051 17.788ZM121.219 17.825C121.219 16.2957 120.911 14.9637 120.294 13.829C119.677 12.6943 118.839 11.831 117.778 11.239C116.742 10.6223 115.595 10.314 114.337 10.314C113.079 10.314 111.932 10.61 110.896 11.202C109.86 11.794 109.034 12.6573 108.417 13.792C107.8 14.9267 107.492 16.2587 107.492 17.788C107.492 19.342 107.8 20.6987 108.417 21.858C109.034 22.9927 109.86 23.8683 110.896 24.485C111.932 25.077 113.079 25.373 114.337 25.373C115.595 25.373 116.742 25.077 117.778 24.485C118.839 23.8683 119.677 22.9927 120.294 21.858C120.911 20.6987 121.219 19.3543 121.219 17.825ZM133.68 0.62V28H130.313V0.62H133.68ZM142.785 0.62V28H139.418V0.62H142.785ZM157.13 15.087C157.13 12.571 157.697 10.314 158.832 8.316C159.967 6.29333 161.508 4.71467 163.457 3.58C165.43 2.44533 167.613 1.878 170.006 1.878C172.818 1.878 175.272 2.55633 177.369 3.913C179.466 5.26967 180.995 7.19367 181.957 9.685H177.924C177.209 8.131 176.173 6.93467 174.816 6.096C173.484 5.25733 171.881 4.838 170.006 4.838C168.205 4.838 166.59 5.25733 165.159 6.096C163.728 6.93467 162.606 8.131 161.792 9.685C160.978 11.2143 160.571 13.015 160.571 15.087C160.571 17.1343 160.978 18.935 161.792 20.489C162.606 22.0183 163.728 23.2023 165.159 24.041C166.59 24.8797 168.205 25.299 170.006 25.299C171.881 25.299 173.484 24.892 174.816 24.078C176.173 23.2393 177.209 22.043 177.924 20.489H181.957C180.995 22.9557 179.466 24.8673 177.369 26.224C175.272 27.556 172.818 28.222 170.006 28.222C167.613 28.222 165.43 27.667 163.457 26.557C161.508 25.4223 159.967 23.856 158.832 21.858C157.697 19.86 157.13 17.603 157.13 15.087ZM185.711 17.788C185.711 15.716 186.13 13.903 186.969 12.349C187.808 10.7703 188.955 9.54933 190.41 8.686C191.89 7.82267 193.53 7.391 195.331 7.391C197.107 7.391 198.649 7.77333 199.956 8.538C201.263 9.30267 202.238 10.2647 202.879 11.424V7.724H206.283V28H202.879V24.226C202.213 25.41 201.214 26.3967 199.882 27.186C198.575 27.9507 197.045 28.333 195.294 28.333C193.493 28.333 191.865 27.889 190.41 27.001C188.955 26.113 187.808 24.8673 186.969 23.264C186.13 21.6607 185.711 19.8353 185.711 17.788ZM202.879 17.825C202.879 16.2957 202.571 14.9637 201.954 13.829C201.337 12.6943 200.499 11.831 199.438 11.239C198.402 10.6223 197.255 10.314 195.997 10.314C194.739 10.314 193.592 10.61 192.556 11.202C191.52 11.794 190.694 12.6573 190.077 13.792C189.46 14.9267 189.152 16.2587 189.152 17.788C189.152 19.342 189.46 20.6987 190.077 21.858C190.694 22.9927 191.52 23.8683 192.556 24.485C193.592 25.077 194.739 25.373 195.997 25.373C197.255 25.373 198.402 25.077 199.438 24.485C200.499 23.8683 201.337 22.9927 201.954 21.858C202.571 20.6987 202.879 19.3543 202.879 17.825ZM215.34 11.017C215.932 9.85767 216.771 8.95733 217.856 8.316C218.966 7.67467 220.31 7.354 221.889 7.354V10.832H221.001C217.227 10.832 215.34 12.8793 215.34 16.974V28H211.973V7.724H215.34V11.017ZM224.518 17.788C224.518 15.716 224.937 13.903 225.776 12.349C226.614 10.7703 227.761 9.54933 229.217 8.686C230.697 7.82267 232.349 7.391 234.175 7.391C235.753 7.391 237.221 7.761 238.578 8.501C239.934 9.21633 240.97 10.166 241.686 11.35V0.62H245.09V28H241.686V24.189C241.02 25.3977 240.033 26.3967 238.726 27.186C237.418 27.9507 235.889 28.333 234.138 28.333C232.337 28.333 230.697 27.889 229.217 27.001C227.761 26.113 226.614 24.8673 225.776 23.264C224.937 21.6607 224.518 19.8353 224.518 17.788ZM241.686 17.825C241.686 16.2957 241.377 14.9637 240.761 13.829C240.144 12.6943 239.305 11.831 238.245 11.239C237.209 10.6223 236.062 10.314 234.804 10.314C233.546 10.314 232.399 10.61 231.363 11.202C230.327 11.794 229.5 12.6573 228.884 13.792C228.267 14.9267 227.959 16.2587 227.959 17.788C227.959 19.342 228.267 20.6987 228.884 21.858C229.5 22.9927 230.327 23.8683 231.363 24.485C232.399 25.077 233.546 25.373 234.804 25.373C236.062 25.373 237.209 25.077 238.245 24.485C239.305 23.8683 240.144 22.9927 240.761 21.858C241.377 20.6987 241.686 19.3543 241.686 17.825Z" fill="url(#paint0_linear_692_4156)"/>
<defs>
<linearGradient id="paint0_linear_692_4156" x1="345.295" y1="-0.426891" x2="165.371" y2="219.945" gradientUnits="userSpaceOnUse">
<stop stop-color="#A9FCFF"/>
<stop offset="1" stop-color="#312BEC"/>
</linearGradient>
</defs>
</svg>
