<svg width="263" height="29" viewBox="0 0 263 29" fill="none" xmlns="http://www.w3.org/2000/svg">
<path d="M21.125 28H17.758L4.216 7.465V28H0.849V2.174H4.216L17.758 22.672V2.174H21.125V28ZM45.3646 17.085C45.3646 17.7263 45.3276 18.4047 45.2536 19.12H29.0476C29.171 21.118 29.8493 22.6843 31.0826 23.819C32.3406 24.929 33.8576 25.484 35.6336 25.484C37.089 25.484 38.2976 25.151 39.2596 24.485C40.2463 23.7943 40.937 22.8817 41.3316 21.747H44.9576C44.415 23.6957 43.3296 25.2867 41.7016 26.52C40.0736 27.7287 38.051 28.333 35.6336 28.333C33.7096 28.333 31.983 27.9013 30.4536 27.038C28.949 26.1747 27.765 24.9537 26.9016 23.375C26.0383 21.7717 25.6066 19.9217 25.6066 17.825C25.6066 15.7283 26.026 13.8907 26.8646 12.312C27.7033 10.7333 28.875 9.52467 30.3796 8.686C31.909 7.82267 33.6603 7.391 35.6336 7.391C37.5576 7.391 39.2596 7.81033 40.7396 8.649C42.2196 9.48767 43.3543 10.647 44.1436 12.127C44.9576 13.5823 45.3646 15.235 45.3646 17.085ZM41.8866 16.382C41.8866 15.0993 41.603 14.0017 41.0356 13.089C40.4683 12.1517 39.6913 11.4487 38.7046 10.98C37.7426 10.4867 36.6696 10.24 35.4856 10.24C33.7836 10.24 32.3283 10.7827 31.1196 11.868C29.9356 12.9533 29.2573 14.458 29.0846 16.382H41.8866ZM76.819 7.724L70.492 28H67.014L62.13 11.905L57.246 28H53.768L47.404 7.724H50.845L55.507 24.744L60.539 7.724H63.98L68.901 24.781L73.489 7.724H76.819ZM107.267 9.759C107.267 11.905 106.527 13.6933 105.047 15.124C103.591 16.53 101.359 17.233 98.3498 17.233H93.3918V28H90.0248V2.211H98.3498C101.26 2.211 103.468 2.914 104.973 4.32C106.502 5.726 107.267 7.539 107.267 9.759ZM98.3498 14.458C100.224 14.458 101.606 14.051 102.494 13.237C103.382 12.423 103.826 11.2637 103.826 9.759C103.826 6.577 102 4.986 98.3498 4.986H93.3918V14.458H98.3498ZM110.194 17.788C110.194 15.716 110.613 13.903 111.452 12.349C112.29 10.7703 113.437 9.54933 114.893 8.686C116.373 7.82267 118.013 7.391 119.814 7.391C121.59 7.391 123.131 7.77333 124.439 8.538C125.746 9.30267 126.72 10.2647 127.362 11.424V7.724H130.766V28H127.362V24.226C126.696 25.41 125.697 26.3967 124.365 27.186C123.057 27.9507 121.528 28.333 119.777 28.333C117.976 28.333 116.348 27.889 114.893 27.001C113.437 26.113 112.29 24.8673 111.452 23.264C110.613 21.6607 110.194 19.8353 110.194 17.788ZM127.362 17.825C127.362 16.2957 127.053 14.9637 126.437 13.829C125.82 12.6943 124.981 11.831 123.921 11.239C122.885 10.6223 121.738 10.314 120.48 10.314C119.222 10.314 118.075 10.61 117.039 11.202C116.003 11.794 115.176 12.6573 114.56 13.792C113.943 14.9267 113.635 16.2587 113.635 17.788C113.635 19.342 113.943 20.6987 114.56 21.858C115.176 22.9927 116.003 23.8683 117.039 24.485C118.075 25.077 119.222 25.373 120.48 25.373C121.738 25.373 122.885 25.077 123.921 24.485C124.981 23.8683 125.82 22.9927 126.437 21.858C127.053 20.6987 127.362 19.3543 127.362 17.825ZM143.633 28.333C142.079 28.333 140.686 28.074 139.452 27.556C138.219 27.0133 137.245 26.2733 136.529 25.336C135.814 24.374 135.419 23.2763 135.345 22.043H138.823C138.922 23.0543 139.391 23.8807 140.229 24.522C141.093 25.1633 142.215 25.484 143.596 25.484C144.879 25.484 145.89 25.2003 146.63 24.633C147.37 24.0657 147.74 23.3503 147.74 22.487C147.74 21.599 147.346 20.9453 146.556 20.526C145.767 20.082 144.546 19.6503 142.893 19.231C141.389 18.8363 140.155 18.4417 139.193 18.047C138.256 17.6277 137.442 17.0233 136.751 16.234C136.085 15.42 135.752 14.3593 135.752 13.052C135.752 12.016 136.061 11.0663 136.677 10.203C137.294 9.33967 138.17 8.66133 139.304 8.168C140.439 7.65 141.734 7.391 143.189 7.391C145.434 7.391 147.247 7.95833 148.628 9.093C150.01 10.2277 150.75 11.7817 150.848 13.755H147.481C147.407 12.6943 146.976 11.8433 146.186 11.202C145.422 10.5607 144.386 10.24 143.078 10.24C141.87 10.24 140.908 10.499 140.192 11.017C139.477 11.535 139.119 12.2133 139.119 13.052C139.119 13.718 139.329 14.273 139.748 14.717C140.192 15.1363 140.735 15.4817 141.376 15.753C142.042 15.9997 142.955 16.2833 144.114 16.604C145.57 16.9987 146.754 17.3933 147.666 17.788C148.579 18.158 149.356 18.7253 149.997 19.49C150.663 20.2547 151.009 21.2537 151.033 22.487C151.033 23.597 150.725 24.596 150.108 25.484C149.492 26.372 148.616 27.075 147.481 27.593C146.371 28.0863 145.089 28.333 143.633 28.333ZM162.965 28.333C161.411 28.333 160.017 28.074 158.784 27.556C157.55 27.0133 156.576 26.2733 155.861 25.336C155.145 24.374 154.751 23.2763 154.677 22.043H158.155C158.253 23.0543 158.722 23.8807 159.561 24.522C160.424 25.1633 161.546 25.484 162.928 25.484C164.21 25.484 165.222 25.2003 165.962 24.633C166.702 24.0657 167.072 23.3503 167.072 22.487C167.072 21.599 166.677 20.9453 165.888 20.526C165.098 20.082 163.877 19.6503 162.225 19.231C160.72 18.8363 159.487 18.4417 158.525 18.047C157.587 17.6277 156.773 17.0233 156.083 16.234C155.417 15.42 155.084 14.3593 155.084 13.052C155.084 12.016 155.392 11.0663 156.009 10.203C156.625 9.33967 157.501 8.66133 158.636 8.168C159.77 7.65 161.065 7.391 162.521 7.391C164.765 7.391 166.578 7.95833 167.96 9.093C169.341 10.2277 170.081 11.7817 170.18 13.755H166.813C166.739 12.6943 166.307 11.8433 165.518 11.202C164.753 10.5607 163.717 10.24 162.41 10.24C161.201 10.24 160.239 10.499 159.524 11.017C158.808 11.535 158.451 12.2133 158.451 13.052C158.451 13.718 158.66 14.273 159.08 14.717C159.524 15.1363 160.066 15.4817 160.708 15.753C161.374 15.9997 162.286 16.2833 163.446 16.604C164.901 16.9987 166.085 17.3933 166.998 17.788C167.91 18.158 168.687 18.7253 169.329 19.49C169.995 20.2547 170.34 21.2537 170.365 22.487C170.365 23.597 170.056 24.596 169.44 25.484C168.823 26.372 167.947 27.075 166.813 27.593C165.703 28.0863 164.42 28.333 162.965 28.333ZM202.128 7.724L195.801 28H192.323L187.439 11.905L182.555 28H179.077L172.713 7.724H176.154L180.816 24.744L185.848 7.724H189.289L194.21 24.781L198.798 7.724H202.128ZM214.312 28.333C212.413 28.333 210.686 27.9013 209.132 27.038C207.603 26.1747 206.394 24.9537 205.506 23.375C204.643 21.7717 204.211 19.9217 204.211 17.825C204.211 15.753 204.655 13.9277 205.543 12.349C206.456 10.7457 207.689 9.52467 209.243 8.686C210.797 7.82267 212.536 7.391 214.46 7.391C216.384 7.391 218.123 7.82267 219.677 8.686C221.231 9.52467 222.452 10.7333 223.34 12.312C224.253 13.8907 224.709 15.7283 224.709 17.825C224.709 19.9217 224.24 21.7717 223.303 23.375C222.39 24.9537 221.145 26.1747 219.566 27.038C217.987 27.9013 216.236 28.333 214.312 28.333ZM214.312 25.373C215.521 25.373 216.655 25.0893 217.716 24.522C218.777 23.9547 219.628 23.1037 220.269 21.969C220.935 20.8343 221.268 19.453 221.268 17.825C221.268 16.197 220.947 14.8157 220.306 13.681C219.665 12.5463 218.826 11.7077 217.79 11.165C216.754 10.5977 215.632 10.314 214.423 10.314C213.19 10.314 212.055 10.5977 211.019 11.165C210.008 11.7077 209.194 12.5463 208.577 13.681C207.96 14.8157 207.652 16.197 207.652 17.825C207.652 19.4777 207.948 20.8713 208.54 22.006C209.157 23.1407 209.971 23.9917 210.982 24.559C211.993 25.1017 213.103 25.373 214.312 25.373ZM232.503 11.017C233.095 9.85767 233.934 8.95733 235.019 8.316C236.129 7.67467 237.473 7.354 239.052 7.354V10.832H238.164C234.39 10.832 232.503 12.8793 232.503 16.974V28H229.136V7.724H232.503V11.017ZM241.681 17.788C241.681 15.716 242.1 13.903 242.939 12.349C243.778 10.7703 244.925 9.54933 246.38 8.686C247.86 7.82267 249.513 7.391 251.338 7.391C252.917 7.391 254.384 7.761 255.741 8.501C257.098 9.21633 258.134 10.166 258.849 11.35V0.62H262.253V28H258.849V24.189C258.183 25.3977 257.196 26.3967 255.889 27.186C254.582 27.9507 253.052 28.333 251.301 28.333C249.5 28.333 247.86 27.889 246.38 27.001C244.925 26.113 243.778 24.8673 242.939 23.264C242.1 21.6607 241.681 19.8353 241.681 17.788ZM258.849 17.825C258.849 16.2957 258.541 14.9637 257.924 13.829C257.307 12.6943 256.469 11.831 255.408 11.239C254.372 10.6223 253.225 10.314 251.967 10.314C250.709 10.314 249.562 10.61 248.526 11.202C247.49 11.794 246.664 12.6573 246.047 13.792C245.43 14.9267 245.122 16.2587 245.122 17.788C245.122 19.342 245.43 20.6987 246.047 21.858C246.664 22.9927 247.49 23.8683 248.526 24.485C249.562 25.077 250.709 25.373 251.967 25.373C253.225 25.373 254.372 25.077 255.408 24.485C256.469 23.8683 257.307 22.9927 257.924 21.858C258.541 20.6987 258.849 19.3543 258.849 17.825Z" fill="url(#paint0_linear_692_2944)"/>
<defs>
<linearGradient id="paint0_linear_692_2944" x1="370.3" y1="-0.426891" x2="193.269" y2="232.014" gradientUnits="userSpaceOnUse">
<stop stop-color="#A9FCFF"/>
<stop offset="1" stop-color="#312BEC"/>
</linearGradient>
</defs>
</svg>
