<svg width="136" height="39" viewBox="0 0 136 39" fill="none" xmlns="http://www.w3.org/2000/svg">
<path d="M9.026 29.259C7.324 29.259 5.79467 28.963 4.438 28.371C3.106 27.7543 2.05767 26.9157 1.293 25.855C0.528333 24.7697 0.133667 23.524 0.109 22.118H3.698C3.82133 23.3267 4.31467 24.3503 5.178 25.189C6.066 26.003 7.34867 26.41 9.026 26.41C10.6293 26.41 11.8873 26.0153 12.8 25.226C13.7373 24.412 14.206 23.376 14.206 22.118C14.206 21.1313 13.9347 20.3297 13.392 19.713C12.8493 19.0963 12.171 18.6277 11.357 18.307C10.543 17.9863 9.44533 17.641 8.064 17.271C6.362 16.827 4.993 16.383 3.957 15.939C2.94567 15.495 2.07 14.8043 1.33 13.867C0.614667 12.905 0.257 11.6223 0.257 10.019C0.257 8.613 0.614667 7.36733 1.33 6.282C2.04533 5.19667 3.04433 4.358 4.327 3.766C5.63433 3.174 7.12667 2.878 8.804 2.878C11.2213 2.878 13.1947 3.48233 14.724 4.691C16.278 5.89967 17.1537 7.503 17.351 9.501H13.651C13.5277 8.51433 13.0097 7.651 12.097 6.911C11.1843 6.14633 9.97567 5.764 8.471 5.764C7.065 5.764 5.918 6.134 5.03 6.874C4.142 7.58933 3.698 8.60067 3.698 9.908C3.698 10.8453 3.957 11.61 4.475 12.202C5.01767 12.794 5.67133 13.2503 6.436 13.571C7.22533 13.867 8.323 14.2123 9.729 14.607C11.431 15.0757 12.8 15.5443 13.836 16.013C14.872 16.457 15.76 17.16 16.5 18.122C17.24 19.0593 17.61 20.342 17.61 21.97C17.61 23.228 17.277 24.412 16.611 25.522C15.945 26.632 14.9583 27.5323 13.651 28.223C12.3437 28.9137 10.802 29.259 9.026 29.259ZM24.3038 5.431C23.6625 5.431 23.1198 5.209 22.6758 4.765C22.2318 4.321 22.0098 3.77833 22.0098 3.137C22.0098 2.49567 22.2318 1.953 22.6758 1.509C23.1198 1.065 23.6625 0.842999 24.3038 0.842999C24.9205 0.842999 25.4385 1.065 25.8578 1.509C26.3018 1.953 26.5238 2.49567 26.5238 3.137C26.5238 3.77833 26.3018 4.321 25.8578 4.765C25.4385 5.209 24.9205 5.431 24.3038 5.431ZM25.9318 8.724V29H22.5648V8.724H25.9318ZM40.0323 8.391C41.7836 8.391 43.313 8.77333 44.6203 9.538C45.9523 10.3027 46.939 11.2647 47.5803 12.424V8.724H50.9843V29.444C50.9843 31.294 50.5896 32.9343 49.8003 34.365C49.011 35.8203 47.8763 36.955 46.3963 37.769C44.941 38.583 43.239 38.99 41.2903 38.99C38.6263 38.99 36.4063 38.361 34.6303 37.103C32.8543 35.845 31.806 34.1307 31.4853 31.96H34.8153C35.1853 33.1933 35.95 34.18 37.1093 34.92C38.2686 35.6847 39.6623 36.067 41.2903 36.067C43.1403 36.067 44.645 35.4873 45.8043 34.328C46.9883 33.1687 47.5803 31.5407 47.5803 29.444V25.189C46.9143 26.373 45.9276 27.3597 44.6203 28.149C43.313 28.9383 41.7836 29.333 40.0323 29.333C38.2316 29.333 36.5913 28.889 35.1113 28.001C33.656 27.113 32.509 25.8673 31.6703 24.264C30.8316 22.6607 30.4123 20.8353 30.4123 18.788C30.4123 16.716 30.8316 14.903 31.6703 13.349C32.509 11.7703 33.656 10.5493 35.1113 9.686C36.5913 8.82267 38.2316 8.391 40.0323 8.391ZM47.5803 18.825C47.5803 17.2957 47.272 15.9637 46.6553 14.829C46.0386 13.6943 45.2 12.831 44.1393 12.239C43.1033 11.6223 41.9563 11.314 40.6983 11.314C39.4403 11.314 38.2933 11.61 37.2573 12.202C36.2213 12.794 35.395 13.6573 34.7783 14.792C34.1616 15.9267 33.8533 17.2587 33.8533 18.788C33.8533 20.342 34.1616 21.6987 34.7783 22.858C35.395 23.9927 36.2213 24.8683 37.2573 25.485C38.2933 26.077 39.4403 26.373 40.6983 26.373C41.9563 26.373 43.1033 26.077 44.1393 25.485C45.2 24.8683 46.0386 23.9927 46.6553 22.858C47.272 21.6987 47.5803 20.3543 47.5803 18.825ZM66.5532 8.354C69.0199 8.354 71.0179 9.10633 72.5472 10.611C74.0765 12.091 74.8412 14.237 74.8412 17.049V29H71.5112V17.53C71.5112 15.5073 71.0055 13.9657 69.9942 12.905C68.9829 11.8197 67.6015 11.277 65.8502 11.277C64.0742 11.277 62.6559 11.832 61.5952 12.942C60.5592 14.052 60.0412 15.6677 60.0412 17.789V29H56.6742V8.724H60.0412V11.61C60.7072 10.574 61.6075 9.77233 62.7422 9.205C63.9015 8.63767 65.1719 8.354 66.5532 8.354ZM93.4984 3.211V19.528C93.4984 21.822 94.0534 23.524 95.1634 24.634C96.2981 25.744 97.8644 26.299 99.8624 26.299C101.836 26.299 103.377 25.744 104.487 24.634C105.622 23.524 106.189 21.822 106.189 19.528V3.211H109.556V19.491C109.556 21.637 109.125 23.45 108.261 24.93C107.398 26.3853 106.226 27.4707 104.746 28.186C103.291 28.9013 101.651 29.259 99.8254 29.259C98.0001 29.259 96.3474 28.9013 94.8674 28.186C93.4121 27.4707 92.2528 26.3853 91.3894 24.93C90.5508 23.45 90.1314 21.637 90.1314 19.491V3.211H93.4984ZM118.54 12.461C119.206 11.3017 120.193 10.3397 121.5 9.575C122.832 8.78567 124.374 8.391 126.125 8.391C127.926 8.391 129.554 8.82267 131.009 9.686C132.489 10.5493 133.649 11.7703 134.487 13.349C135.326 14.903 135.745 16.716 135.745 18.788C135.745 20.8353 135.326 22.6607 134.487 24.264C133.649 25.8673 132.489 27.113 131.009 28.001C129.554 28.889 127.926 29.333 126.125 29.333C124.399 29.333 122.869 28.9507 121.537 28.186C120.23 27.3967 119.231 26.4223 118.54 25.263V38.62H115.173V8.724H118.54V12.461ZM132.304 18.788C132.304 17.2587 131.996 15.9267 131.379 14.792C130.763 13.6573 129.924 12.794 128.863 12.202C127.827 11.61 126.68 11.314 125.422 11.314C124.189 11.314 123.042 11.6223 121.981 12.239C120.945 12.831 120.107 13.7067 119.465 14.866C118.849 16.0007 118.54 17.3203 118.54 18.825C118.54 20.3543 118.849 21.6987 119.465 22.858C120.107 23.9927 120.945 24.8683 121.981 25.485C123.042 26.077 124.189 26.373 125.422 26.373C126.68 26.373 127.827 26.077 128.863 25.485C129.924 24.8683 130.763 23.9927 131.379 22.858C131.996 21.6987 132.304 20.342 132.304 18.788Z" fill="url(#paint0_linear_692_2910)"/>
<defs>
<linearGradient id="paint0_linear_692_2910" x1="192.485" y1="0.573109" x2="21.1708" y2="118.076" gradientUnits="userSpaceOnUse">
<stop stop-color="#A9FCFF"/>
<stop offset="1" stop-color="#312BEC"/>
</linearGradient>
</defs>
</svg>
