<svg width="11" height="10" viewBox="0 0 11 10" fill="none" xmlns="http://www.w3.org/2000/svg">
<circle cx="5.5" cy="5" r="4.5" stroke="black"/>
<path d="M7.68182 5.5999H3.31818C2.87091 5.5999 2.5 5.3279 2.5 4.9999C2.5 4.6719 2.87091 4.3999 3.31818 4.3999H7.68182C8.12909 4.3999 8.5 4.6719 8.5 4.9999C8.5 5.3279 8.14 5.5999 7.68182 5.5999Z" fill="#292D32"/>
<path d="M5.4999 8C5.1719 8 4.8999 7.62909 4.8999 7.18182V2.81818C4.8999 2.37091 5.1719 2 5.4999 2C5.8279 2 6.0999 2.37091 6.0999 2.81818V7.18182C6.0999 7.62909 5.8359 8 5.4999 8Z" fill="#292D32"/>
</svg>
