<svg width="24" height="25" viewBox="0 0 24 25" fill="none" xmlns="http://www.w3.org/2000/svg">
<g id="vuesax/outline/tick-circle">
<g id="tick-circle">
<path id="Vector" d="M12 23.25C6.07 23.25 1.25 18.43 1.25 12.5C1.25 6.57 6.07 1.75 12 1.75C17.93 1.75 22.75 6.57 22.75 12.5C22.75 18.43 17.93 23.25 12 23.25ZM12 3.25C6.9 3.25 2.75 7.4 2.75 12.5C2.75 17.6 6.9 21.75 12 21.75C17.1 21.75 21.25 17.6 21.25 12.5C21.25 7.4 17.1 3.25 12 3.25Z" fill="#292D32"/>
<path id="Vector_2" d="M10.5804 16.0801C10.3804 16.0801 10.1904 16.0001 10.0504 15.8601L7.22043 13.0301C6.93043 12.7401 6.93043 12.2601 7.22043 11.9701C7.51043 11.6801 7.99043 11.6801 8.28043 11.9701L10.5804 14.2701L15.7204 9.1301C16.0104 8.8401 16.4904 8.8401 16.7804 9.1301C17.0704 9.4201 17.0704 9.9001 16.7804 10.1901L11.1104 15.8601C10.9704 16.0001 10.7804 16.0801 10.5804 16.0801Z" fill="#292D32"/>
</g>
</g>
</svg>
