<svg width="24" height="24" viewBox="0 0 24 24" fill="none" xmlns="http://www.w3.org/2000/svg">
<g id="vuesax/outline/home-2">
<g id="home-2">
<path id="Vector" d="M18.0595 22.75H6.47953C3.73953 22.75 1.51953 20.52 1.51953 17.78V10.37C1.51953 9.00997 2.35953 7.29997 3.43953 6.45997L8.82953 2.25997C10.4495 0.999974 13.0395 0.939974 14.7195 2.11997L20.8995 6.44997C22.0895 7.27997 23.0195 9.05997 23.0195 10.51V17.79C23.0195 20.52 20.7995 22.75 18.0595 22.75ZM9.74953 3.43997L4.35953 7.63997C3.64953 8.19997 3.01953 9.46997 3.01953 10.37V17.78C3.01953 19.69 4.56953 21.25 6.47953 21.25H18.0595C19.9695 21.25 21.5195 19.7 21.5195 17.79V10.51C21.5195 9.54997 20.8295 8.21997 20.0395 7.67997L13.8595 3.34997C12.7195 2.54997 10.8395 2.58997 9.74953 3.43997Z" fill="#292D32"/>
<path id="Vector_2" d="M12.2695 18.75C11.8595 18.75 11.5195 18.41 11.5195 18V15C11.5195 14.59 11.8595 14.25 12.2695 14.25C12.6795 14.25 13.0195 14.59 13.0195 15V18C13.0195 18.41 12.6795 18.75 12.2695 18.75Z" fill="#292D32"/>
</g>
</g>
</svg>
