<svg width="25" height="24" viewBox="0 0 25 24" fill="none" xmlns="http://www.w3.org/2000/svg">
<path d="M18.5595 22.75H6.97953C4.23953 22.75 2.01953 20.52 2.01953 17.78V10.37C2.01953 9.00997 2.85953 7.29997 3.93953 6.45997L9.32953 2.25997C10.9495 0.999974 13.5395 0.939974 15.2195 2.11997L21.3995 6.44997C22.5895 7.27997 23.5195 9.05997 23.5195 10.51V17.79C23.5195 20.52 21.2995 22.75 18.5595 22.75ZM10.2495 3.43997L4.85953 7.63997C4.14953 8.19997 3.51953 9.46997 3.51953 10.37V17.78C3.51953 19.69 5.06953 21.25 6.97953 21.25H18.5595C20.4695 21.25 22.0195 19.7 22.0195 17.79V10.51C22.0195 9.54997 21.3295 8.21997 20.5395 7.67997L14.3595 3.34997C13.2195 2.54997 11.3395 2.58997 10.2495 3.43997Z" fill="#2941FF"/>
<path d="M12.7695 18.75C12.3595 18.75 12.0195 18.41 12.0195 18V15C12.0195 14.59 12.3595 14.25 12.7695 14.25C13.1795 14.25 13.5195 14.59 13.5195 15V18C13.5195 18.41 13.1795 18.75 12.7695 18.75Z" fill="#2941FF"/>
</svg>
