<svg width="25" height="24" viewBox="0 0 25 24" fill="none" xmlns="http://www.w3.org/2000/svg">
<g id="vuesax/bold/notification">
<g id="notification">
<path id="Vector" d="M19.4117 14.748L19.413 14.7502C19.7233 15.2594 19.7776 15.8584 19.5721 16.4037C19.3638 16.9566 18.9356 17.3737 18.3839 17.555L18.3839 17.555L18.3812 17.5559C16.4942 18.1881 14.508 18.5 12.52 18.5C10.532 18.5 8.54662 18.1881 6.66104 17.5466L6.66003 17.5463C6.04298 17.3378 5.60191 16.9172 5.42071 16.4114L5.42073 16.4114L5.41929 16.4075C5.22725 15.8851 5.28762 15.3026 5.61862 14.7475C5.61885 14.7471 5.61908 14.7467 5.61931 14.7463L6.62784 13.0788L6.62789 13.0788L6.63189 13.0719C6.76756 12.8394 6.88153 12.5281 6.96123 12.2349C7.04084 11.9422 7.1 11.6169 7.1 11.35V8.82C7.1 6.69904 8.33411 4.85737 10.1227 3.96767L10.261 3.89886L10.3364 3.76402C10.7693 2.98983 11.5837 2.5 12.49 2.5C13.4106 2.5 14.2039 2.97374 14.6347 3.73603L14.7123 3.87329L14.8546 3.94122C16.6782 4.81178 17.94 6.67082 17.94 8.82V11.35C17.94 11.6169 17.9992 11.9421 18.0786 12.2356C18.1584 12.5303 18.2717 12.8417 18.4052 13.0768L18.405 13.0769L18.4117 13.088L19.4117 14.748Z" stroke="#292D32"/>
<path id="Vector_2" d="M10.5956 20.6143C10.646 20.6193 10.6966 20.6239 10.7474 20.6282C11.3289 20.6792 11.9233 20.71 12.52 20.71C13.1073 20.71 13.6924 20.6791 14.2645 20.628L14.2645 20.628L14.2674 20.6277C14.3104 20.6237 14.358 20.6197 14.4086 20.6156C13.9474 21.1572 13.2621 21.5 12.5 21.5C11.8411 21.5 11.1924 21.2319 10.7398 20.7628L10.7311 20.7538L10.722 20.7452C10.6782 20.7042 10.636 20.6604 10.5956 20.6143Z" stroke="#292D32"/>
</g>
</g>
</svg>
