<svg width="24" height="24" viewBox="0 0 24 24" fill="none" xmlns="http://www.w3.org/2000/svg">
<g id="71" clip-path="url(#clip0_692_4765)">
<g id="vuesax/outline/profile-circle">
<g id="profile-circle">
<path id="Vector" d="M12.3895 13.5305C12.3695 13.5305 12.3395 13.5305 12.3195 13.5305C12.2895 13.5305 12.2495 13.5305 12.2195 13.5305C9.94953 13.4605 8.24953 11.6905 8.24953 9.51047C8.24953 7.29047 10.0595 5.48047 12.2795 5.48047C14.4995 5.48047 16.3095 7.29047 16.3095 9.51047C16.2995 11.7005 14.5895 13.4605 12.4195 13.5305C12.3995 13.5305 12.3995 13.5305 12.3895 13.5305ZM12.2695 6.97047C10.8695 6.97047 9.73953 8.11047 9.73953 9.50047C9.73953 10.8705 10.8095 11.9805 12.1695 12.0305C12.1995 12.0205 12.2995 12.0205 12.3995 12.0305C13.7395 11.9605 14.7895 10.8605 14.7995 9.50047C14.7995 8.11047 13.6695 6.97047 12.2695 6.97047Z" fill="#292D32"/>
<path id="Vector_2" d="M12.2695 22.7503C9.57953 22.7503 7.00953 21.7503 5.01953 19.9303C4.83953 19.7703 4.75954 19.5303 4.77954 19.3003C4.90954 18.1103 5.64953 17.0003 6.87953 16.1803C9.85954 14.2003 14.6895 14.2003 17.6595 16.1803C18.8895 17.0103 19.6295 18.1103 19.7595 19.3003C19.7895 19.5403 19.6995 19.7703 19.5195 19.9303C17.5295 21.7503 14.9595 22.7503 12.2695 22.7503ZM6.34953 19.1003C8.00953 20.4903 10.0995 21.2503 12.2695 21.2503C14.4395 21.2503 16.5295 20.4903 18.1895 19.1003C18.0095 18.4903 17.5295 17.9003 16.8195 17.4203C14.3595 15.7803 10.1895 15.7803 7.70953 17.4203C6.99953 17.9003 6.52953 18.4903 6.34953 19.1003Z" fill="#292D32"/>
<path id="Vector_3" d="M12.2695 22.75C6.33953 22.75 1.51953 17.93 1.51953 12C1.51953 6.07 6.33953 1.25 12.2695 1.25C18.1995 1.25 23.0195 6.07 23.0195 12C23.0195 17.93 18.1995 22.75 12.2695 22.75ZM12.2695 2.75C7.16953 2.75 3.01953 6.9 3.01953 12C3.01953 17.1 7.16953 21.25 12.2695 21.25C17.3695 21.25 21.5195 17.1 21.5195 12C21.5195 6.9 17.3695 2.75 12.2695 2.75Z" fill="#292D32"/>
</g>
</g>
</g>
<defs>
<clipPath id="clip0_692_4765">
<rect width="24" height="24" fill="white"/>
</clipPath>
</defs>
</svg>
