<svg width="25" height="24" viewBox="0 0 25 24" fill="none" xmlns="http://www.w3.org/2000/svg">
<g id="ic_menu_pesanan">
<g id="Bag">
<path id="Bag_2" fill-rule="evenodd" clip-rule="evenodd" d="M17.3801 6.38192C17.1229 3.91976 15.031 2.00004 12.4885 2.00004C11.1836 1.99458 9.92727 2.50773 9.00043 3.42606C8.1959 4.2232 7.69715 5.26864 7.57952 6.38192H7.57864C5.79724 6.38192 4.30058 7.68308 3.88011 9.94232L3.11922 15.8123C2.47155 20.1105 4.49286 22 8.44875 22H16.546C20.2043 22 22.3909 19.8703 21.9419 16.0482L21.1564 9.98167C20.6528 7.69432 19.1947 6.38192 17.4516 6.38192H17.3801ZM15.9138 6.38192C15.6653 4.7215 14.2261 3.44777 12.4855 3.44777C11.5644 3.44391 10.6797 3.80526 10.0271 4.45192C9.49719 4.97695 9.15567 5.65494 9.04594 6.38192H15.9138ZM7.57864 7.82965H17.4516C18.4739 7.82965 19.3719 8.63792 19.7244 10.2299L20.468 15.9973C20.9105 19.0657 19.4375 20.5522 16.546 20.5522H8.44875C5.31775 20.5522 4.05418 19.3711 4.56021 16.0121L5.31697 10.1666C5.60614 8.61886 6.51393 7.82965 7.57864 7.82965ZM15.3652 10.5164C15.767 10.5164 16.0927 10.8405 16.0927 11.2403C16.0927 11.6067 15.819 11.9096 15.4639 11.9575L15.3652 11.9641H15.3208C14.919 11.9641 14.5933 11.64 14.5933 11.2403C14.5933 10.8738 14.867 10.5709 15.2221 10.523L15.3208 10.5164H15.3652ZM10.437 11.2403C10.437 10.8405 10.1113 10.5164 9.70951 10.5164H9.66512L9.5664 10.523C9.21131 10.5709 8.93762 10.8738 8.93762 11.2403C8.93762 11.64 9.26333 11.9641 9.66512 11.9641H9.70951L9.80822 11.9575C10.1633 11.9096 10.437 11.6067 10.437 11.2403Z" fill="#0C1A30"/>
</g>
</g>
</svg>
