<svg width="19" height="20" viewBox="0 0 19 20" fill="none" xmlns="http://www.w3.org/2000/svg">
<path id="Vector" d="M17.6658 5.26772L17.6657 5.26775L17.6691 5.27429C18.2038 6.30914 18.5 7.45782 18.5 8.6765C18.5 13.1553 14.5118 16.853 9.5 16.853H9.26853L9.11876 17.0295L7.94133 18.4171L7.94076 18.4177L7.24581 19.2338C7.24566 19.234 7.24552 19.2341 7.24538 19.2343C6.88478 19.654 6.18754 19.5616 5.95003 19.0619C5.9498 19.0615 5.94958 19.061 5.94935 19.0605L4.25352 15.4072L4.196 15.2833L4.08346 15.2058C1.89693 13.701 0.5 11.331 0.5 8.6765C0.5 4.19775 4.48821 0.5 9.5 0.5C13.1485 0.5 16.2739 2.47386 17.6658 5.26772Z" stroke="#2941FF"/>
</svg>
