<svg width="15" height="15" viewBox="0 0 15 15" fill="none" xmlns="http://www.w3.org/2000/svg">
<g id="vuesax/outline/eye">
<g id="eye">
<path id="Vector" d="M7.5002 10.2062C6.00645 10.2062 4.79395 8.9937 4.79395 7.49995C4.79395 6.0062 6.00645 4.7937 7.5002 4.7937C8.99395 4.7937 10.2064 6.0062 10.2064 7.49995C10.2064 8.9937 8.99395 10.2062 7.5002 10.2062ZM7.5002 5.7312C6.5252 5.7312 5.73145 6.52495 5.73145 7.49995C5.73145 8.47495 6.5252 9.2687 7.5002 9.2687C8.4752 9.2687 9.26895 8.47495 9.26895 7.49995C9.26895 6.52495 8.4752 5.7312 7.5002 5.7312Z" fill="white"/>
<path id="Vector_2" d="M7.4998 13.1375C5.1498 13.1375 2.93105 11.7625 1.40605 9.37505C0.743555 8.3438 0.743555 6.66255 1.40605 5.62505C2.9373 3.23755 5.15605 1.86255 7.4998 1.86255C9.84355 1.86255 12.0623 3.23755 13.5873 5.62505C14.2498 6.6563 14.2498 8.33755 13.5873 9.37505C12.0623 11.7625 9.84355 13.1375 7.4998 13.1375ZM7.4998 2.80005C5.48105 2.80005 3.5498 4.01255 2.1998 6.1313C1.73105 6.86255 1.73105 8.13755 2.1998 8.8688C3.5498 10.9875 5.48105 12.2 7.4998 12.2C9.51855 12.2 11.4498 10.9875 12.7998 8.8688C13.2686 8.13755 13.2686 6.86255 12.7998 6.1313C11.4498 4.01255 9.51855 2.80005 7.4998 2.80005Z" fill="white"/>
</g>
</g>
</svg>
