<svg width="24" height="24" viewBox="0 0 24 24" fill="none" xmlns="http://www.w3.org/2000/svg">
<g id="vuesax/bold/like">
<g id="like">
<path id="Vector" d="M11.8751 3.42922L11.8751 3.42923L11.8771 3.42609C12.0221 3.20696 12.3006 2.98949 12.6518 2.86539C12.9985 2.74282 13.3706 2.72732 13.6951 2.8486L13.7028 2.85146L13.7106 2.85408C14.4628 3.10738 14.9551 3.96734 14.8012 4.68545L14.7984 4.69851L14.7963 4.7117L14.2763 7.9817L14.2762 7.98167L14.2745 7.99414C14.2168 8.42708 14.333 8.83548 14.5915 9.15482L14.5993 9.16442L14.6075 9.17362C14.8681 9.46491 15.2517 9.65022 15.6701 9.65022H19.7801C20.4354 9.65022 20.9508 9.9125 21.2423 10.3194C21.5135 10.7059 21.5838 11.2312 21.3785 11.8142L21.3784 11.8141L21.3751 11.8242L18.9151 19.3142L18.9095 19.3314L18.9051 19.349C18.6547 20.3503 17.5176 21.2202 16.3901 21.2202H12.4901C12.2058 21.2202 11.8515 21.1704 11.5232 21.0724C11.1846 20.9713 10.9337 20.8367 10.8037 20.7067L10.7812 20.6842L10.756 20.6647L9.47604 19.6747L9.47606 19.6747L9.47144 19.6712C9.10889 19.3974 8.89014 18.9563 8.89014 18.4902V8.33022C8.89014 8.03043 8.98007 7.73705 9.14563 7.48836C9.14581 7.4881 9.14598 7.48783 9.14616 7.48757L11.8751 3.42922Z" stroke="#2941FF"/>
<path id="Vector_2" d="M4.18 6.87988H5.21C5.93877 6.87988 6.32401 7.02437 6.53617 7.22671C6.74247 7.42346 6.89 7.7763 6.89 8.45988V18.5199C6.89 19.2035 6.74247 19.5563 6.53617 19.7531C6.32401 19.9554 5.93877 20.0999 5.21 20.0999H4.18C3.45123 20.0999 3.06599 19.9554 2.85383 19.7531C2.64753 19.5563 2.5 19.2035 2.5 18.5199V8.45988C2.5 7.7763 2.64753 7.42346 2.85383 7.22671C3.06599 7.02437 3.45123 6.87988 4.18 6.87988Z" stroke="#2941FF"/>
</g>
</g>
</svg>
