<svg width="35" height="35" viewBox="0 0 35 35" fill="none" xmlns="http://www.w3.org/2000/svg">
<circle cx="17.5" cy="17.5" r="17.5" fill="#2941FF"/>
<path d="M23.1613 21.7262L23.5026 24.4913C23.5901 25.2175 22.8113 25.725 22.1901 25.3487L19.1626 23.5462C18.9526 23.4237 18.9001 23.1612 19.0138 22.9513C19.4513 22.1462 19.6876 21.2362 19.6876 20.3263C19.6876 17.1237 16.9401 14.5163 13.5626 14.5163C12.8713 14.5163 12.1976 14.6212 11.5676 14.8312C11.2438 14.9362 10.9288 14.6388 11.0076 14.3063C11.8038 11.1213 14.8663 8.75 18.5238 8.75C22.7938 8.75 26.2501 11.9787 26.2501 15.96C26.2501 18.3225 25.0338 20.4137 23.1613 21.7262Z" fill="white"/>
<path d="M18.375 20.3262C18.375 21.3675 17.99 22.33 17.3425 23.0912C16.4762 24.1412 15.1025 24.815 13.5625 24.815L11.2787 26.1712C10.8937 26.4075 10.4038 26.0837 10.4563 25.6375L10.675 23.9137C9.5025 23.1 8.75 21.7962 8.75 20.3262C8.75 18.7862 9.5725 17.43 10.8325 16.625C11.6113 16.1175 12.5475 15.8287 13.5625 15.8287C16.2225 15.8287 18.375 17.8412 18.375 20.3262Z" fill="white"/>
</svg>
