<svg width="208" height="250" viewBox="0 0 208 250" fill="none" xmlns="http://www.w3.org/2000/svg">
<g id="Group 427321928">
<g id="freepik--Shadows--inject-12">
<path id="freepik--Shadow--inject-12" d="M163.534 249.64C182.713 249.64 198.261 240.663 198.261 229.59C198.261 218.517 182.713 209.541 163.534 209.541C144.354 209.541 128.806 218.517 128.806 229.59C128.806 240.663 144.354 249.64 163.534 249.64Z" fill="url(#paint0_linear_9_11944)" fill-opacity="0.17"/>
<path id="freepik--shadow--inject-12" d="M49.4864 249.64C68.6659 249.64 84.2139 240.663 84.2139 229.59C84.2139 218.517 68.6659 209.541 49.4864 209.541C30.3068 209.541 14.7588 218.517 14.7588 229.59C14.7588 240.663 30.3068 249.64 49.4864 249.64Z" fill="url(#paint1_linear_9_11944)" fill-opacity="0.17"/>
</g>
<g id="freepik--character-2--inject-12">
<g id="freepik--Character--inject-12">
<path id="Vector" d="M195.418 165.797C195.418 165.797 193.923 164.61 193.163 164.77C192.807 164.841 193.068 165.815 192.658 167.655C192.49 168.317 192.162 168.929 191.703 169.435L191.43 169.513H191.353L190.629 169.714C184.307 171.495 169.997 175.353 162.833 176.107C157.367 176.7 155.165 175.246 153.658 170.415C151.283 162.699 149.663 143.824 149.218 138.055C145.301 147.356 141.567 156.787 138.101 166.224C146.131 173.038 151.366 193.094 154.215 200.893L154.85 202.537L155.171 203.356C155.171 203.356 156.744 205.219 154.536 207.588C152.328 209.956 149.711 210.009 148.518 208.686C142.131 199.717 130.973 184.784 125.649 175.905C121.862 169.578 121.292 168.397 122.034 163.921C124.408 149.368 129.228 129.977 133.946 115.056L134.035 114.842L167.748 116.926C169.867 133.254 167.558 161.44 167.558 161.44L189.697 160.39L191.204 160.242C191.673 160.467 192.433 161.565 192.789 162.533C193.145 163.5 194.659 164.171 195.418 165.797Z" fill="#FFCDEB"/>
<path id="Vector_2" d="M190.629 169.739L191.353 169.537H191.43L191.703 169.46C192.162 168.953 192.49 168.342 192.659 167.679C193.068 165.839 192.807 164.866 193.163 164.795C193.923 164.646 195.419 165.821 195.419 165.821C194.659 164.195 193.169 163.584 192.813 162.61C192.457 161.637 191.697 160.545 191.228 160.319L189.721 160.468L167.558 161.495C167.558 161.495 170.312 170.724 165.421 175.781C173.03 174.552 185.002 171.3 190.629 169.739Z" fill="#37474F"/>
<path id="Vector_3" d="M169.778 174.962C172.746 169.768 171.754 164.652 170.324 161.352L167.558 161.489C167.558 161.489 170.312 170.718 165.421 175.775C166.757 175.561 168.229 175.282 169.778 174.962Z" fill="url(#paint2_linear_9_11944)"/>
<path id="Vector_4" d="M154.839 202.561L154.245 200.917C151.752 194.138 147.497 178.232 141.187 169.655C139.116 175.288 130.634 178.44 126.765 177.739C132.415 186.731 142.553 200.323 148.518 208.71C149.705 210.033 152.322 209.986 154.536 207.612C156.75 205.238 155.171 203.38 155.171 203.38L154.839 202.561Z" fill="#37474F"/>
<path id="Vector_5" d="M141.187 169.655C139.116 175.288 130.634 178.44 126.765 177.739C127.465 178.855 128.231 180.036 129.05 181.265C136.006 181.401 140.849 177.383 143.437 173.151C142.755 171.943 142.004 170.776 141.187 169.655Z" fill="url(#paint3_linear_9_11944)"/>
<path id="Vector_6" d="M157.67 205.712C158.05 206.187 158.732 207.172 158.649 207.724C158.566 208.276 157.587 211.072 157.462 213.962C157.355 216.527 158.483 221.405 156.014 224.878C153.841 227.922 151.859 228.641 150.078 228.979C149.382 229.152 148.655 229.157 147.957 228.991C147.259 228.826 146.611 228.496 146.066 228.029C146.066 228.029 144.481 226.611 145.188 225.519C145.894 224.426 157.67 205.712 157.67 205.712Z" fill="#37474F"/>
<path id="Vector_7" d="M157.806 205.944C157.717 205.231 157.401 204.565 156.904 204.045C156.168 203.25 155.367 202.567 155.076 201.475C154.975 201.089 154.886 200.365 154.411 200.234C154.37 200.234 153.942 200.234 153.942 200.234L154.304 201.309C154.103 201.754 153.711 202.793 153.521 203.25C153.094 204.437 153.634 205.677 152.779 206.716C152.72 205.398 152.666 203.873 151.794 203.891C151.2 203.891 150.156 204.692 148.968 204.864C147.781 205.036 146.844 204.799 146.381 204.971C145.918 205.143 146.179 205.73 146.476 207.096C146.857 208.625 147.074 210.191 147.123 211.767C147.022 213.025 146.891 214.325 146.707 215.565C146.001 220.349 144.262 222.806 144.659 225.382C145.069 228.053 149.271 228.991 152.298 226.676C157.45 222.741 156.388 218.776 156.299 215.85C156.191 213.959 156.365 212.063 156.815 210.224C157.29 208.502 157.806 207.618 157.806 205.944Z" fill="url(#paint4_linear_9_11944)"/>
<path id="Vector_8" opacity="0.4" d="M157.806 205.944C157.717 205.231 157.401 204.565 156.904 204.045C156.168 203.25 155.367 202.567 155.076 201.475C154.975 201.089 154.886 200.365 154.411 200.234C154.37 200.234 153.942 200.234 153.942 200.234L154.304 201.309C154.103 201.754 153.711 202.793 153.521 203.25C153.094 204.437 153.634 205.677 152.779 206.716C152.72 205.398 152.666 203.873 151.794 203.891C151.2 203.891 150.156 204.692 148.968 204.864C147.781 205.036 146.844 204.799 146.381 204.971C145.918 205.143 146.179 205.73 146.476 207.096C146.857 208.625 147.074 210.191 147.123 211.767C147.022 213.025 146.891 214.325 146.707 215.565C146.001 220.349 144.262 222.806 144.659 225.382C145.069 228.053 149.271 228.991 152.298 226.676C157.45 222.741 156.388 218.776 156.299 215.85C156.191 213.959 156.365 212.063 156.815 210.224C157.29 208.502 157.806 207.618 157.806 205.944Z" fill="black"/>
<path id="Vector_9" opacity="0.15" d="M155.1 201.475C155.097 201.486 155.097 201.499 155.1 201.51V201.576C154.995 202.235 154.851 202.887 154.666 203.528C154.5 204.3 154.393 205.083 154.28 205.867C154.203 206.413 154.162 206.959 154.138 207.511C154.114 208.063 154.091 208.508 154.096 209.007C154.132 211.381 154.476 213.274 153.889 216.319C153.301 219.364 152.441 219.655 151.829 219.287C151.218 218.919 151.782 218.129 152.363 215.452C152.957 212.651 152.47 209.588 152.773 206.71C152.983 206.466 153.13 206.175 153.2 205.861C153.408 205.024 153.2 204.116 153.515 203.261C153.687 202.804 154.108 201.766 154.298 201.32L153.936 200.246H154.073H154.239H154.316H154.405C154.702 200.323 154.844 200.638 154.939 200.958C155.022 201.136 155.058 201.332 155.1 201.475Z" fill="black"/>
<path id="Vector_10" opacity="0.15" d="M153.414 221.945C151.829 222.865 150.874 222.657 150.909 221.09C150.991 219.983 151.315 218.907 151.859 217.939L147.704 218.111C147.704 218.111 147.971 220.966 147.14 221.672C146.63 222.094 145.912 221.435 145.496 220.592C144.903 222.473 144.428 223.922 144.659 225.405C145.069 228.076 149.271 229.014 152.298 226.699C156.613 223.399 156.566 220.087 156.388 217.381C156.465 218.995 154.999 221.025 153.414 221.945Z" fill="black"/>
<path id="Vector_11" opacity="0.15" d="M146.529 207.196C146.872 208.693 147.071 210.22 147.123 211.755C147.022 213.013 146.891 214.313 146.707 215.553C146.583 216.372 146.434 217.12 146.268 217.815C146.3 218.199 146.431 218.569 146.648 218.889C147.176 219.352 147.408 219.304 147.704 218.099C148.031 216.746 148.043 209.315 146.517 207.196H146.529Z" fill="black"/>
<path id="Vector_12" d="M146.672 218.473C146.709 218.547 146.769 218.606 146.843 218.643C146.917 218.679 147 218.691 147.081 218.675C148.894 218.384 150.739 218.357 152.56 218.592C152.609 218.6 152.66 218.599 152.709 218.587C152.757 218.576 152.803 218.555 152.844 218.526C152.885 218.497 152.92 218.46 152.946 218.417C152.973 218.374 152.991 218.327 152.999 218.278C153.007 218.228 153.005 218.177 152.994 218.129C152.983 218.08 152.962 218.034 152.932 217.993C152.903 217.952 152.866 217.917 152.824 217.891C152.781 217.864 152.734 217.847 152.684 217.838C150.777 217.585 148.844 217.613 146.945 217.921C146.845 217.94 146.757 217.997 146.699 218.081C146.641 218.164 146.619 218.267 146.636 218.367C146.641 218.404 146.653 218.441 146.672 218.473Z" fill="#E0E0E0"/>
<path id="Vector_13" d="M146.82 216.485C146.86 216.57 146.931 216.636 147.018 216.67C147.105 216.704 147.202 216.704 147.289 216.669C149.115 216.055 151.088 216.024 152.933 216.58C153.029 216.614 153.135 216.609 153.227 216.566C153.32 216.523 153.391 216.444 153.426 216.349C153.458 216.252 153.451 216.148 153.407 216.057C153.362 215.965 153.284 215.896 153.188 215.862C151.178 215.232 149.019 215.264 147.027 215.951C146.932 215.986 146.853 216.057 146.81 216.149C146.767 216.242 146.762 216.347 146.796 216.443C146.802 216.459 146.81 216.473 146.82 216.485Z" fill="#E0E0E0"/>
<path id="Vector_14" d="M146.79 214.627C146.835 214.716 146.913 214.784 147.007 214.817C147.102 214.849 147.205 214.843 147.295 214.799C149.152 213.996 151.228 213.854 153.177 214.396C153.274 214.426 153.38 214.417 153.471 214.37C153.562 214.323 153.631 214.243 153.663 214.146C153.693 214.05 153.684 213.945 153.637 213.855C153.591 213.765 153.511 213.697 153.414 213.666C151.278 213.056 148.996 213.212 146.962 214.105C146.872 214.15 146.802 214.228 146.769 214.324C146.736 214.419 146.741 214.524 146.784 214.615L146.79 214.627Z" fill="#E0E0E0"/>
<path id="Vector_15" d="M146.761 212.657C146.785 212.7 146.819 212.739 146.858 212.77C146.898 212.801 146.944 212.824 146.992 212.837C147.041 212.85 147.091 212.854 147.141 212.847C147.191 212.841 147.24 212.824 147.283 212.799C149.954 211.256 153.112 212.205 153.141 212.205C153.238 212.234 153.342 212.224 153.432 212.177C153.521 212.131 153.589 212.052 153.622 211.956C153.638 211.908 153.644 211.858 153.639 211.807C153.635 211.757 153.621 211.708 153.598 211.664C153.575 211.619 153.543 211.579 153.504 211.547C153.466 211.515 153.421 211.49 153.373 211.475C153.23 211.428 149.871 210.401 146.903 212.11C146.856 212.135 146.814 212.169 146.781 212.211C146.748 212.252 146.724 212.3 146.711 212.352C146.697 212.403 146.695 212.457 146.703 212.509C146.712 212.562 146.732 212.612 146.761 212.657Z" fill="#E0E0E0"/>
<path id="Vector_16" d="M146.784 210.573V210.603C146.839 210.688 146.925 210.748 147.024 210.771C147.123 210.793 147.227 210.775 147.313 210.722C149.859 209.107 153.248 210.128 153.278 210.128C153.373 210.15 153.473 210.135 153.558 210.087C153.642 210.038 153.705 209.959 153.734 209.865C153.763 209.772 153.755 209.671 153.712 209.583C153.669 209.495 153.594 209.427 153.503 209.392C153.349 209.345 149.746 208.27 146.909 210.075C146.828 210.126 146.771 210.206 146.747 210.299C146.724 210.392 146.738 210.49 146.784 210.573Z" fill="#E0E0E0"/>
<path id="Vector_17" d="M146.648 208.775C146.703 208.86 146.789 208.92 146.888 208.943C146.987 208.965 147.09 208.947 147.176 208.894C148.068 208.412 149.046 208.111 150.055 208.01C151.063 207.908 152.082 208.007 153.052 208.3C153.099 208.319 153.149 208.327 153.199 208.327C153.249 208.326 153.299 208.315 153.345 208.295C153.391 208.274 153.433 208.245 153.467 208.209C153.502 208.173 153.53 208.13 153.548 208.084C153.566 208.037 153.575 207.987 153.574 207.937C153.573 207.886 153.562 207.837 153.542 207.791C153.522 207.745 153.493 207.703 153.457 207.668C153.421 207.634 153.378 207.606 153.331 207.588C152.251 207.25 151.113 207.133 149.986 207.244C148.859 207.355 147.767 207.692 146.773 208.235C146.727 208.26 146.687 208.295 146.656 208.337C146.625 208.379 146.602 208.426 146.591 208.477C146.579 208.528 146.578 208.581 146.588 208.632C146.598 208.684 146.618 208.732 146.648 208.775Z" fill="#E0E0E0"/>
<path id="Vector_18" d="M200.891 183.051C201.757 183.413 204.013 183.443 205.206 182.529C207.693 180.636 207.966 175.407 206.986 172.599C205.799 169.18 203.799 167.524 203.033 165.477C202.268 163.429 202.286 160.426 201.324 158.645C200.936 157.963 200.406 157.372 199.77 156.913C199.135 156.453 198.407 156.135 197.638 155.98C197.145 155.871 196.634 155.876 196.144 155.994C195.653 156.113 195.196 156.341 194.807 156.663L194.053 157.256L200.891 183.051Z" fill="#263238"/>
<path id="Vector_19" d="M205.758 173.501C204.903 169.667 200.873 167.287 200.719 163.494C200.564 159.702 198.071 154.852 193.4 157.636C192.068 158.43 190.828 159.37 189.703 160.438L191.21 160.289C191.679 160.515 192.439 161.613 192.795 162.58C193.151 163.548 194.641 164.165 195.401 165.791C195.401 165.791 193.905 164.604 193.145 164.764C192.789 164.836 193.05 165.809 192.641 167.649C192.472 168.312 192.144 168.923 191.685 169.43L191.418 169.501H191.341L190.617 169.703C191.24 170.029 192.949 170.296 194.047 171.115C194.48 171.569 194.846 172.083 195.133 172.641C195.573 173.559 195.931 174.514 196.202 175.495C196.659 176.956 197.128 178.416 197.638 179.858C197.868 180.603 198.198 181.314 198.618 181.971C199.935 183.852 202.517 183.716 204.102 182.226C204.892 181.528 205.475 180.627 205.787 179.621C206.476 177.591 206.173 175.341 205.758 173.501Z" fill="url(#paint5_linear_9_11944)"/>
<path id="Vector_20" opacity="0.4" d="M205.758 173.501C204.903 169.667 200.873 167.287 200.719 163.494C200.564 159.702 198.071 154.852 193.4 157.636C192.068 158.43 190.828 159.37 189.703 160.438L191.21 160.289C191.679 160.515 192.439 161.613 192.795 162.58C193.151 163.548 194.641 164.165 195.401 165.791C195.401 165.791 193.905 164.604 193.145 164.764C192.789 164.836 193.05 165.809 192.641 167.649C192.472 168.312 192.144 168.923 191.685 169.43L191.418 169.501H191.341L190.617 169.703C191.24 170.029 192.949 170.296 194.047 171.115C194.48 171.569 194.846 172.083 195.133 172.641C195.573 173.559 195.931 174.514 196.202 175.495C196.659 176.956 197.128 178.416 197.638 179.858C197.868 180.603 198.198 181.314 198.618 181.971C199.935 183.852 202.517 183.716 204.102 182.226C204.892 181.528 205.475 180.627 205.787 179.621C206.476 177.591 206.173 175.341 205.758 173.501Z" fill="black"/>
<path id="Vector_21" opacity="0.15" d="M197.092 176.036C196.927 175.199 196.695 174.378 196.398 173.578C196.096 172.776 195.603 172.059 194.961 171.489C194.293 170.965 193.513 170.602 192.682 170.427C193.174 170.599 193.639 170.843 194.059 171.151C194.492 171.605 194.858 172.119 195.145 172.676C195.585 173.594 195.943 174.55 196.214 175.531C196.493 176.404 196.772 177.276 197.062 178.149C197.15 178.065 197.222 177.966 197.276 177.858C197.383 177.52 197.383 177.157 197.276 176.819L197.092 176.036Z" fill="black"/>
<path id="Vector_22" opacity="0.15" d="M205.663 175.211C205.634 175.965 205.327 176.681 204.802 177.223C204.457 177.472 204.041 177.606 203.615 177.606C203.189 177.606 202.774 177.472 202.428 177.223C201.903 176.882 201.479 176.406 201.2 175.846C201.01 175.383 200.968 174.855 200.517 175.075C199.35 175.654 198.32 176.475 197.496 177.484C197.446 177.534 197.409 177.595 197.389 177.662C197.369 177.796 197.401 177.932 197.478 178.042C197.736 178.599 197.794 179.228 197.644 179.823V179.894C197.874 180.639 198.204 181.35 198.624 182.007C199.941 183.889 202.523 183.752 204.108 182.262C204.898 181.564 205.481 180.663 205.793 179.657C206.299 177.694 206.299 175.636 205.793 173.674C205.776 174.196 205.734 174.707 205.663 175.211Z" fill="black"/>
<path id="Vector_23" opacity="0.15" d="M199.947 167.305C199.489 166.632 198.933 166.032 198.297 165.524C197.988 165.281 197.644 165.144 197.336 164.931C196.994 164.686 196.676 164.41 196.386 164.106C195.199 162.919 194.368 161.476 193.335 160.176C193.002 159.744 192.584 159.384 192.107 159.12C191.919 159.022 191.719 158.949 191.513 158.9C190.86 159.399 190.243 159.927 189.697 160.438L191.204 160.289C191.673 160.515 192.433 161.613 192.789 162.58C193.145 163.548 194.57 164.147 195.365 165.726C196.125 166.373 196.938 166.961 197.638 167.631C198.219 168.15 198.697 168.774 199.045 169.471C199.906 171.256 200.546 173.14 200.95 175.08C200.991 175.459 201.137 175.818 201.372 176.119C201.434 176.188 201.511 176.243 201.596 176.28C201.682 176.318 201.774 176.338 201.867 176.338C201.96 176.338 202.053 176.318 202.138 176.28C202.223 176.243 202.3 176.188 202.363 176.119C202.438 175.989 202.479 175.842 202.481 175.691C202.565 174.018 202.275 172.348 201.633 170.801C201.221 169.569 200.655 168.394 199.947 167.305Z" fill="black"/>
<path id="Vector_24" d="M196.665 178.63C196.749 178.67 196.845 178.679 196.935 178.656C197.026 178.632 197.104 178.576 197.157 178.499C198.266 176.923 199.839 175.732 201.656 175.092C201.754 175.062 201.835 174.995 201.883 174.905C201.931 174.815 201.941 174.709 201.912 174.612C201.897 174.564 201.874 174.519 201.842 174.48C201.81 174.441 201.771 174.409 201.727 174.385C201.683 174.361 201.635 174.347 201.585 174.342C201.535 174.337 201.485 174.342 201.437 174.356C199.444 175.041 197.72 176.342 196.516 178.072C196.461 178.157 196.442 178.261 196.462 178.361C196.482 178.46 196.54 178.548 196.623 178.606L196.665 178.63Z" fill="#E0E0E0"/>
<path id="Vector_25" d="M196.16 176.136C196.194 176.164 196.232 176.186 196.273 176.202C196.433 176.261 196.516 176.202 196.599 176.053C196.794 175.775 197.01 175.513 197.246 175.27C197.679 174.824 198.158 174.426 198.677 174.083C199.376 173.615 200.134 173.244 200.932 172.979L201.181 172.902C201.279 172.876 201.363 172.814 201.416 172.727C201.468 172.641 201.484 172.537 201.46 172.439C201.448 172.39 201.426 172.344 201.396 172.303C201.365 172.262 201.327 172.228 201.284 172.202C201.24 172.176 201.192 172.159 201.142 172.152C201.092 172.145 201.041 172.147 200.992 172.16C200.444 172.301 199.913 172.5 199.407 172.753C198.304 173.282 197.316 174.023 196.498 174.932C196.279 175.175 195.964 175.484 196.018 175.84C196.027 175.953 196.077 176.059 196.16 176.136Z" fill="#E0E0E0"/>
<path id="Vector_26" d="M195.454 174.142C195.697 174.332 195.899 173.941 196.047 173.769C196.239 173.505 196.452 173.257 196.682 173.027C197.107 172.61 197.574 172.24 198.077 171.923C198.705 171.523 199.381 171.204 200.089 170.973H200.178C200.267 170.939 200.341 170.873 200.384 170.789C200.428 170.704 200.438 170.606 200.414 170.514C200.39 170.422 200.332 170.342 200.252 170.29C200.173 170.237 200.076 170.217 199.982 170.231C199.435 170.387 198.905 170.602 198.403 170.872C197.332 171.409 196.384 172.163 195.62 173.086C195.521 173.177 195.442 173.287 195.387 173.409C195.332 173.532 195.302 173.664 195.299 173.798C195.304 173.914 195.348 174.025 195.424 174.113C195.433 174.124 195.443 174.133 195.454 174.142Z" fill="#E0E0E0"/>
<path id="Vector_27" d="M194.605 172.267C194.653 172.299 194.708 172.319 194.765 172.326C194.932 172.326 194.985 172.154 195.062 172.035C195.144 171.9 195.233 171.769 195.329 171.644C195.509 171.396 195.708 171.162 195.923 170.943C196.324 170.545 196.764 170.188 197.234 169.875C197.792 169.499 198.389 169.187 199.015 168.943H199.045C199.093 168.927 199.137 168.902 199.175 168.868C199.212 168.835 199.243 168.795 199.265 168.749C199.288 168.704 199.3 168.655 199.303 168.604C199.306 168.554 199.299 168.504 199.282 168.456C199.248 168.361 199.179 168.282 199.087 168.238C198.996 168.193 198.892 168.187 198.795 168.219C198.246 168.422 197.717 168.679 197.217 168.984C196.181 169.582 195.283 170.391 194.581 171.359C194.462 171.498 194.377 171.662 194.332 171.839C194.317 171.92 194.329 172.004 194.368 172.077C194.404 172.129 194.448 172.175 194.498 172.213L194.605 172.267Z" fill="#E0E0E0"/>
<path id="Vector_28" d="M196.345 165.821C196.29 165.81 196.233 165.81 196.178 165.821C196.012 165.851 196.006 166.047 195.965 166.177C195.923 166.308 195.858 166.474 195.799 166.623C195.678 166.906 195.539 167.182 195.383 167.448C195.095 167.935 194.757 168.39 194.374 168.807C193.929 169.31 193.427 169.76 192.878 170.148C192.837 170.176 192.801 170.211 192.773 170.253C192.745 170.294 192.725 170.341 192.716 170.39C192.706 170.439 192.705 170.49 192.715 170.539C192.725 170.588 192.744 170.635 192.772 170.676C192.799 170.718 192.835 170.754 192.876 170.782C192.918 170.81 192.964 170.829 193.014 170.839C193.063 170.849 193.113 170.849 193.162 170.84C193.211 170.83 193.258 170.811 193.3 170.783C193.782 170.453 194.229 170.075 194.635 169.655C195.495 168.817 196.167 167.806 196.606 166.688C196.688 166.524 196.73 166.343 196.73 166.16C196.724 166.078 196.691 166.001 196.635 165.94C196.591 165.894 196.536 165.86 196.475 165.839L196.345 165.821Z" fill="#E0E0E0"/>
<path id="Vector_29" d="M167.006 113.376C168.394 118.332 169.534 124.185 169.314 133.83C169.095 143.474 169.344 152.128 169.344 152.128C169.344 152.128 168.086 156.081 160.049 157.06C152.013 158.04 148.855 155.44 148.855 155.44L147.627 143.688L144.256 152.591C144.256 152.591 140.51 153.529 134.106 151.404C127.702 149.279 125.203 144.555 125.203 144.555C125.203 144.555 130.889 120.813 133.358 115.311L167.006 113.376Z" fill="#455A64"/>
<path id="Vector_30" d="M147.627 143.688L146.885 136.133C146.885 136.133 139.763 136.43 136.748 129.954C136.748 129.954 137.377 135.889 145.472 138.264L146.446 143.534L144.256 152.591L147.627 143.688Z" fill="#37474F"/>
<path id="Vector_31" d="M164.365 156.081C165.035 142.863 163.819 123.022 161.676 116.564L160.127 118.166C162.554 127.526 163.095 147.493 162.667 156.592C163.242 156.452 163.808 156.282 164.365 156.081Z" fill="url(#paint6_linear_9_11944)"/>
<path id="Vector_32" d="M163.534 117.781C165.949 127.069 166.056 146.383 165.575 155.571C166.182 155.286 166.761 154.944 167.303 154.55C167.956 141.356 167.19 122.499 165.089 116.184L163.534 117.781Z" fill="url(#paint7_linear_9_11944)"/>
<path id="Vector_33" d="M112.377 51.9046C113.264 54.5603 114.601 57.0438 116.33 59.2466C124.177 68.6362 132.124 73.5744 136.172 81.9195C140.819 81.326 146.855 73.2777 143.122 68.6659C139.056 67.2177 123.904 51.1508 122.497 48.8123C121.215 46.3729 116.912 35.161 115.903 30.9232C115.751 30.2124 115.86 29.4706 116.211 28.834C117.197 26.9703 117.072 24.976 117.517 23.0945C117.867 21.6226 118.496 20.94 118.206 20.7204C117.838 20.4909 117.397 20.4086 116.971 20.49C116.545 20.5714 116.166 20.8106 115.909 21.1596C115.248 22.0935 114.676 23.0871 114.199 24.1273C114.062 22.427 114.05 20.719 114.164 19.017C114.413 15.0937 113.511 12.1795 109.166 14.6723C106.442 16.2333 104.916 20.2456 106.371 27.4154C106.792 29.475 107.558 34.2885 108.294 37.2503C109.665 42.7226 110.466 46.9426 112.377 51.9046Z" fill="#FFCDEB"/>
<path id="Vector_34" d="M145.561 68.6776C143.721 67.8051 141.513 67.0988 139.086 65.1164C136.552 63.0509 133.406 60.7124 133.406 60.7124C133.406 60.7124 127.88 65.2054 128.011 71.8411C130.047 73.8876 131.814 76.1853 133.269 78.6786C134.367 80.6059 135.228 82.6585 135.833 84.792C135.833 84.792 141.941 85.9791 143.057 79.4027C143.644 75.7744 144.481 72.1909 145.561 68.6776Z" fill="url(#paint8_linear_9_11944)"/>
<path id="Vector_35" d="M135.846 99.9093C135.62 97.9685 135.679 94.3657 135.638 93.3805C130.516 89.0061 132.456 84.3172 134.077 80.5364C137.323 72.9867 140.606 68.6302 143.834 68.6064L152.737 68.8676C157.337 68.9507 162.649 69.2059 163.831 69.4077C166.84 69.9241 168.24 72.9689 168.579 76.1324C168.929 79.5868 169.736 79.8539 169.172 85.6289C169.172 85.6289 167.101 91.5643 165.249 96.823C165.249 96.823 164.578 100.699 165.249 102.503C166.484 105.845 168.258 113.596 168.876 119.229C168.876 119.229 165.605 123.864 150.808 123.858C140.048 123.858 131.815 118.226 131.815 118.226L135.846 99.9093Z" fill="url(#paint9_linear_9_11944)"/>
<path id="Vector_36" d="M167.136 80.3285C167.136 80.833 167.095 81.3731 167.053 81.9963L134.237 80.2157C134.486 79.6222 134.729 79.1058 134.979 78.5835L167.136 80.3285Z" fill="#455A64"/>
<path id="Vector_37" d="M143.852 68.624L152.755 68.8852C157.355 68.9683 162.667 69.2235 163.848 69.4253C166.858 69.9417 166.62 72.6719 166.935 75.8236C167.09 76.7195 167.172 77.6267 167.178 78.536L135.786 76.981C138.457 71.651 141.187 68.6478 143.852 68.624Z" fill="#455A64"/>
<path id="Vector_38" opacity="0.1" d="M162.192 102.343C162.145 101.791 162.115 101.233 162.115 100.681C162.141 98.8342 162.386 96.9972 162.845 95.2084C163.688 91.8193 165.474 88.086 164.756 86.1986C164.038 84.3111 162.257 81.1179 163.082 74.9571L167.926 73.313C168.252 74.2286 168.462 75.1819 168.549 76.1501C168.899 79.6044 169.706 79.8715 169.142 85.6466C169.142 85.6466 167.071 91.5819 165.219 96.8406C165.219 96.8406 164.549 100.716 165.219 102.521C166.454 105.862 168.228 113.614 168.846 119.246C168.846 119.246 165.575 123.882 150.779 123.876H150.339C156.275 122.558 162.044 118.534 162.916 112.1C163.379 108.86 162.465 105.607 162.192 102.343Z" fill="black"/>
<path id="Vector_39" opacity="0.1" d="M159.165 90.1812C158.524 91.564 157.498 92.7325 156.209 93.5463C154.921 94.3602 153.424 94.7848 151.9 94.7692C150.432 94.8019 148.981 94.4465 147.694 93.7389C146.407 93.0312 145.329 91.9965 144.57 90.7391C144.57 90.7391 145.116 96.5379 151.984 96.1639C158.851 95.79 159.165 90.1812 159.165 90.1812Z" fill="black"/>
<path id="Vector_40" d="M135.893 44.7882C135.749 43.777 135.74 42.7513 135.863 41.7374C136.135 39.4172 137.253 37.2787 139.003 35.7309C142.161 33.0659 146.161 33.9503 149.924 34.1283C156.738 34.437 163.534 37.096 165.445 43.1382C166.632 46.919 166.139 51.4476 164.483 56.7004C163.053 61.2765 161.225 63.9889 157.444 64.5647L150.464 63.3776C147.336 63.9415 144.327 62.701 142.018 60.6236C141.398 60.0626 140.82 59.4554 140.291 58.8074C139.794 58.162 139.442 57.417 139.258 56.6232C138.691 54.8 138.251 52.9398 137.941 51.0559C137.725 50.1621 137.394 49.3002 136.955 48.4918C136.432 47.3121 136.075 46.0658 135.893 44.7882Z" fill="#263238"/>
<path id="Vector_41" d="M141.235 40.2002C139.49 41.1498 137.228 45.3639 137.11 54.3737C137.015 62.0125 139.418 63.983 140.641 64.5706C141.864 65.1582 144.268 64.9149 146.612 64.6122L146.446 69.1883C146.446 69.1883 146.137 74.079 148.013 74.3995C153.123 74.079 157.432 69.4198 157.432 69.4198V59.674C158.047 59.887 158.711 59.9173 159.343 59.7615C159.975 59.6056 160.548 59.2701 160.993 58.7956C162.774 56.9437 163.368 54.3797 161.955 52.8068C161.581 52.4344 161.123 52.156 160.621 51.9944C160.118 51.8328 159.584 51.7926 159.063 51.8771C158.542 51.9617 158.048 52.1686 157.622 52.4808C157.196 52.793 156.851 53.2017 156.613 53.6734C156.613 53.6734 155.242 53.7387 153.966 51.1509C151.671 51.3214 149.385 50.7243 147.467 49.4534C142.677 46.4442 141.603 41.7434 141.235 40.2002Z" fill="#FFCDEB"/>
<path id="Vector_42" d="M147.051 52.3318C147.043 52.5201 147.09 52.7067 147.186 52.8685C147.283 53.0303 147.425 53.1602 147.595 53.2419C147.764 53.3237 147.955 53.3537 148.141 53.3284C148.328 53.303 148.503 53.2233 148.645 53.0992C148.787 52.9751 148.889 52.8121 148.939 52.6304C148.989 52.4487 148.984 52.2563 148.926 52.0771C148.867 51.898 148.757 51.74 148.61 51.6228C148.462 51.5055 148.284 51.4343 148.096 51.4178C147.967 51.4081 147.838 51.4242 147.715 51.4651C147.592 51.5059 147.479 51.5708 147.382 51.6559C147.285 51.741 147.205 51.8445 147.149 51.9606C147.092 52.0766 147.059 52.2028 147.051 52.3318Z" fill="#263238"/>
<g id="Group" style="mix-blend-mode:multiply" opacity="0.5">
<path id="Vector_43" d="M145.633 58.6709L142.606 59.5196C142.653 59.7222 142.74 59.9132 142.863 60.0812C142.985 60.2493 143.14 60.391 143.318 60.4979C143.497 60.6048 143.695 60.6747 143.901 60.7034C144.107 60.7322 144.316 60.7192 144.517 60.6652C144.925 60.541 145.268 60.2642 145.476 59.8925C145.684 59.5208 145.74 59.0831 145.633 58.6709Z" fill="#9A4A4D"/>
</g>
<path id="Vector_44" d="M138.487 49.0315L140.475 47.7554C140.399 47.6224 140.296 47.5063 140.173 47.4143C140.05 47.3223 139.909 47.2563 139.76 47.2202C139.61 47.1841 139.455 47.1788 139.304 47.2044C139.152 47.2301 139.008 47.2863 138.879 47.3696C138.613 47.5438 138.424 47.8133 138.351 48.1225C138.279 48.4317 138.327 48.757 138.487 49.0315Z" fill="#263238"/>
<path id="Vector_45" d="M148.511 49.0082L150.684 49.9103C150.75 49.7707 150.787 49.6189 150.793 49.4644C150.799 49.3098 150.774 49.1556 150.718 49.0112C150.663 48.8668 150.578 48.7353 150.47 48.6246C150.362 48.5138 150.233 48.4262 150.09 48.3671C149.795 48.2536 149.467 48.2567 149.174 48.3757C148.881 48.4948 148.644 48.7209 148.511 49.0082Z" fill="#263238"/>
<path id="Vector_46" d="M138.92 51.8271C138.893 52.0843 138.969 52.3415 139.132 52.5428C139.294 52.7441 139.529 52.8729 139.786 52.9013C140.045 52.9161 140.3 52.8286 140.495 52.6577C140.691 52.4868 140.811 52.2461 140.831 51.9873C140.852 51.8567 140.845 51.7233 140.812 51.5953C140.779 51.4674 140.719 51.3477 140.638 51.2436C140.556 51.1396 140.454 51.0535 140.338 50.9908C140.221 50.928 140.093 50.8899 139.962 50.8789C139.83 50.8678 139.697 50.884 139.572 50.9266C139.447 50.9691 139.332 51.0369 139.234 51.1259C139.136 51.2149 139.058 51.3231 139.004 51.4437C138.95 51.5644 138.921 51.6949 138.92 51.8271Z" fill="#263238"/>
<g id="Group_2" style="mix-blend-mode:multiply" opacity="0.5">
<path id="Vector_47" d="M143.544 51.4414L143.181 57.2105L140.178 56.16L143.544 51.4414Z" fill="#9A4A4D"/>
</g>
<g id="Group_3" style="mix-blend-mode:multiply" opacity="0.5">
<path id="Vector_48" d="M146.612 64.6123C149.075 64.3749 154.174 63.1107 155.034 61.1401C154.682 62.1401 154.031 63.008 153.171 63.627C151.615 64.8616 146.559 66.1377 146.559 66.1377L146.612 64.6123Z" fill="#9A4A4D"/>
</g>
<path id="Vector_49" d="M156.619 53.6729L156.471 57.6911C155.747 57.6633 155.064 57.3497 154.571 56.819C154.078 56.2883 153.816 55.5838 153.842 54.86L153.972 51.1504L156.619 53.6729Z" fill="#263238"/>
<path id="Vector_50" d="M164.774 124.642C163.973 124.826 162.365 124.992 162.127 124.001C161.89 123.01 163.225 122.945 164.216 122.102C165.284 121.145 166.408 120.254 167.582 119.431C169.077 118.452 170.923 118.446 171.671 117.276C172.443 116.327 176.924 103.453 178.105 99.601C174.17 94.1286 170.217 88.7037 167.297 84.5431C167.297 84.5431 163.356 75.8419 164.015 70.0253C166.668 69.4317 170.822 70.1915 175.179 75.6757C179.055 80.4389 182.624 85.4446 185.862 90.6624C189.548 96.7164 189.887 96.5977 187.886 102.207C185.969 107.59 181.482 117.33 178.983 121.556C176.87 125.153 176.2 126.393 174.36 128.874C172.692 131.123 169.285 133.462 167.499 133.872C164.846 134.465 161.272 133.735 161.272 131.106C161.272 128.476 166.294 126.274 167.267 123.692C166.469 124.088 165.634 124.406 164.774 124.642Z" fill="#FFCDEB"/>
<path id="Vector_51" d="M163.824 69.4255C163.824 69.4255 169.511 69.3543 171.149 70.6126C173.357 72.2745 176.105 76.0019 177.678 78.0555C179.25 80.1091 181.832 83.243 181.832 83.243C181.832 83.243 178.948 90.7037 171.932 91.861L165.255 83.4388C163.605 81.682 162.145 76.0731 163.824 69.4255Z" fill="url(#paint10_linear_9_11944)"/>
<path id="Vector_52" d="M170.205 42.4731C170.01 42.2832 169.808 42.1051 169.612 41.9271C168.526 40.9083 167.1 40.3288 165.611 40.3008C164.424 40.3542 162.015 41.7193 161.38 39.9922C161.261 39.5852 161.261 39.1527 161.38 38.7457C162.074 35.8671 164.941 34.8522 167.624 34.9531C172.627 35.1371 175.826 39.5945 179.761 42.028C181.199 42.8305 182.816 43.2572 184.462 43.2684C186.143 43.3462 187.828 43.2025 189.471 42.8411C191.205 42.4553 192.89 41.8262 194.653 41.6125C196.416 41.3988 198.351 41.654 199.674 42.8411C200.381 43.539 200.88 44.4203 201.114 45.386C201.348 46.3517 201.307 47.3634 200.998 48.3075C200.349 50.2002 199.098 51.8284 197.437 52.943C195.77 54.1248 193.884 54.9628 191.89 55.4081C189.896 55.8534 187.833 55.8972 185.821 55.5368C181.775 54.779 178.125 52.621 175.512 49.4412C173.642 47.1917 172.289 44.4911 170.205 42.4731Z" fill="#263238"/>
<path id="Vector_53" d="M162.014 38.3716C161.741 38.2937 161.487 38.1628 161.264 37.9864C161.042 37.81 160.857 37.5915 160.719 37.3435C160.581 37.0955 160.494 36.8228 160.461 36.5409C160.429 36.259 160.452 35.9735 160.53 35.7007C160.608 35.4279 160.739 35.1732 160.916 34.951C161.092 34.7287 161.311 34.5435 161.559 34.4057C161.807 34.2679 162.079 34.1803 162.361 34.1479C162.643 34.1155 162.928 34.139 163.201 34.2169L162.014 38.3716Z" fill="#263238"/>
<path id="Vector_54" d="M151.277 149.932C151.259 149.907 151.247 149.878 151.242 149.847C151.237 149.816 151.239 149.784 151.248 149.754C151.265 149.694 151.302 149.641 151.354 149.606L153.39 148.33L153.545 148.241C153.596 148.216 153.654 148.206 153.711 148.211L154.381 148.282C154.444 148.29 154.501 148.321 154.541 148.37C154.581 148.419 154.6 148.481 154.595 148.544L154.002 154.135C153.993 154.196 153.961 154.252 153.912 154.29C153.864 154.329 153.802 154.348 153.74 154.342L153.04 154.271C152.977 154.264 152.92 154.232 152.88 154.182C152.861 154.158 152.846 154.131 152.838 154.101C152.83 154.071 152.828 154.04 152.832 154.01L153.283 149.737L151.954 150.568C151.902 150.597 151.841 150.608 151.782 150.597C151.719 150.579 151.664 150.539 151.627 150.484L151.277 149.932Z" fill="url(#paint11_linear_9_11944)"/>
<path id="Vector_55" d="M160.121 151.179C160.121 151.286 160.121 151.41 160.121 151.541L160.073 151.95L160.032 152.354C160.032 152.49 160.002 152.609 159.984 152.716C159.936 153.031 159.852 153.34 159.735 153.636C159.628 153.901 159.467 154.139 159.26 154.336C159.04 154.532 158.778 154.674 158.495 154.752C158.14 154.845 157.771 154.867 157.408 154.817C157.041 154.787 156.683 154.688 156.352 154.526C156.09 154.384 155.866 154.18 155.699 153.933C155.537 153.698 155.428 153.43 155.379 153.149C155.324 152.836 155.306 152.517 155.325 152.2C155.325 151.98 155.361 151.731 155.39 151.452C155.42 151.173 155.45 150.924 155.485 150.704C155.534 150.386 155.619 150.076 155.741 149.778C155.847 149.51 156.009 149.267 156.215 149.066C156.432 148.865 156.692 148.716 156.975 148.632C157.33 148.534 157.702 148.509 158.067 148.561C158.432 148.593 158.789 148.691 159.118 148.852C159.383 148.993 159.609 149.197 159.777 149.446C159.938 149.681 160.048 149.948 160.097 150.229C160.142 150.544 160.15 150.862 160.121 151.179ZM156.471 152.306C156.444 152.65 156.512 152.995 156.667 153.304C156.76 153.435 156.884 153.543 157.027 153.619C157.171 153.694 157.33 153.734 157.492 153.737C157.65 153.77 157.814 153.764 157.97 153.721C158.126 153.678 158.269 153.598 158.388 153.488C158.611 153.221 158.751 152.895 158.791 152.55C158.827 152.33 158.857 152.093 158.886 151.826C158.916 151.559 158.934 151.315 158.946 151.096C158.975 150.751 158.907 150.406 158.75 150.099C158.656 149.967 158.532 149.859 158.389 149.784C158.246 149.708 158.087 149.668 157.925 149.665C157.766 149.632 157.601 149.638 157.445 149.682C157.289 149.727 157.146 149.809 157.029 149.92C156.806 150.185 156.666 150.509 156.625 150.852C156.589 151.066 156.56 151.309 156.53 151.576C156.5 151.843 156.483 152.087 156.471 152.306Z" fill="url(#paint12_linear_9_11944)"/>
</g>
</g>
<g id="freepik--character-1--inject-12">
<g id="freepik--character--inject-12">
<path id="Vector_56" d="M83.6737 169.59C85.6977 165.512 86.5761 162.005 86.3624 159.565C85.3475 148.193 83.9883 133.349 82.8368 124.832C82.0712 119.187 80.5636 112.961 78.2132 102.278C78.2132 100.123 77.8868 96.6509 77.8868 96.6509L53.5876 97.3512C48.8008 106.981 45.9514 117.457 45.201 128.185C44.4472 137.545 42.7259 147.178 42.4232 152.259C36.5888 154.716 33.5203 158.123 30.79 160.61C25.9587 165.026 13.8625 178.042 11.34 179.057L11.1856 179.205C10.0757 180.392 8.53255 185.693 7.36329 188.892C6.57983 191.04 6.05159 194.471 7.41671 197.201C8.71655 199.807 10.2894 200.519 11.0551 197.741C11.1916 196.744 11.3103 195.759 11.4409 194.839C11.8563 191.996 14.9605 186.126 20.5397 182.47C23.2937 180.689 38.5475 171.05 51.6764 164.373C55.475 162.438 57.3684 159.749 59.149 155.879C61.4697 150.828 65.4404 140.596 65.4404 140.596L69.8207 162.681C67.1438 166.931 65.5116 170.581 63.7014 178.998C62.0248 186.434 59.8435 193.747 57.1725 200.887C57.0122 201.362 56.8579 201.837 56.6977 202.311C56.4986 203.066 56.2589 203.809 55.9795 204.537C55.5181 205.399 55.2279 206.343 55.1248 207.315C55.061 208.277 55.2363 209.239 55.6353 210.116C55.8667 210.615 56.1694 211.084 56.3831 211.594C56.8109 212.779 56.9314 214.054 56.7333 215.298C56.6027 216.55 56.3475 217.791 56.3416 219.043C56.3189 220.887 56.9168 222.685 58.0391 224.147C58.6038 224.869 59.311 225.466 60.1167 225.902C60.9224 226.338 61.8093 226.604 62.722 226.682C63.413 226.761 64.111 226.613 64.7104 226.26C65.1346 225.924 65.4616 225.48 65.6577 224.975C65.8538 224.471 65.9119 223.923 65.8262 223.388C65.646 222.324 65.3371 221.285 64.9062 220.295C64.5022 219.153 64.2003 217.977 64.0041 216.782C63.6511 214.465 63.5199 212.12 63.6123 209.778C63.6598 207.588 63.5292 205.184 64.6629 203.249C64.6748 203.208 77.8749 181.3 83.6737 169.59Z" fill="#FFCDEB"/>
<path id="Vector_57" d="M64.6632 203.226C64.6632 203.226 75.7148 184.886 82.0359 172.801C78.356 173.525 70.0703 170.57 67.3519 167.145C65.9868 170.065 64.8828 173.525 63.7017 179.016C62.0252 186.452 59.8438 193.765 57.1728 200.905C57.0126 201.38 56.8582 201.855 56.698 202.33C56.4989 203.084 56.2592 203.827 55.9798 204.555C55.5206 205.412 55.2304 206.349 55.1251 207.315C55.0613 208.277 55.2366 209.239 55.6356 210.117C55.867 210.615 56.1697 211.084 56.3834 211.595C56.8112 212.78 56.9317 214.054 56.7336 215.298C56.603 216.551 56.3478 217.791 56.3419 219.043C56.3192 220.887 56.9171 222.685 58.0394 224.148C58.6041 224.869 59.3114 225.466 60.117 225.903C60.9227 226.339 61.8096 226.604 62.7223 226.682C63.4133 226.762 64.1113 226.614 64.7107 226.261C65.1349 225.924 65.4619 225.481 65.658 224.976C65.8541 224.471 65.9123 223.923 65.8265 223.388C65.6463 222.324 65.3374 221.285 64.9065 220.296C64.5025 219.154 64.2006 217.978 64.0044 216.782C63.6514 214.465 63.5202 212.12 63.6126 209.778C63.6601 207.588 63.5295 205.184 64.6632 203.226Z" fill="#37474F"/>
<path id="Vector_58" d="M67.3517 167.145C66.865 168.19 66.408 169.311 65.9688 170.558C67.8499 172.409 70.0897 173.856 72.5507 174.809C75.0116 175.762 77.6416 176.202 80.2788 176.101C80.8723 174.968 81.4659 173.858 82.0594 172.801C78.3558 173.525 70.0701 170.57 67.3517 167.145Z" fill="url(#paint13_linear_9_11944)"/>
<path id="Vector_59" d="M53.7418 205.766C53.3619 206.241 52.6794 207.226 52.7565 207.772C52.8337 208.318 53.8249 211.12 53.9436 214.016C54.0504 216.58 52.9286 221.453 55.3977 224.925C57.5701 227.976 59.5525 228.688 61.3331 229.027C62.0291 229.2 62.7565 229.204 63.4546 229.039C64.1526 228.874 64.8009 228.544 65.3453 228.077C65.3453 228.077 66.9241 226.664 66.2238 225.572C65.5234 224.48 53.7418 205.766 53.7418 205.766Z" fill="#37474F"/>
<path id="Vector_60" d="M53.5815 206.009C53.6696 205.297 53.9862 204.633 54.4837 204.116C55.2197 203.314 56.021 202.632 56.3118 201.546C56.4127 201.154 56.5017 200.43 56.9765 200.299H57.4454L57.0834 201.374C57.2852 201.819 57.6769 202.852 57.8609 203.309C58.2942 204.496 57.7541 205.736 58.6088 206.775C58.6681 205.457 58.7215 203.938 59.594 203.95C60.1876 203.95 61.2322 204.757 62.4192 204.929C63.6063 205.101 64.5441 204.858 65.007 205.03C65.47 205.202 65.2088 205.795 64.9121 207.155C64.5294 208.694 64.3125 210.27 64.2651 211.855C64.3601 213.114 64.4966 214.414 64.6806 215.66C65.3869 220.438 67.12 222.901 66.7283 225.471C66.3187 228.142 62.1106 229.08 59.0836 226.765C53.9377 222.83 55.0001 218.871 55.0891 215.939C55.1964 214.05 55.0224 212.156 54.5727 210.318C54.1217 208.555 53.6231 207.665 53.5815 206.009Z" fill="url(#paint14_linear_9_11944)"/>
<path id="Vector_61" opacity="0.4" d="M53.5815 206.009C53.6696 205.297 53.9862 204.633 54.4837 204.116C55.2197 203.314 56.021 202.632 56.3118 201.546C56.4127 201.154 56.5017 200.43 56.9765 200.299H57.4454L57.0834 201.374C57.2852 201.819 57.6769 202.852 57.8609 203.309C58.2942 204.496 57.7541 205.736 58.6088 206.775C58.6681 205.457 58.7215 203.938 59.594 203.95C60.1876 203.95 61.2322 204.757 62.4192 204.929C63.6063 205.101 64.5441 204.858 65.007 205.03C65.47 205.202 65.2088 205.795 64.9121 207.155C64.5294 208.694 64.3125 210.27 64.2651 211.855C64.3601 213.114 64.4966 214.414 64.6806 215.66C65.3869 220.438 67.12 222.901 66.7283 225.471C66.3187 228.142 62.1106 229.08 59.0836 226.765C53.9377 222.83 55.0001 218.871 55.0891 215.939C55.1964 214.05 55.0224 212.156 54.5727 210.318C54.1217 208.555 53.6231 207.665 53.5815 206.009Z" fill="black"/>
<path id="Vector_62" opacity="0.15" d="M56.312 201.528C56.312 201.528 56.312 201.528 56.312 201.564C56.3144 201.583 56.3144 201.603 56.312 201.623C56.4174 202.284 56.5641 202.939 56.7512 203.582C56.9174 204.353 57.0242 205.137 57.137 205.914C57.2142 206.46 57.2498 207.006 57.2795 207.558C57.3091 208.11 57.3269 208.555 57.321 209.06C57.2854 211.434 56.9352 213.327 57.5288 216.366C58.1223 219.405 58.977 219.702 59.5883 219.334C60.1996 218.966 59.6358 218.147 59.0541 215.494C58.4606 212.692 58.9473 209.63 58.6446 206.751C58.4334 206.511 58.2864 206.221 58.2173 205.908C58.0095 205.071 58.2172 204.157 57.8967 203.303C57.7306 202.846 57.3032 201.813 57.1192 201.368L57.4813 200.293H57.0124C56.7156 200.377 56.5732 200.691 56.4782 201.006C56.3892 201.19 56.3476 201.38 56.312 201.528Z" fill="black"/>
<path id="Vector_63" opacity="0.15" d="M57.9974 221.999C59.5821 222.919 60.5377 222.706 60.5021 221.139C60.4191 220.032 60.095 218.956 59.5524 217.987L63.7072 218.165C63.7072 218.165 63.4401 221.014 64.3007 221.726C64.8111 222.148 65.5293 221.489 65.9448 220.646C66.5383 222.522 67.0072 223.97 66.7817 225.454C66.3721 228.125 62.164 229.062 59.137 226.748C54.8279 223.454 54.8754 220.142 55.0535 217.429C54.9407 219.067 56.4127 221.079 57.9974 221.999Z" fill="black"/>
<path id="Vector_64" opacity="0.15" d="M64.8768 207.262C64.534 208.757 64.3353 210.281 64.2832 211.814C64.3782 213.072 64.5147 214.372 64.6987 215.619C64.8174 216.432 64.9717 217.18 65.1379 217.874C65.1067 218.259 64.9758 218.629 64.7581 218.948C64.2298 219.417 63.9984 219.364 63.7016 218.165C63.3751 216.812 63.3633 209.375 64.8887 207.262H64.8768Z" fill="black"/>
<path id="Vector_65" d="M64.7398 218.503C64.7012 218.575 64.6409 218.634 64.5675 218.67C64.494 218.706 64.411 218.718 64.3303 218.705C62.5176 218.414 60.6726 218.386 58.852 218.622C58.7545 218.631 58.6572 218.603 58.5796 218.544C58.5021 218.484 58.4501 218.397 58.4343 218.3C58.4184 218.204 58.4399 218.105 58.4943 218.023C58.5487 217.942 58.632 217.884 58.7273 217.862C60.6345 217.61 62.5684 217.64 64.4668 217.951C64.5664 217.97 64.6546 218.027 64.7123 218.11C64.7701 218.194 64.7927 218.296 64.7754 218.396C64.7689 218.433 64.7569 218.469 64.7398 218.503Z" fill="#E0E0E0"/>
<path id="Vector_66" d="M64.6214 216.538C64.5793 216.621 64.5083 216.685 64.4219 216.719C64.3355 216.753 64.2397 216.754 64.1526 216.722C62.3264 216.105 60.3528 216.074 58.5081 216.633C58.4593 216.656 58.4062 216.669 58.3523 216.67C58.2984 216.671 58.2449 216.661 58.1952 216.64C58.1455 216.619 58.1007 216.588 58.0637 216.549C58.0267 216.51 57.9983 216.463 57.9804 216.412C57.9625 216.362 57.9555 216.307 57.9597 216.254C57.9639 216.2 57.9794 216.148 58.005 216.1C58.0307 216.053 58.066 216.012 58.1087 215.979C58.1514 215.946 58.2005 215.922 58.2529 215.909C60.2643 215.287 62.4211 215.318 64.4137 215.998C64.5086 216.034 64.5858 216.106 64.629 216.198C64.6722 216.29 64.678 216.395 64.6452 216.491L64.6214 216.538Z" fill="#E0E0E0"/>
<path id="Vector_67" d="M64.6212 214.675C64.5766 214.764 64.4986 214.832 64.4042 214.864C64.3098 214.897 64.2066 214.89 64.1167 214.847C62.2571 214.047 60.1803 213.905 58.2289 214.444C58.1792 214.466 58.1253 214.478 58.0706 214.479C58.016 214.479 57.962 214.468 57.912 214.445C57.8621 214.423 57.8174 214.391 57.781 214.35C57.7445 214.309 57.7172 214.261 57.7007 214.209C57.6841 214.157 57.6789 214.102 57.6852 214.048C57.6915 213.994 57.7093 213.941 57.7374 213.895C57.7654 213.848 57.8031 213.807 57.8479 213.776C57.8928 213.745 57.9437 213.724 57.9974 213.714C60.1319 213.108 62.4106 213.263 64.4432 214.153C64.4893 214.174 64.5307 214.205 64.565 214.243C64.5993 214.28 64.6257 214.325 64.6428 214.373C64.6599 214.421 64.6673 214.471 64.6647 214.522C64.662 214.573 64.6492 214.623 64.6271 214.669L64.6212 214.675Z" fill="#E0E0E0"/>
<path id="Vector_68" d="M64.6509 212.71C64.5978 212.797 64.513 212.86 64.4144 212.886C64.3158 212.911 64.2111 212.897 64.1226 212.847C61.4577 211.31 58.3001 212.253 58.2704 212.253C58.2207 212.276 58.1668 212.288 58.1122 212.288C58.0575 212.289 58.0035 212.277 57.9535 212.255C57.9036 212.233 57.8589 212.2 57.8225 212.16C57.7861 212.119 57.7587 212.071 57.7422 212.019C57.7257 211.967 57.7204 211.912 57.7267 211.858C57.7331 211.803 57.7508 211.751 57.7789 211.704C57.8069 211.657 57.8446 211.617 57.8894 211.586C57.9343 211.555 57.9852 211.533 58.0389 211.523C58.1814 211.482 61.5407 210.449 64.5084 212.158C64.5558 212.183 64.5975 212.218 64.6307 212.26C64.664 212.302 64.688 212.351 64.7014 212.403C64.7149 212.455 64.7173 212.509 64.7086 212.562C64.6999 212.615 64.6802 212.665 64.6509 212.71Z" fill="#E0E0E0"/>
<path id="Vector_69" d="M64.6215 210.621V210.651C64.5666 210.736 64.4805 210.796 64.3817 210.818C64.2828 210.841 64.1792 210.823 64.0932 210.769C61.5529 209.161 58.1579 210.176 58.1579 210.176C58.0603 210.206 57.9549 210.195 57.8648 210.148C57.7747 210.1 57.7072 210.018 57.6771 209.921C57.6625 209.873 57.6576 209.822 57.6625 209.773C57.6674 209.723 57.6822 209.674 57.7059 209.63C57.7296 209.586 57.7619 209.547 57.8007 209.515C57.8396 209.484 57.8843 209.46 57.9323 209.446C58.0867 209.398 61.6835 208.324 64.5265 210.122C64.601 210.179 64.6519 210.262 64.6695 210.354C64.687 210.446 64.6699 210.541 64.6215 210.621Z" fill="#E0E0E0"/>
<path id="Vector_70" d="M64.7636 208.829C64.7097 208.915 64.624 208.976 64.525 209C64.4261 209.023 64.322 209.006 64.2353 208.953C63.3428 208.473 62.3646 208.174 61.3564 208.072C60.3482 207.97 59.3298 208.068 58.3593 208.36C58.2649 208.397 58.1596 208.395 58.0667 208.354C57.9737 208.314 57.9007 208.238 57.8637 208.143C57.8268 208.049 57.8288 207.943 57.8694 207.851C57.91 207.758 57.9859 207.685 58.0804 207.648C59.1569 207.315 60.2889 207.201 61.4101 207.312C62.5313 207.423 63.6189 207.757 64.6092 208.295C64.6552 208.319 64.6957 208.352 64.7285 208.392C64.7613 208.432 64.7856 208.479 64.8 208.529C64.8145 208.579 64.8187 208.631 64.8124 208.682C64.8061 208.734 64.7895 208.784 64.7636 208.829Z" fill="#E0E0E0"/>
<path id="Vector_71" d="M47.0409 166.836C44.3359 166.022 42.0076 164.274 40.4705 161.904C38.4228 158.936 38.8442 154.117 38.8442 154.087C35.2118 156.247 32.9089 158.716 30.79 160.616C25.9587 165.032 13.8625 178.048 11.34 179.063L11.1856 179.211C10.0757 180.398 8.53255 185.698 7.36329 188.898C6.57983 191.046 6.05159 194.477 7.41671 197.207C8.71655 199.813 10.2894 200.525 11.0551 197.747C11.1916 196.75 11.3103 195.765 11.4409 194.845C11.8563 192.002 14.9605 186.132 20.5397 182.476C22.9732 180.885 35.1762 173.187 47.0409 166.806V166.836Z" fill="#37474F"/>
<path id="Vector_72" d="M47.0409 166.836C44.3359 166.022 42.0076 164.274 40.4705 161.904C38.4228 158.936 38.8442 154.117 38.8442 154.087C37.6471 154.798 36.5008 155.591 35.4136 156.461C35.4789 160.153 36.3514 165.661 43.3669 168.83C44.5896 168.148 45.8182 167.477 47.0409 166.818V166.836Z" fill="url(#paint15_linear_9_11944)"/>
<path id="Vector_73" d="M8.30113 179.68C7.7076 179.894 6.64518 180.398 6.43744 180.915C6.2297 181.431 5.66585 184.339 4.30073 186.898C3.11366 189.159 -0.340698 192.797 0.0272923 197.041C0.35967 200.768 1.71292 202.383 3.05431 203.57C3.56722 204.073 4.19322 204.446 4.87992 204.658C5.56662 204.87 6.29404 204.914 7.00129 204.787C7.00129 204.787 9.07866 204.365 9.02524 203.071C8.97182 201.777 8.30113 179.68 8.30113 179.68Z" fill="#37474F"/>
<path id="Vector_74" d="M8.0517 179.793C8.4853 179.217 9.09644 178.8 9.79075 178.606C10.8235 178.285 11.8681 178.107 12.6634 177.312C12.9483 177.027 13.3935 176.451 13.8505 176.576C13.8921 176.576 14.2719 176.79 14.2719 176.79L13.4172 177.538C13.3698 178.024 13.1976 179.122 13.1086 179.603C12.889 180.82 11.785 181.639 11.9987 182.968C12.7169 181.864 13.53 180.594 14.2779 181.027C14.7705 181.33 15.2809 182.553 16.2187 183.301C17.1565 184.049 18.0883 184.316 18.397 184.701C18.7056 185.087 18.1833 185.461 17.2099 186.482C16.0863 187.611 15.091 188.861 14.2422 190.209C13.6903 191.343 13.1501 192.53 12.6753 193.693C10.8947 198.175 11.1143 201.178 9.47618 203.19C7.83803 205.202 3.6655 203.962 2.22915 200.436C-0.2162 194.435 2.70398 191.533 4.25903 189.076C5.3001 187.5 6.10028 185.777 6.63316 183.965C7.21482 182.268 7.23857 181.259 8.0517 179.793Z" fill="url(#paint16_linear_9_11944)"/>
<path id="Vector_75" opacity="0.4" d="M8.0517 179.793C8.4853 179.217 9.09644 178.8 9.79075 178.606C10.8235 178.285 11.8681 178.107 12.6634 177.312C12.9483 177.027 13.3935 176.451 13.8505 176.576C13.8921 176.576 14.2719 176.79 14.2719 176.79L13.4172 177.538C13.3698 178.024 13.1976 179.122 13.1086 179.603C12.889 180.82 11.785 181.639 11.9987 182.968C12.7169 181.864 13.53 180.594 14.2779 181.027C14.7705 181.33 15.2809 182.553 16.2187 183.301C17.1565 184.049 18.0883 184.316 18.397 184.701C18.7056 185.087 18.1833 185.461 17.2099 186.482C16.0863 187.611 15.091 188.861 14.2422 190.209C13.6903 191.343 13.1501 192.53 12.6753 193.693C10.8947 198.175 11.1143 201.178 9.47618 203.19C7.83803 205.202 3.6655 203.962 2.22915 200.436C-0.2162 194.435 2.70398 191.533 4.25903 189.076C5.3001 187.5 6.10028 185.777 6.63316 183.965C7.21482 182.268 7.23857 181.259 8.0517 179.793Z" fill="black"/>
<path id="Vector_76" opacity="0.15" d="M12.6637 177.324L12.6103 177.371C12.3753 177.994 12.1771 178.63 12.0168 179.277C11.7734 180.024 11.4707 180.755 11.168 181.485C10.9603 181.995 10.7169 182.488 10.4617 182.974C10.2065 183.461 9.99875 183.859 9.7376 184.286C8.49711 186.334 7.24476 187.776 6.21795 190.696C5.19114 193.616 5.77874 194.311 6.50285 194.257C7.22696 194.204 7.13199 193.278 7.98074 190.696C8.87697 187.972 10.8594 185.586 12.0583 182.951C12.0005 182.636 12.0209 182.312 12.1177 182.007C12.361 181.182 12.9961 180.499 13.1563 179.603C13.2454 179.122 13.4175 178.024 13.465 177.538L14.3197 176.79L14.2603 176.76L14.201 176.724L14.0526 176.647L13.9813 176.618C13.955 176.601 13.9272 176.587 13.8983 176.576C13.7439 176.561 13.5883 176.585 13.4454 176.645C13.3024 176.705 13.1766 176.8 13.0792 176.92C12.9011 177.069 12.7705 177.217 12.6637 177.324Z" fill="black"/>
<path id="Vector_77" opacity="0.15" d="M3.75454 195.83C4.65077 197.427 5.58262 197.729 6.34828 196.358C6.83637 195.361 7.10167 194.269 7.1258 193.159L10.6098 195.403C10.6098 195.403 8.93014 197.729 9.30407 198.738C9.52961 199.362 10.4911 199.16 11.2627 198.643C10.8176 200.555 10.4971 202.05 9.55335 203.214C7.84398 205.309 3.74267 203.985 2.30633 200.46C0.258641 195.432 1.97395 192.601 3.49339 190.37C2.61496 191.764 2.85237 194.234 3.75454 195.83Z" fill="black"/>
<path id="Vector_78" opacity="0.15" d="M17.1386 186.607C16.0763 187.718 15.126 188.93 14.3015 190.227C13.7495 191.361 13.2094 192.548 12.7346 193.712C12.4259 194.477 12.1826 195.201 11.9748 195.884C11.751 196.199 11.4508 196.452 11.1023 196.62C10.4079 196.75 10.2358 196.59 10.5919 195.403C10.9896 194.074 14.7466 187.652 17.1208 186.607H17.1386Z" fill="black"/>
<path id="Vector_79" d="M11.34 196.228C11.2738 196.277 11.1937 196.303 11.1115 196.303C11.0293 196.303 10.9492 196.277 10.883 196.228C9.46594 195.06 7.88896 194.101 6.20001 193.379C6.10556 193.342 6.02968 193.269 5.98905 193.176C5.94842 193.083 5.94638 192.978 5.98337 192.884C6.02036 192.789 6.09336 192.713 6.1863 192.673C6.27925 192.632 6.38452 192.63 6.47897 192.667C8.25045 193.409 9.9025 194.409 11.3815 195.635C11.458 195.701 11.5053 195.795 11.5131 195.896C11.5208 195.997 11.4885 196.097 11.4231 196.175C11.3984 196.197 11.3703 196.215 11.34 196.228Z" fill="#E0E0E0"/>
<path id="Vector_80" d="M12.2069 194.46C12.1288 194.51 12.0349 194.53 11.943 194.516C11.8511 194.501 11.7676 194.454 11.7083 194.382C10.4446 192.926 8.7576 191.901 6.88293 191.45C6.78297 191.428 6.69586 191.367 6.64076 191.281C6.58566 191.195 6.56709 191.09 6.58913 190.99C6.61117 190.89 6.67201 190.803 6.75828 190.748C6.84454 190.693 6.94916 190.675 7.04912 190.697C9.09925 191.177 10.9432 192.297 12.3138 193.896C12.3785 193.974 12.4098 194.074 12.4009 194.175C12.392 194.277 12.3436 194.37 12.2663 194.436L12.2069 194.46Z" fill="#E0E0E0"/>
<path id="Vector_81" d="M13.1742 192.875C13.0894 192.927 12.9877 192.944 12.8903 192.923C12.793 192.902 12.7075 192.844 12.6518 192.762C11.4524 191.132 9.73374 189.96 7.77895 189.438C7.67998 189.414 7.59449 189.352 7.54112 189.265C7.48775 189.179 7.47083 189.074 7.49405 188.975C7.50524 188.926 7.52596 188.88 7.55501 188.84C7.58406 188.799 7.62089 188.764 7.66335 188.738C7.70582 188.711 7.7531 188.693 7.80248 188.685C7.85185 188.677 7.90235 188.679 7.95107 188.69C10.1017 189.246 11.9909 190.535 13.2929 192.334C13.3499 192.419 13.3714 192.522 13.3525 192.622C13.3336 192.722 13.2759 192.811 13.192 192.869L13.1742 192.875Z" fill="#E0E0E0"/>
<path id="Vector_82" d="M14.171 191.171C14.127 191.196 14.0784 191.213 14.028 191.22C13.9776 191.226 13.9264 191.223 13.8773 191.21C13.8282 191.196 13.7822 191.173 13.742 191.142C13.7017 191.111 13.668 191.073 13.6428 191.028C12.1234 188.346 8.89455 187.58 8.89455 187.568C8.84577 187.557 8.79969 187.536 8.75894 187.507C8.71819 187.478 8.68359 187.441 8.65711 187.399C8.63064 187.356 8.61282 187.309 8.60468 187.26C8.59653 187.21 8.59822 187.16 8.60965 187.111C8.6201 187.062 8.64036 187.015 8.66922 186.974C8.69808 186.933 8.73494 186.898 8.7776 186.872C8.82027 186.845 8.86785 186.827 8.91752 186.819C8.96719 186.812 9.01792 186.814 9.06667 186.826C9.20912 186.826 12.6279 187.669 14.3254 190.649C14.3502 190.693 14.366 190.742 14.3717 190.792C14.3774 190.843 14.3729 190.894 14.3585 190.942C14.3441 190.991 14.3201 191.036 14.2879 191.076C14.2557 191.115 14.216 191.147 14.171 191.171Z" fill="#E0E0E0"/>
<path id="Vector_83" d="M15.2337 189.39H15.2041C15.1134 189.436 15.0084 189.445 14.9117 189.413C14.8151 189.382 14.7346 189.314 14.6877 189.224C13.3107 186.547 9.88008 185.705 9.8504 185.663C9.80123 185.653 9.75466 185.632 9.71349 185.604C9.67233 185.575 9.6374 185.538 9.61081 185.495C9.58421 185.452 9.56649 185.405 9.55871 185.355C9.55093 185.306 9.55324 185.255 9.56551 185.206C9.57669 185.157 9.59741 185.111 9.62647 185.07C9.65552 185.03 9.69234 184.995 9.7348 184.969C9.77727 184.942 9.82455 184.924 9.87393 184.916C9.9233 184.908 9.97381 184.91 10.0225 184.921C10.1768 184.957 13.8271 185.853 15.3643 188.844C15.3931 188.888 15.4127 188.938 15.4217 188.99C15.4307 189.041 15.4291 189.094 15.4169 189.146C15.4046 189.197 15.3821 189.245 15.3506 189.287C15.3191 189.329 15.2793 189.364 15.2337 189.39Z" fill="#E0E0E0"/>
<path id="Vector_84" d="M16.2601 187.901C16.1695 187.947 16.0644 187.955 15.9678 187.924C15.8711 187.893 15.7906 187.825 15.7437 187.735C14.6827 185.993 12.9756 184.743 10.9955 184.256C10.8955 184.24 10.8062 184.184 10.7472 184.102C10.6882 184.02 10.6644 183.917 10.6809 183.817C10.6974 183.717 10.753 183.628 10.8354 183.569C10.9177 183.51 11.0202 183.486 11.1201 183.503C12.2251 183.757 13.2675 184.231 14.1852 184.897C15.103 185.563 15.8773 186.407 16.4619 187.378C16.4844 187.426 16.497 187.477 16.4989 187.53C16.5009 187.582 16.4922 187.634 16.4733 187.683C16.4544 187.732 16.4258 187.776 16.3891 187.814C16.3525 187.851 16.3086 187.881 16.2601 187.901Z" fill="#E0E0E0"/>
<path id="Vector_85" d="M50.7923 104.254C48.5428 108.884 46.3823 114.439 44.8569 123.972C43.3316 133.504 42.1089 142.656 42.1089 142.656C42.1089 142.656 42.1089 146.087 49.8248 148.478C57.5407 150.87 63.2208 148.194 63.2208 148.194L65.0014 143.03L66.1469 146.87C66.1469 146.87 69.6666 148.455 76.3379 147.529C83.0092 146.603 86.2973 142.365 86.2973 142.365C86.2973 142.365 82.018 113.181 79.2106 107.525L50.7923 104.254Z" fill="#455A64"/>
<path id="Vector_86" d="M65.0664 143.03L68.1824 133.005C68.1824 133.005 73.5242 131.77 77.6315 125.936C77.6315 125.936 77.6315 131.919 69.322 134.97L66.6689 142.24L66.2475 146.852L65.0664 143.03Z" fill="#37474F"/>
<path id="Vector_87" d="M50.9226 142.572C50.9112 142.546 50.9053 142.518 50.9053 142.489C50.9053 142.461 50.9112 142.432 50.9226 142.406C50.9285 142.378 50.9407 142.352 50.9581 142.329C50.9756 142.307 50.998 142.288 51.0235 142.276L52.9228 141.142L53.0653 141.065C53.1156 141.05 53.1692 141.05 53.2196 141.065L53.8131 141.148C53.8418 141.149 53.8697 141.158 53.8945 141.172C53.9193 141.186 53.9403 141.207 53.9556 141.231C53.974 141.252 53.9878 141.276 53.9959 141.303C54.0041 141.33 54.0066 141.358 54.003 141.385L53.3442 146.496C53.3429 146.524 53.3346 146.552 53.3202 146.577C53.3057 146.602 53.2854 146.623 53.2611 146.638C53.24 146.656 53.2152 146.669 53.1886 146.676C53.1619 146.683 53.134 146.684 53.1068 146.68L52.4599 146.597C52.4315 146.594 52.4041 146.585 52.3795 146.571C52.3549 146.556 52.3337 146.537 52.3174 146.513C52.2832 146.468 52.2683 146.41 52.2759 146.353L52.7863 142.43L51.5399 143.166C51.5148 143.178 51.4874 143.184 51.4598 143.184C51.4321 143.184 51.4047 143.178 51.3796 143.166C51.3227 143.151 51.2738 143.115 51.2431 143.065L50.9226 142.572Z" fill="url(#paint17_linear_9_11944)"/>
<path id="Vector_88" d="M56.9827 147.19C56.9262 147.182 56.8751 147.152 56.8403 147.107C56.8066 147.061 56.7918 147.004 56.7987 146.947L56.9234 145.986L54.4602 145.665C54.4318 145.662 54.4044 145.654 54.3798 145.639C54.3552 145.625 54.334 145.605 54.3178 145.582C54.2995 145.56 54.2864 145.534 54.2792 145.506C54.272 145.479 54.271 145.45 54.2762 145.422L54.3474 144.858C54.3558 144.789 54.3825 144.723 54.4246 144.668L54.573 144.508L57.3923 141.789C57.4355 141.738 57.4902 141.697 57.5521 141.67C57.6139 141.643 57.6811 141.631 57.7484 141.635L58.3419 141.712C58.3986 141.721 58.4497 141.751 58.485 141.796C58.5203 141.841 58.537 141.898 58.5318 141.955L58.1164 145.131L58.7989 145.22C58.8556 145.229 58.9068 145.259 58.942 145.304C58.9773 145.349 58.9941 145.406 58.9888 145.463L58.9176 146.027C58.9095 146.084 58.8797 146.135 58.8345 146.17C58.7881 146.203 58.731 146.217 58.6743 146.211L57.9917 146.122L57.8671 147.084C57.863 147.112 57.8529 147.14 57.8376 147.164C57.8223 147.189 57.802 147.21 57.778 147.226C57.7568 147.244 57.7322 147.257 57.7057 147.265C57.6792 147.274 57.6513 147.276 57.6237 147.273L56.9827 147.19ZM57.0539 144.994L57.2735 143.291L55.7185 144.816L57.0539 144.994Z" fill="url(#paint18_linear_9_11944)"/>
<path id="Vector_89" d="M56.7096 110.184L55.4692 108.338C52.1691 114.392 48.6732 134.287 47.041 147.416C47.5277 147.636 48.0619 147.855 48.6436 148.063C49.7475 139.213 52.5965 119.093 56.7096 110.184Z" fill="url(#paint19_linear_9_11944)"/>
<path id="Vector_90" d="M43.8774 145.469C44.3559 145.887 44.8726 146.258 45.4206 146.579C46.5661 137.486 49.3854 117.959 53.4214 109.186L52.1572 107.358C48.9581 113.264 45.5512 132.34 43.8774 145.469Z" fill="url(#paint20_linear_9_11944)"/>
<path id="Vector_91" d="M102.168 49.9698C101.383 52.4835 100.121 54.8229 98.4528 56.8607C90.7785 66.3987 82.5996 72.1026 78.5517 80.4476C73.9043 79.8541 67.8681 71.8058 71.6074 67.1881C75.6671 65.7399 90.82 49.673 92.2326 47.3404C93.5087 44.901 97.8118 33.6892 98.8208 29.4514C98.9741 28.7386 98.8645 27.9945 98.5122 27.3562C97.5269 25.4925 97.6516 23.4983 97.2064 21.6108C96.8562 20.1448 96.2271 19.4563 96.5179 19.2367C96.885 19.0065 97.3254 18.9233 97.7512 19.0036C98.177 19.084 98.5568 19.3219 98.8149 19.67C99.4751 20.6042 100.047 21.5977 100.524 22.6376C100.661 20.9354 100.673 19.2254 100.56 17.5214C100.311 13.6041 101.213 10.6898 105.557 13.1827C108.288 14.7437 109.807 18.7559 108.353 25.9199C107.937 27.9854 106.78 32.2054 106.038 35.1671C104.667 40.6573 104.08 45.0019 102.168 49.9698Z" fill="#FFCDEB"/>
<path id="Vector_92" d="M69.1621 67.2001C71.0021 66.3276 73.21 65.6213 75.6375 63.6389C78.1719 61.5734 81.3236 59.2349 81.3236 59.2349C81.3236 59.2349 86.8434 63.7279 86.7129 70.3636C84.6777 72.4155 82.9108 74.7169 81.4542 77.2129C80.3574 79.1377 79.4984 81.1885 78.896 83.3204C78.896 83.3204 72.7827 84.5075 71.6668 77.9311C71.0785 74.301 70.2416 70.7156 69.1621 67.2001Z" fill="url(#paint21_linear_9_11944)"/>
<path id="Vector_93" d="M78.0711 98.8294C78.2966 96.8826 78.2373 93.2858 78.2729 92.3005C83.401 87.9262 82.2495 82.8396 80.647 79.0648C77.4004 71.515 74.1182 67.1585 70.8953 67.1348L61.9923 67.39C57.3924 67.4731 52.0803 67.7342 50.8992 67.936C47.89 68.4524 46.4892 71.4972 46.1509 74.6607C45.8067 78.1151 44.9935 78.3822 45.5574 84.1573C45.5574 84.1573 47.6288 90.0926 49.4806 95.3453C49.4806 95.3453 50.1513 99.227 49.4806 101.031C48.2461 104.373 46.4714 112.119 45.8542 117.757C45.8542 117.757 49.1245 122.393 63.9213 122.387C70.363 122.384 76.6568 120.455 81.9943 116.849L78.0711 98.8294Z" fill="url(#paint22_linear_9_11944)"/>
<path id="Vector_94" d="M47.5928 78.8509C47.5928 79.3554 47.6284 79.9015 47.6759 80.5247L80.4863 78.7441C80.237 78.1506 79.9937 77.6342 79.7503 77.106L47.5928 78.8509Z" fill="#455A64"/>
<path id="Vector_95" d="M70.8771 67.1523L61.9741 67.4076C57.3742 67.4907 52.0621 67.7518 50.881 67.9536C47.8718 68.47 48.1092 71.2002 47.7946 74.3459C47.6421 75.2443 47.5608 76.1532 47.5513 77.0643L78.9491 75.5093C76.2663 70.1794 73.5658 67.1701 70.8771 67.1523Z" fill="#455A64"/>
<path id="Vector_96" opacity="0.1" d="M53.4216 100.954C52.1515 99.8858 52.7153 97.1378 51.8785 93.7487C51.0416 90.3596 49.2491 86.6263 49.9673 84.7389C50.6855 82.8514 52.4364 79.1003 52.2227 73.6873L46.8156 71.8711C46.489 72.7867 46.2796 73.74 46.1924 74.7082C45.8482 78.1625 45.035 78.4296 45.5989 84.2047C45.5989 84.2047 47.6703 90.14 49.5221 95.3928C49.5221 95.3928 50.1928 99.2745 49.5221 101.079C48.2876 104.42 46.5129 112.166 45.8957 117.805C45.8957 117.805 49.166 122.44 63.9628 122.434H64.402C70.4501 103.957 54.6384 101.969 53.4216 100.954Z" fill="black"/>
<path id="Vector_97" opacity="0.1" d="M55.5581 88.7036C56.1994 90.0904 57.2281 91.262 58.5204 92.0771C59.8126 92.8922 61.313 93.3161 62.8407 93.2976C64.3091 93.3303 65.7602 92.9749 67.0472 92.2673C68.3343 91.5596 69.4118 90.5249 70.1709 89.2675C70.1709 89.2675 69.6248 95.0663 62.7577 94.6864C55.8905 94.3066 55.5581 88.7036 55.5581 88.7036Z" fill="black"/>
<path id="Vector_98" d="M79.9108 43.4645C80.8273 41.021 81.125 38.3886 80.7773 35.802C79.8615 36.0851 78.9301 36.315 77.9877 36.4905C78.3059 35.7483 78.6666 35.0249 79.068 34.3241C79.473 33.6189 79.6782 32.8166 79.6615 32.0034C79.6407 31.5987 79.5014 31.209 79.2607 30.8829C79.0201 30.5567 78.6889 30.3086 78.3082 30.1694C77.6033 30.0674 76.8841 30.1921 76.2546 30.5255C72.5813 31.8604 68.713 32.5803 64.8054 32.6563C57.9916 32.9649 51.1957 35.624 49.2845 41.6661C48.0975 45.4469 49.1718 50.5335 50.9642 54.9553C52.7567 59.3771 55.5344 62.6712 57.2853 63.0867L64.2653 61.8996C67.3932 62.4575 70.4024 61.223 72.7112 59.1456C73.3319 58.5846 73.9092 57.9774 74.4384 57.3294C74.9345 56.6834 75.2866 55.9386 75.4712 55.1452C76.0373 53.3218 76.4776 51.4617 76.7888 49.5779C76.8356 49.2029 76.9252 48.8345 77.0559 48.4799C77.2464 48.0942 77.4836 47.7334 77.7622 47.4056C78.6632 46.2014 79.3867 44.8742 79.9108 43.4645Z" fill="#263238"/>
<path id="Vector_99" d="M73.4889 38.7285C75.2339 39.6722 77.4952 43.8922 77.6139 52.9021C77.7089 60.5349 75.3051 62.5113 74.0824 63.0989C72.8598 63.6865 70.456 63.4432 68.1115 63.1346L68.2777 67.7166C68.2777 67.7166 68.5863 72.6073 66.7167 72.9278C61.6005 72.6073 57.2914 67.9481 57.2914 67.9481V58.2023C56.6762 58.4138 56.0131 58.4434 55.3814 58.2876C54.7498 58.1318 54.1765 57.7972 53.7302 57.3239C51.9496 55.4721 51.3561 52.9021 52.7687 51.3351C53.143 50.9627 53.6003 50.6843 54.1029 50.5227C54.6056 50.3611 55.1395 50.3209 55.6607 50.4055C56.1819 50.49 56.6757 50.6969 57.1015 51.0091C57.5273 51.3213 57.8731 51.73 58.1105 52.2017C58.1105 52.2017 59.4815 52.267 60.7576 49.6792C63.063 49.8556 65.3612 49.256 67.2865 47.9757C72.0466 44.9665 73.1209 40.2717 73.4889 38.7285Z" fill="#FFCDEB"/>
<path id="Vector_100" d="M67.6723 50.8545C67.6863 50.9824 67.6747 51.1119 67.6383 51.2353C67.6019 51.3588 67.5414 51.4738 67.4603 51.5737C67.3791 51.6736 67.279 51.7564 67.1656 51.8174C67.0522 51.8783 66.9279 51.9162 66.7998 51.9288C66.6025 51.9529 66.4025 51.9175 66.2255 51.8272C66.0484 51.7368 65.9024 51.5956 65.8062 51.4216C65.71 51.2477 65.668 51.0489 65.6855 50.8509C65.7031 50.6529 65.7794 50.4647 65.9048 50.3104C66.0301 50.1561 66.1986 50.0428 66.3888 49.985C66.579 49.9272 66.7821 49.9275 66.9721 49.986C67.1621 50.0445 67.3303 50.1584 67.455 50.3132C67.5798 50.4679 67.6555 50.6564 67.6723 50.8545Z" fill="#263238"/>
<g id="Group_4" style="mix-blend-mode:multiply" opacity="0.5">
<path id="Vector_101" d="M69.0905 57.1992L72.1176 58.048C72.0705 58.2497 71.9834 58.44 71.8613 58.6073C71.7391 58.7747 71.5846 58.9157 71.4068 59.0221C71.229 59.1284 71.0316 59.1979 70.8264 59.2263C70.6212 59.2548 70.4123 59.2416 70.2123 59.1876C69.8034 59.0672 69.4575 58.7922 69.248 58.421C69.0386 58.0497 68.9821 57.6114 69.0905 57.1992Z" fill="#F28F8F"/>
</g>
<path id="Vector_102" d="M76.2369 47.5365L74.2485 46.2604C74.3241 46.1261 74.4265 46.0087 74.5494 45.9157C74.6723 45.8227 74.813 45.7561 74.9628 45.7199C75.1126 45.6837 75.2683 45.6787 75.4201 45.7053C75.5719 45.732 75.7166 45.7896 75.8451 45.8746C76.112 46.0478 76.3016 46.3173 76.3746 46.6269C76.4476 46.9365 76.3983 47.2624 76.2369 47.5365Z" fill="#263238"/>
<path id="Vector_103" d="M66.2121 47.5362L64.0279 48.4621C63.9605 48.3226 63.9224 48.1708 63.916 48.016C63.9096 47.8612 63.935 47.7067 63.9906 47.5621C64.0462 47.4174 64.1309 47.2858 64.2394 47.1752C64.3479 47.0645 64.4779 46.9774 64.6214 46.919C64.9152 46.7988 65.2439 46.7959 65.5398 46.9107C65.8356 47.0255 66.0763 47.2494 66.2121 47.5362Z" fill="#263238"/>
<path id="Vector_104" d="M75.8097 50.3557C75.8183 50.544 75.7714 50.7306 75.6748 50.8924C75.5782 51.0542 75.4362 51.1841 75.2664 51.2659C75.0966 51.3476 74.9065 51.3777 74.7198 51.3523C74.533 51.3269 74.3579 51.2473 74.216 51.1232C74.0742 50.9991 73.972 50.836 73.9221 50.6543C73.8721 50.4726 73.8767 50.2802 73.9352 50.1011C73.9937 49.9219 74.1035 49.7639 74.2511 49.6467C74.3986 49.5295 74.5774 49.4582 74.7651 49.4417C74.894 49.432 75.0234 49.4481 75.146 49.489C75.2686 49.5299 75.3817 49.5947 75.479 49.6798C75.5762 49.7649 75.6555 49.8685 75.7123 49.9845C75.7691 50.1006 75.8022 50.2268 75.8097 50.3557Z" fill="#263238"/>
<g id="Group_5" style="mix-blend-mode:multiply" opacity="0.5">
<path id="Vector_105" d="M71.186 49.9697L71.5422 55.7389L74.5514 54.6883L71.186 49.9697Z" fill="#F28F8F"/>
</g>
<g id="Group_6" style="mix-blend-mode:multiply" opacity="0.5">
<path id="Vector_106" d="M68.1117 63.1342C65.6485 62.9027 60.5501 61.6326 59.6895 59.668C60.0416 60.6665 60.6923 61.5326 61.5531 62.1489C63.1082 63.3894 68.1651 64.6655 68.1651 64.6655L68.1117 63.1342Z" fill="#F28F8F"/>
</g>
<path id="Vector_107" d="M58.1221 52.2012L58.2705 56.2135C58.6293 56.2013 58.9822 56.1182 59.3089 55.9691C59.6355 55.82 59.9295 55.6078 60.1739 55.3447C60.4182 55.0816 60.6081 54.7728 60.7327 54.436C60.8573 54.0992 60.9141 53.7411 60.8998 53.3823L60.7692 49.6787L58.1221 52.2012Z" fill="#263238"/>
<g id="freepik--soccer-ball--inject-12">
<path id="Vector_108" d="M50.5428 132.987C58.9016 132.987 65.6778 126.211 65.6778 117.852C65.6778 109.493 58.9016 102.717 50.5428 102.717C42.1839 102.717 35.4077 109.493 35.4077 117.852C35.4077 126.211 42.1839 132.987 50.5428 132.987Z" fill="#F5F5F5"/>
<path id="Vector_109" d="M53.1955 110.48C51.0729 110.643 49.0033 111.224 47.1059 112.189C46.9159 114.227 46.9159 116.277 47.1059 118.315C48.825 119.193 50.6592 119.824 52.5545 120.19C52.5545 120.19 55.451 117.816 56.2463 115.614C55.6604 113.681 54.6135 111.919 53.1955 110.48Z" fill="#455A64"/>
<path id="Vector_110" d="M43.0524 109.619L42.625 108.771C42.5954 108.806 42.5716 108.848 42.5419 108.889L42.4707 108.978L42.8743 109.785L47.029 112.284L47.4801 112.623C47.4924 112.593 47.5083 112.565 47.5276 112.539C47.5566 112.501 47.5906 112.468 47.6285 112.439L47.1596 112.088L43.0524 109.619Z" fill="#455A64"/>
<path id="Vector_111" d="M51.6941 103.767C51.3439 103.726 50.97 103.684 50.5486 103.654C48.3416 103.501 46.1445 104.068 44.2868 105.269L43.4321 105.762C43.4711 105.832 43.4991 105.908 43.5152 105.987L44.4115 105.465C46.2273 104.292 48.374 103.738 50.5308 103.886C51.0649 103.928 51.5398 103.981 51.9552 104.04C51.8481 103.971 51.7587 103.877 51.6941 103.767Z" fill="#455A64"/>
<path id="Vector_112" d="M54.6561 105.762L54.4543 106.426L53.0891 110.439L52.7627 111.288C52.8396 111.303 52.915 111.325 52.9882 111.353L53.3087 110.516L54.6798 106.498L54.8816 105.827C54.8041 105.814 54.7284 105.792 54.6561 105.762Z" fill="#455A64"/>
<path id="Vector_113" d="M61.9506 115.745C61.7984 115.874 61.6378 115.993 61.4699 116.101C59.7434 115.805 58.0015 115.607 56.2527 115.507H56.1696C56.0622 115.508 55.955 115.518 55.8491 115.537C55.8551 115.614 55.8551 115.691 55.8491 115.768C55.9793 115.753 56.1107 115.753 56.2409 115.768C57.9939 115.865 59.7398 116.063 61.4699 116.362H61.5174H61.553C61.7168 116.263 61.8717 116.15 62.0159 116.024C61.983 115.934 61.9611 115.84 61.9506 115.745Z" fill="#455A64"/>
<path id="Vector_114" d="M59.7665 107.34C60.6924 108.225 62.4195 109.881 63.1258 112.172C63.183 112.352 63.2247 112.536 63.2505 112.724C63.3214 112.692 63.3948 112.666 63.4701 112.647C63.4441 112.464 63.4045 112.283 63.3514 112.106C62.6273 109.732 60.8704 108.07 59.9267 107.168C59.8139 107.067 59.719 106.972 59.6359 106.889C59.4492 106.708 59.2509 106.54 59.0424 106.385C59.0294 106.423 59.0114 106.459 58.9889 106.492C58.9634 106.522 58.9334 106.548 58.8999 106.569C59.0908 106.721 59.2731 106.883 59.446 107.055L59.7665 107.34Z" fill="#455A64"/>
<path id="Vector_115" d="M52.6793 120.19C52.6793 120.095 52.798 119.787 52.9523 119.371C52.8631 119.417 52.7668 119.447 52.6674 119.46C52.5309 119.846 52.4538 120.113 52.4419 120.16L53.9257 125.793H53.9613C54.0029 125.823 54.4837 126.161 55.0356 126.529H55.0891L55.3383 126.47C54.8991 126.185 54.448 125.876 54.1513 125.651L52.6793 120.19Z" fill="#455A64"/>
<path id="Vector_116" d="M63.1612 120.956C63.0485 121.235 62.9238 121.55 62.7814 121.823C61.8748 123.585 60.6234 125.147 59.1015 126.417C58.8878 126.529 58.5079 126.713 58.1162 126.885C58.1871 126.932 58.2493 126.99 58.3002 127.058C58.7513 126.862 59.1371 126.66 59.2261 126.606C60.7879 125.318 62.0704 123.725 62.995 121.924C63.1256 121.65 63.2384 121.377 63.3452 121.116C63.2786 121.069 63.2169 121.016 63.1612 120.956Z" fill="#455A64"/>
<path id="Vector_117" d="M47.7591 117.804C47.5454 117.917 47.308 118.053 47.0409 118.214C45.4479 119.273 43.9469 120.464 42.5538 121.775C42.4944 121.87 42.3045 122.202 42.0908 122.647C42.1493 122.713 42.2028 122.782 42.2511 122.855C42.4351 122.475 42.6131 122.137 42.7437 121.906C44.1227 120.598 45.6077 119.407 47.1833 118.344C47.4742 118.166 47.7353 118.024 47.9609 117.905C47.8905 117.878 47.823 117.844 47.7591 117.804Z" fill="#455A64"/>
<path id="Vector_118" d="M51.0885 129.099C50.6908 129.099 50.2398 129.058 49.7412 129.016C47.7257 128.868 45.7924 128.157 44.162 126.963H44.1323C43.8865 126.905 43.6447 126.832 43.4082 126.743C43.4082 126.826 43.4082 126.903 43.4082 126.987C43.7346 127.099 44.0017 127.165 44.0789 127.188C45.7436 128.399 47.7124 129.122 49.7649 129.278L51.0292 129.355C51.032 129.267 51.0521 129.18 51.0885 129.099Z" fill="#455A64"/>
<path id="Vector_119" d="M38.2391 119.947C38.3193 119.93 38.4022 119.93 38.4824 119.947C38.4103 119.683 38.3528 119.416 38.3103 119.146C38.1514 117.153 38.2492 115.148 38.6011 113.181C38.6719 112.82 38.7611 112.464 38.8682 112.112C38.813 112.118 38.7572 112.118 38.702 112.112H38.6189C38.5239 112.441 38.4409 112.779 38.3696 113.127C38.0115 115.12 37.9137 117.151 38.0788 119.169C38.1203 119.442 38.1738 119.704 38.2391 119.947Z" fill="#455A64"/>
<path id="Vector_120" d="M50.543 103.767C52.0535 104.383 53.4228 105.3 54.5671 106.462C56.2461 106.338 57.9338 106.51 59.5528 106.972C59.5051 106.473 59.4158 105.979 59.2857 105.494C57.0723 103.925 54.4764 102.981 51.7716 102.764C51.3397 103.07 50.9292 103.405 50.543 103.767Z" fill="#455A64"/>
<path id="Vector_121" d="M65.2152 114.148C64.6363 113.401 63.9708 112.726 63.2328 112.136C62.7984 113.555 62.2134 114.924 61.4878 116.219C62.0896 118.068 62.5558 119.959 62.8826 121.876C63.7116 121.709 64.524 121.469 65.3101 121.157C65.8231 118.845 65.7906 116.445 65.2152 114.148Z" fill="#455A64"/>
<path id="Vector_122" d="M40.4884 128.072C40.4884 128.072 42.9278 127.852 44.0911 127.057C44.0911 127.057 43.3254 124.76 42.6369 121.887C41.0788 121.111 39.593 120.198 38.1973 119.157C38.1973 119.157 37.2477 120.142 37.0103 123.27C37.8457 125.082 39.0272 126.713 40.4884 128.072Z" fill="#455A64"/>
<path id="Vector_123" d="M37.3188 110.54C37.4978 111.495 37.9051 112.393 38.5059 113.157C39.6549 111.619 41.2024 110.425 42.9811 109.703C43.3368 108.227 43.799 106.779 44.3641 105.37C43.6177 105.282 42.8654 105.254 42.1146 105.287C40.1211 106.632 38.4771 108.432 37.3188 110.54Z" fill="#455A64"/>
<path id="Vector_124" d="M59.1548 126.518C57.4214 126.463 55.7003 126.206 54.0267 125.752C52.7141 127.024 51.2741 128.158 49.7295 129.135C49.7295 129.135 50.8157 131.331 52.1392 132.138C54.0803 131.931 55.9703 131.387 57.7244 130.53C58.4486 129.294 58.9338 127.933 59.1548 126.518Z" fill="#455A64"/>
<path id="Vector_125" opacity="0.1" d="M63.5765 125.55C61.0421 129.141 51.2785 131.408 45.0524 123.33C38.8262 115.252 42.423 105.969 46.9517 103.15C44.5264 103.742 42.2852 104.925 40.4279 106.594C38.5707 108.262 37.155 110.364 36.307 112.712C35.459 115.06 35.2051 117.582 35.5679 120.052C35.9306 122.522 36.8988 124.864 38.3861 126.869C39.8734 128.875 41.8337 130.481 44.0923 131.545C46.3508 132.609 48.8375 133.097 51.3307 132.967C53.8239 132.837 56.2462 132.093 58.3818 130.799C60.5174 129.506 62.3 127.705 63.5706 125.556L63.5765 125.55Z" fill="black"/>
</g>
<path id="Vector_126" d="M45.9902 123.93C46.7677 124.179 48.3643 124.482 48.6789 123.514C48.9934 122.547 47.6758 122.369 46.7558 121.449C45.7702 120.399 44.7238 119.408 43.622 118.481C42.2153 117.377 40.3754 117.223 39.7284 115.994C39.034 114.985 35.7636 100.521 34.903 96.5857C39.2892 91.4635 43.2718 87.1426 46.5362 83.2372C46.5362 83.2372 51.1242 74.168 50.9521 68.3098C48.3584 67.4789 45.367 67.7994 40.5712 72.9038C36.0306 77.794 31.7739 82.9404 27.8222 88.3178C23.6674 94.0394 23.3173 93.8792 24.8545 99.6483C26.7924 106.486 29.2122 113.178 32.0956 119.674C33.8762 123.437 34.4697 124.725 36.0901 127.348C37.568 129.723 40.7671 132.346 42.5121 132.904C45.1117 133.723 48.7323 133.284 48.946 130.666C49.1596 128.049 44.3461 125.431 43.6042 122.778C44.3616 123.236 45.1605 123.622 45.9902 123.93Z" fill="#FFCDEB"/>
<path id="Vector_127" d="M51.6467 67.8586C51.6467 67.8586 46.851 67.4491 44.5837 69.111C42.3164 70.7728 41.0225 71.8768 36.7906 76.4114C35.2474 78.0792 33.3481 80.4474 33.3481 80.4474C33.3481 80.4474 35.7223 87.5698 42.7556 88.7034L49.4744 81.9609C51.1244 80.1803 53.3442 74.5062 51.6467 67.8586Z" fill="url(#paint23_linear_9_11944)"/>
</g>
</g>
<g id="freepik--Lines--inject-12">
<g id="freepik--lines--inject-12">
<path id="Vector_128" d="M132.049 32.5375C131.892 32.5388 131.739 32.4978 131.604 32.4188L127.301 29.9319C127.096 29.8139 126.947 29.6193 126.885 29.3912C126.824 29.163 126.856 28.9198 126.974 28.7152C127.092 28.5105 127.287 28.3612 127.515 28.3C127.743 28.2387 127.986 28.2707 128.191 28.3887L132.494 30.8756C132.664 30.9735 132.797 31.1248 132.872 31.306C132.947 31.4871 132.961 31.6881 132.91 31.8776C132.859 32.0671 132.747 32.2345 132.591 32.3538C132.436 32.4732 132.245 32.5377 132.049 32.5375Z" fill="url(#paint24_linear_9_11944)"/>
<path id="Vector_129" d="M134.999 22.6077H129.568C129.332 22.6077 129.105 22.5139 128.938 22.347C128.772 22.18 128.678 21.9536 128.678 21.7174C128.678 21.4813 128.772 21.2549 128.938 21.0879C129.105 20.9209 129.332 20.8271 129.568 20.8271H134.999C135.235 20.8271 135.461 20.9209 135.628 21.0879C135.795 21.2549 135.889 21.4813 135.889 21.7174C135.889 21.9536 135.795 22.18 135.628 22.347C135.461 22.5139 135.235 22.6077 134.999 22.6077Z" fill="url(#paint25_linear_9_11944)"/>
<path id="Vector_130" d="M127.17 15.4852C126.974 15.4854 126.783 15.4208 126.627 15.3015C126.472 15.1821 126.36 15.0147 126.309 14.8252C126.258 14.6358 126.272 14.4348 126.347 14.2536C126.422 14.0724 126.555 13.9212 126.725 13.8233L132.274 10.6182C132.376 10.5598 132.488 10.5218 132.604 10.5066C132.72 10.4914 132.837 10.4991 132.95 10.5295C133.063 10.5598 133.169 10.612 133.262 10.6833C133.355 10.7545 133.433 10.8433 133.491 10.9447C133.55 11.046 133.588 11.1578 133.603 11.2738C133.618 11.3898 133.61 11.5077 133.58 11.6206C133.55 11.7336 133.497 11.8395 133.426 11.9323C133.355 12.0251 133.266 12.103 133.165 12.1614L127.615 15.3665C127.48 15.4449 127.326 15.4859 127.17 15.4852Z" fill="url(#paint26_linear_9_11944)"/>
<path id="Vector_131" d="M122.018 10.2209C121.862 10.2222 121.708 10.1812 121.573 10.1022C121.376 9.98449 121.232 9.79534 121.172 9.5742C121.111 9.35305 121.138 9.11696 121.247 8.91515L124.309 3.6149C124.363 3.50538 124.439 3.40808 124.532 3.32906C124.625 3.25003 124.733 3.19097 124.85 3.15554C124.967 3.12011 125.089 3.10906 125.211 3.12309C125.332 3.13711 125.449 3.17591 125.554 3.23707C125.66 3.29823 125.752 3.38044 125.824 3.47861C125.897 3.57678 125.948 3.6888 125.976 3.80772C126.003 3.92664 126.006 4.04992 125.984 4.16991C125.961 4.28989 125.915 4.40402 125.846 4.5052L122.79 9.80544C122.708 9.93536 122.594 10.0419 122.459 10.1147C122.323 10.1875 122.172 10.2241 122.018 10.2209Z" fill="url(#paint27_linear_9_11944)"/>
<path id="Vector_132" d="M97.6774 32.5375C97.4813 32.5377 97.2905 32.4732 97.1348 32.3538C96.9791 32.2345 96.8672 32.0671 96.8164 31.8776C96.7657 31.6881 96.7789 31.4871 96.8541 31.306C96.9293 31.1248 97.0623 30.9735 97.2323 30.8756L101.535 28.3887C101.74 28.2707 101.983 28.2387 102.211 28.3C102.44 28.3612 102.634 28.5105 102.752 28.7152C102.87 28.9198 102.902 29.163 102.841 29.3912C102.78 29.6193 102.63 29.8139 102.426 29.9319L98.1226 32.4188C97.9874 32.4973 97.8337 32.5383 97.6774 32.5375Z" fill="url(#paint28_linear_9_11944)"/>
<path id="Vector_133" d="M100.153 22.6077H94.7218C94.4857 22.6077 94.2593 22.5139 94.0923 22.347C93.9253 22.18 93.8315 21.9536 93.8315 21.7174C93.8315 21.4813 93.9253 21.2549 94.0923 21.0879C94.2593 20.9209 94.4857 20.8271 94.7218 20.8271H100.153C100.389 20.8271 100.615 20.9209 100.782 21.0879C100.949 21.2549 101.043 21.4813 101.043 21.7174C101.043 21.9536 100.949 22.18 100.782 22.347C100.615 22.5139 100.389 22.6077 100.153 22.6077Z" fill="url(#paint29_linear_9_11944)"/>
<path id="Vector_134" d="M102.557 15.4854C102.4 15.4861 102.247 15.4451 102.112 15.3667L96.5501 12.1853C96.4488 12.1269 96.36 12.049 96.2887 11.9562C96.2175 11.8635 96.1652 11.7576 96.1349 11.6446C96.1046 11.5316 96.0968 11.4137 96.1121 11.2978C96.1273 11.1818 96.1652 11.0699 96.2237 10.9686C96.2821 10.8673 96.36 10.7784 96.4528 10.7072C96.5456 10.636 96.6515 10.5837 96.7644 10.5534C96.8774 10.5231 96.9953 10.5153 97.1113 10.5305C97.2273 10.5458 97.3391 10.5837 97.4404 10.6422L102.996 13.8472C103.166 13.9451 103.299 14.0964 103.374 14.2776C103.449 14.4587 103.462 14.6597 103.412 14.8492C103.361 15.0387 103.249 15.2061 103.093 15.3254C102.938 15.4448 102.747 15.5093 102.551 15.5091L102.557 15.4854Z" fill="url(#paint30_linear_9_11944)"/>
<path id="Vector_135" d="M107.708 10.2205C107.552 10.2206 107.398 10.1795 107.263 10.1014C107.127 10.0232 107.015 9.91077 106.937 9.77535L103.874 4.4751C103.816 4.37378 103.778 4.26193 103.762 4.14594C103.747 4.02996 103.755 3.91211 103.785 3.79912C103.847 3.57094 103.996 3.37642 104.201 3.25836C104.405 3.1403 104.648 3.10837 104.877 3.16959C105.105 3.23081 105.299 3.38017 105.417 3.58481L108.48 8.88505C108.589 9.08687 108.616 9.32295 108.555 9.5441C108.494 9.76524 108.35 9.95439 108.153 10.0721C108.021 10.161 107.867 10.2123 107.708 10.2205Z" fill="url(#paint31_linear_9_11944)"/>
<path id="Vector_136" d="M114.861 9.04543C114.624 9.04543 114.398 8.95163 114.231 8.78467C114.064 8.6177 113.97 8.39125 113.97 8.15513V0.890298C113.97 0.654176 114.064 0.427726 114.231 0.260763C114.398 0.0937994 114.624 0 114.861 0C115.097 0 115.323 0.0937994 115.49 0.260763C115.657 0.427726 115.751 0.654176 115.751 0.890298V8.15513C115.751 8.39125 115.657 8.6177 115.49 8.78467C115.323 8.95163 115.097 9.04543 114.861 9.04543Z" fill="url(#paint32_linear_9_11944)"/>
</g>
</g>
</g>
<defs>
<linearGradient id="paint0_linear_9_11944" x1="163.534" y1="209.541" x2="163.534" y2="249.64" gradientUnits="userSpaceOnUse">
<stop stop-color="#2F29F5"/>
<stop offset="1" stop-color="#2F29F5" stop-opacity="0"/>
</linearGradient>
<linearGradient id="paint1_linear_9_11944" x1="49.4864" y1="209.541" x2="49.4864" y2="249.64" gradientUnits="userSpaceOnUse">
<stop stop-color="#2F29F5"/>
<stop offset="1" stop-color="#2F29F5" stop-opacity="0"/>
</linearGradient>
<linearGradient id="paint2_linear_9_11944" x1="164.972" y1="167.256" x2="173.638" y2="167.265" gradientUnits="userSpaceOnUse">
<stop stop-color="#2941FF"/>
<stop offset="1" stop-color="#5E7EF4"/>
</linearGradient>
<linearGradient id="paint3_linear_9_11944" x1="125.571" y1="174.409" x2="148.567" y2="174.484" gradientUnits="userSpaceOnUse">
<stop stop-color="#2941FF"/>
<stop offset="1" stop-color="#5E7EF4"/>
</linearGradient>
<linearGradient id="paint4_linear_9_11944" x1="143.656" y1="211.597" x2="161.869" y2="211.616" gradientUnits="userSpaceOnUse">
<stop stop-color="#2941FF"/>
<stop offset="1" stop-color="#5E7EF4"/>
</linearGradient>
<linearGradient id="paint5_linear_9_11944" x1="188.522" y1="167.681" x2="211.27" y2="167.713" gradientUnits="userSpaceOnUse">
<stop stop-color="#2941FF"/>
<stop offset="1" stop-color="#5E7EF4"/>
</linearGradient>
<linearGradient id="paint6_linear_9_11944" x1="159.81" y1="132.95" x2="165.91" y2="132.952" gradientUnits="userSpaceOnUse">
<stop stop-color="#2941FF"/>
<stop offset="1" stop-color="#5E7EF4"/>
</linearGradient>
<linearGradient id="paint7_linear_9_11944" x1="163.248" y1="132.308" x2="168.758" y2="132.309" gradientUnits="userSpaceOnUse">
<stop stop-color="#2941FF"/>
<stop offset="1" stop-color="#5E7EF4"/>
</linearGradient>
<linearGradient id="paint8_linear_9_11944" x1="126.752" y1="70.6041" x2="150.962" y2="70.6437" gradientUnits="userSpaceOnUse">
<stop stop-color="#2941FF"/>
<stop offset="1" stop-color="#5E7EF4"/>
</linearGradient>
<linearGradient id="paint9_linear_9_11944" x1="129.127" y1="91.225" x2="180.921" y2="91.3043" gradientUnits="userSpaceOnUse">
<stop stop-color="#2941FF"/>
<stop offset="1" stop-color="#5E7EF4"/>
</linearGradient>
<linearGradient id="paint10_linear_9_11944" x1="161.737" y1="78.6096" x2="187.602" y2="78.6582" gradientUnits="userSpaceOnUse">
<stop stop-color="#2941FF"/>
<stop offset="1" stop-color="#5E7EF4"/>
</linearGradient>
<linearGradient id="paint11_linear_9_11944" x1="150.999" y1="150.721" x2="155.629" y2="150.726" gradientUnits="userSpaceOnUse">
<stop stop-color="#2941FF"/>
<stop offset="1" stop-color="#5E7EF4"/>
</linearGradient>
<linearGradient id="paint12_linear_9_11944" x1="154.973" y1="151.117" x2="161.621" y2="151.129" gradientUnits="userSpaceOnUse">
<stop stop-color="#2941FF"/>
<stop offset="1" stop-color="#5E7EF4"/>
</linearGradient>
<linearGradient id="paint13_linear_9_11944" x1="64.8168" y1="170.817" x2="87.0102" y2="170.907" gradientUnits="userSpaceOnUse">
<stop stop-color="#2941FF"/>
<stop offset="1" stop-color="#5E7EF4"/>
</linearGradient>
<linearGradient id="paint14_linear_9_11944" x1="52.6363" y1="211.672" x2="70.848" y2="211.691" gradientUnits="userSpaceOnUse">
<stop stop-color="#2941FF"/>
<stop offset="1" stop-color="#5E7EF4"/>
</linearGradient>
<linearGradient id="paint15_linear_9_11944" x1="34.5812" y1="160.122" x2="50.6186" y2="160.151" gradientUnits="userSpaceOnUse">
<stop stop-color="#2941FF"/>
<stop offset="1" stop-color="#5E7EF4"/>
</linearGradient>
<linearGradient id="paint16_linear_9_11944" x1="0.0579392" y1="187.855" x2="23.777" y2="187.889" gradientUnits="userSpaceOnUse">
<stop stop-color="#2941FF"/>
<stop offset="1" stop-color="#5E7EF4"/>
</linearGradient>
<linearGradient id="paint17_linear_9_11944" x1="50.6834" y1="143.358" x2="54.9583" y2="143.363" gradientUnits="userSpaceOnUse">
<stop stop-color="#2941FF"/>
<stop offset="1" stop-color="#5E7EF4"/>
</linearGradient>
<linearGradient id="paint18_linear_9_11944" x1="53.9353" y1="143.943" x2="60.4412" y2="143.955" gradientUnits="userSpaceOnUse">
<stop stop-color="#2941FF"/>
<stop offset="1" stop-color="#5E7EF4"/>
</linearGradient>
<linearGradient id="paint19_linear_9_11944" x1="46.3488" y1="124.6" x2="59.6847" y2="124.608" gradientUnits="userSpaceOnUse">
<stop stop-color="#2941FF"/>
<stop offset="1" stop-color="#5E7EF4"/>
</linearGradient>
<linearGradient id="paint20_linear_9_11944" x1="43.1942" y1="123.414" x2="56.3582" y2="123.421" gradientUnits="userSpaceOnUse">
<stop stop-color="#2941FF"/>
<stop offset="1" stop-color="#5E7EF4"/>
</linearGradient>
<linearGradient id="paint21_linear_9_11944" x1="67.9055" y1="69.129" x2="92.1163" y2="69.1686" gradientUnits="userSpaceOnUse">
<stop stop-color="#2941FF"/>
<stop offset="1" stop-color="#5E7EF4"/>
</linearGradient>
<linearGradient id="paint22_linear_9_11944" x1="42.7405" y1="89.7533" x2="93.2801" y2="89.8288" gradientUnits="userSpaceOnUse">
<stop stop-color="#2941FF"/>
<stop offset="1" stop-color="#5E7EF4"/>
</linearGradient>
<linearGradient id="paint23_linear_9_11944" x1="31.9945" y1="76.3655" x2="58.0734" y2="76.4187" gradientUnits="userSpaceOnUse">
<stop stop-color="#2941FF"/>
<stop offset="1" stop-color="#5E7EF4"/>
</linearGradient>
<linearGradient id="paint24_linear_9_11944" x1="126.419" y1="30.0167" x2="134.813" y2="30.0437" gradientUnits="userSpaceOnUse">
<stop stop-color="#2941FF"/>
<stop offset="1" stop-color="#5E7EF4"/>
</linearGradient>
<linearGradient id="paint25_linear_9_11944" x1="128.161" y1="21.5561" x2="138.107" y2="21.6468" gradientUnits="userSpaceOnUse">
<stop stop-color="#2941FF"/>
<stop offset="1" stop-color="#5E7EF4"/>
</linearGradient>
<linearGradient id="paint26_linear_9_11944" x1="125.754" y1="12.5402" x2="135.866" y2="12.5737" gradientUnits="userSpaceOnUse">
<stop stop-color="#2941FF"/>
<stop offset="1" stop-color="#5E7EF4"/>
</linearGradient>
<linearGradient id="paint27_linear_9_11944" x1="120.792" y1="6.02533" x2="127.494" y2="6.03565" gradientUnits="userSpaceOnUse">
<stop stop-color="#2941FF"/>
<stop offset="1" stop-color="#5E7EF4"/>
</linearGradient>
<linearGradient id="paint28_linear_9_11944" x1="96.3505" y1="30.0167" x2="104.744" y2="30.0437" gradientUnits="userSpaceOnUse">
<stop stop-color="#2941FF"/>
<stop offset="1" stop-color="#5E7EF4"/>
</linearGradient>
<linearGradient id="paint29_linear_9_11944" x1="93.3153" y1="21.5561" x2="103.261" y2="21.6468" gradientUnits="userSpaceOnUse">
<stop stop-color="#2941FF"/>
<stop offset="1" stop-color="#5E7EF4"/>
</linearGradient>
<linearGradient id="paint30_linear_9_11944" x1="95.5792" y1="12.5641" x2="105.7" y2="12.5977" gradientUnits="userSpaceOnUse">
<stop stop-color="#2941FF"/>
<stop offset="1" stop-color="#5E7EF4"/>
</linearGradient>
<linearGradient id="paint31_linear_9_11944" x1="103.409" y1="6.03805" x2="110.074" y2="6.0483" gradientUnits="userSpaceOnUse">
<stop stop-color="#2941FF"/>
<stop offset="1" stop-color="#5E7EF4"/>
</linearGradient>
<linearGradient id="paint32_linear_9_11944" x1="113.843" y1="3.70294" x2="116.299" y2="3.70403" gradientUnits="userSpaceOnUse">
<stop stop-color="#2941FF"/>
<stop offset="1" stop-color="#5E7EF4"/>
</linearGradient>
</defs>
</svg>
