<svg width="25" height="24" viewBox="0 0 25 24" fill="none" xmlns="http://www.w3.org/2000/svg">
<g id="vuesax/outline/arrow-right">
<g id="vuesax/outline/arrow-right_2">
<g id="arrow-right">
<path id="Vector" d="M3.82998 8.9101C3.82998 8.7201 3.89998 8.5301 4.04998 8.3801C4.33998 8.0901 4.81998 8.0901 5.10998 8.3801L11.63 14.9001C12.11 15.3801 12.89 15.3801 13.37 14.9001L19.89 8.3801C20.18 8.0901 20.66 8.0901 20.95 8.3801C21.24 8.6701 21.24 9.1501 20.95 9.4401L14.43 15.9601C13.92 16.4701 13.23 16.7601 12.5 16.7601C11.77 16.7601 11.08 16.4801 10.57 15.9601L4.04998 9.4401C3.90998 9.2901 3.82998 9.1001 3.82998 8.9101Z" fill="#267CFA"/>
</g>
</g>
</g>
</svg>
