<svg width="20" height="20" viewBox="0 0 20 20" fill="none" xmlns="http://www.w3.org/2000/svg">
<g id="Regular/cross-small">
<path id="vector" d="M10.0001 2.92893C9.77913 2.92897 9.56722 3.01676 9.41097 3.17301C9.25472 3.32926 9.16693 3.54117 9.1669 3.76214L9.1669 9.16679L3.76224 9.16679C3.54127 9.16683 3.32936 9.25462 3.17311 9.41087C3.01686 9.56712 2.92907 9.77903 2.92904 10C2.92907 10.221 3.01686 10.4329 3.17311 10.5891C3.32936 10.7454 3.54127 10.8332 3.76224 10.8332L9.1669 10.8332L9.1669 16.2379C9.16693 16.4588 9.25472 16.6707 9.41097 16.827C9.56722 16.9832 9.77913 17.071 10.0001 17.0711C10.2211 17.071 10.433 16.9832 10.5892 16.827C10.7455 16.6707 10.8333 16.4588 10.8333 16.2379L10.8333 10.8332L16.238 10.8332C16.4589 10.8332 16.6708 10.7454 16.8271 10.5891C16.9833 10.4329 17.0711 10.221 17.0712 10C17.0711 9.77903 16.9833 9.56712 16.8271 9.41087C16.6708 9.25462 16.4589 9.16683 16.238 9.16679L10.8333 9.16679L10.8333 3.76214C10.8333 3.54117 10.7455 3.32926 10.5892 3.17301C10.433 3.01676 10.2211 2.92897 10.0001 2.92893Z" fill="#0C1A30"/>
</g>
</svg>
