<svg width="20" height="20" viewBox="0 0 20 20" fill="none" xmlns="http://www.w3.org/2000/svg">
<g id="Regular/marker-time" clip-path="url(#clip0_1_5296)">
<path id="vector" d="M9.9999 19.9999C8.81328 20.0025 7.67334 19.5379 6.82657 18.7066L3.54157 15.6708C2.6706 14.8253 1.97622 13.8152 1.49874 12.6992C1.02126 11.5832 0.770187 10.3835 0.760083 9.16972C0.74998 7.95592 0.981052 6.75219 1.43989 5.62841C1.89873 4.50462 2.57619 3.48315 3.43296 2.62329C4.28974 1.76343 5.30876 1.08229 6.43088 0.619411C7.55301 0.156531 8.7559 -0.0788733 9.96973 -0.0731399C11.1836 -0.0674065 12.3842 0.17935 13.5019 0.65281C14.6196 1.12627 15.6321 1.817 16.4807 2.68492C18.1997 4.40399 19.1654 6.73551 19.1654 9.16659C19.1654 11.5977 18.1997 13.9292 16.4807 15.6483L13.1549 18.7224C12.3116 19.5457 11.1784 20.0045 9.9999 19.9999ZM9.9999 1.66659C8.51653 1.66657 7.06647 2.10643 5.83309 2.93054C4.59971 3.75465 3.6384 4.926 3.07074 6.29645C2.50308 7.66691 2.35455 9.17492 2.64395 10.6298C2.93334 12.0846 3.64766 13.421 4.69657 14.4699L7.9749 17.4999C8.51718 18.0181 9.23753 18.3086 9.98758 18.3115C10.7376 18.3145 11.4602 18.0296 12.0066 17.5158L15.3266 14.4474C16.7228 13.0387 17.5041 11.1342 17.4996 9.15076C17.4951 7.16733 16.705 5.26646 15.3024 3.86409C14.6078 3.16537 13.7815 2.61138 12.8713 2.23418C11.9611 1.85698 10.9851 1.66406 9.9999 1.66659ZM9.9999 14.9999C8.84618 14.9999 7.71836 14.6578 6.75907 14.0168C5.79979 13.3759 5.05211 12.4648 4.6106 11.3989C4.16909 10.333 4.05357 9.16012 4.27865 8.02856C4.50373 6.89701 5.0593 5.8576 5.87511 5.0418C6.69092 4.22599 7.73032 3.67042 8.86187 3.44534C9.99343 3.22026 11.1663 3.33578 12.2322 3.77729C13.2981 4.2188 14.2092 4.96647 14.8501 5.92576C15.4911 6.88505 15.8332 8.01286 15.8332 9.16659C15.8315 10.7131 15.2163 12.1958 14.1227 13.2894C13.0292 14.383 11.5465 14.9982 9.9999 14.9999ZM9.9999 4.99992C9.17581 4.99992 8.37023 5.24429 7.68502 5.70213C6.99982 6.15997 6.46577 6.81071 6.1504 7.57207C5.83504 8.33343 5.75252 9.17121 5.91329 9.97946C6.07407 10.7877 6.4709 11.5301 7.05362 12.1129C7.63634 12.6956 8.37877 13.0924 9.18702 13.2532C9.99528 13.414 10.8331 13.3315 11.5944 13.0161C12.3558 12.7007 13.0065 12.1667 13.4644 11.4815C13.9222 10.7963 14.1666 9.99068 14.1666 9.16659C14.1652 8.06192 13.7258 7.00289 12.9447 6.22177C12.1636 5.44066 11.1046 5.00124 9.9999 4.99992ZM11.4224 10.5891C11.5786 10.4328 11.6664 10.2209 11.6664 9.99992C11.6664 9.77895 11.5786 9.56703 11.4224 9.41075L10.8332 8.82159V7.49992C10.8332 7.27891 10.7454 7.06695 10.5892 6.91067C10.4329 6.75438 10.2209 6.66659 9.9999 6.66659C9.77889 6.66659 9.56692 6.75438 9.41064 6.91067C9.25436 7.06695 9.16657 7.27891 9.16657 7.49992V9.16659C9.16661 9.38758 9.25444 9.59951 9.41073 9.75575L10.2441 10.5891C10.4003 10.7453 10.6123 10.8331 10.8332 10.8331C11.0542 10.8331 11.2661 10.7453 11.4224 10.5891Z" fill="#838589"/>
</g>
<defs>
<clipPath id="clip0_1_5296">
<rect width="20" height="20" fill="white"/>
</clipPath>
</defs>
</svg>
