<svg width="20" height="20" viewBox="0 0 20 20" fill="none" xmlns="http://www.w3.org/2000/svg">
<g id="Iconly/Bold/Shield Done">
<g id="Shield Done">
<path id="Shield Done_2" fill-rule="evenodd" clip-rule="evenodd" d="M9.77325 18.2612C9.86553 18.3094 9.96872 18.334 10.0719 18.3331C10.1751 18.3323 10.2775 18.307 10.3706 18.258L13.3438 16.6686C14.187 16.2191 14.8472 15.7166 15.3623 15.1315C16.4823 13.8567 17.0939 12.2297 17.083 10.552L17.0478 5.01816C17.0444 4.38076 16.6258 3.81201 16.0066 3.60527L10.4755 1.74947C10.1424 1.6367 9.77744 1.63916 9.45025 1.75519L3.94004 3.67718C3.32425 3.8921 2.91317 4.46493 2.91652 5.10314L2.95176 10.6329C2.96267 12.313 3.59523 13.9327 4.73369 15.1944C5.25383 15.7713 5.91996 16.2665 6.77233 16.7086L9.77325 18.2612ZM8.98614 11.7573C9.11031 11.8766 9.27139 11.9354 9.43246 11.9338C9.59354 11.933 9.75378 11.8725 9.87627 11.7516L13.1255 8.54825C13.3697 8.30718 13.3671 7.91985 13.1205 7.68205C12.873 7.44425 12.4745 7.44589 12.2304 7.68695L9.42324 10.4539L8.27388 9.34908C8.02639 9.11128 7.62873 9.11373 7.38375 9.3548C7.13962 9.59586 7.14214 9.9832 7.38963 10.221L8.98614 11.7573Z" fill="#3669C9"/>
</g>
</g>
</svg>
