<svg width="40" height="40" viewBox="0 0 40 40" fill="none" xmlns="http://www.w3.org/2000/svg">
<g id="flat-color-icons:google">
<path id="Vector" d="M36.3425 16.736H35V16.6668H20V23.3335H29.4192C28.045 27.2143 24.3525 30.0002 20 30.0002C14.4775 30.0002 10 25.5227 10 20.0002C10 14.4777 14.4775 10.0002 20 10.0002C22.5492 10.0002 24.8683 10.9618 26.6342 12.5327L31.3483 7.8185C28.3717 5.04433 24.39 3.3335 20 3.3335C10.7958 3.3335 3.33333 10.796 3.33333 20.0002C3.33333 29.2043 10.7958 36.6668 20 36.6668C29.2042 36.6668 36.6667 29.2043 36.6667 20.0002C36.6667 18.8827 36.5517 17.7918 36.3425 16.736Z" fill="#FFC107"/>
<path id="Vector_2" d="M5.255 12.2427L10.7308 16.2585C12.2125 12.5902 15.8008 10.0002 20 10.0002C22.5492 10.0002 24.8683 10.9618 26.6342 12.5327L31.3483 7.8185C28.3717 5.04433 24.39 3.3335 20 3.3335C13.5983 3.3335 8.04667 6.94766 5.255 12.2427Z" fill="#FF3D00"/>
<path id="Vector_3" d="M20 36.6668C24.305 36.6668 28.2167 35.0193 31.1742 32.3401L26.0158 27.9751C24.2863 29.2904 22.1729 30.0018 20 30.0001C15.665 30.0001 11.9842 27.2359 10.5975 23.3784L5.1625 27.5659C7.92083 32.9634 13.5225 36.6668 20 36.6668Z" fill="#4CAF50"/>
<path id="Vector_4" d="M36.3425 16.7357H35V16.6665H20V23.3332H29.4192C28.7618 25.1802 27.5778 26.7942 26.0133 27.9757L26.0158 27.974L31.1742 32.339C30.8092 32.6707 36.6667 28.3332 36.6667 19.9998C36.6667 18.8823 36.5517 17.7915 36.3425 16.7357Z" fill="#1976D2"/>
</g>
</svg>
