<svg width="20" height="20" viewBox="0 0 20 20" fill="none" xmlns="http://www.w3.org/2000/svg">
<g id="vuesax/outline/card-pos">
<g id="card-pos">
<path id="Vector" d="M3.27502 13.8586C3.11668 13.8586 2.95835 13.8003 2.83335 13.6753C2.59168 13.4336 2.59168 13.0336 2.83335 12.7919L12.7917 2.83359C13.0333 2.59193 13.4333 2.59193 13.675 2.83359C13.9167 3.07526 13.9167 3.47526 13.675 3.71693L3.71668 13.6836C3.60002 13.8003 3.43335 13.8586 3.27502 13.8586Z" fill="black"/>
<path id="Vector_2" d="M9.25011 15.8583C9.09178 15.8583 8.93345 15.7999 8.80845 15.6749C8.56678 15.4333 8.56678 15.0333 8.80845 14.7916L9.80845 13.7916C10.0501 13.5499 10.4501 13.5499 10.6918 13.7916C10.9334 14.0333 10.9334 14.4333 10.6918 14.6749L9.69178 15.6749C9.57511 15.7916 9.41678 15.8583 9.25011 15.8583Z" fill="black"/>
<path id="Vector_3" d="M11.4916 13.6165C11.3332 13.6165 11.1749 13.5582 11.0499 13.4332C10.8082 13.1915 10.8082 12.7915 11.0499 12.5499L13.0416 10.5582C13.2832 10.3165 13.6832 10.3165 13.9249 10.5582C14.1666 10.7999 14.1666 11.1999 13.9249 11.4415L11.9332 13.4332C11.8166 13.5499 11.6499 13.6165 11.4916 13.6165Z" fill="black"/>
<path id="Vector_4" d="M9.25009 18.9584C8.43343 18.9584 7.61676 18.4584 6.62509 17.4668L2.53342 13.3751C0.541758 11.3834 0.550091 10.1001 2.55842 8.09176L8.09176 2.55842C10.1001 0.550091 11.3834 0.541758 13.3751 2.53342L17.4668 6.62509C19.4584 8.61676 19.4501 9.90009 17.4418 11.9084L11.9084 17.4418C10.9001 18.4501 10.0751 18.9584 9.25009 18.9584ZM10.7501 2.29176C10.3168 2.29176 9.76676 2.65009 8.97509 3.44176L3.44176 8.97509C2.65009 9.76676 2.29176 10.3168 2.29176 10.7418C2.29176 11.1751 2.62509 11.7001 3.41676 12.4918L7.50843 16.5834C8.30009 17.3751 8.81676 17.7084 9.25009 17.7084C9.25009 17.7084 9.25009 17.7084 9.25842 17.7084C9.69176 17.7084 10.2334 17.3501 11.0251 16.5584L16.5584 11.0251C17.3501 10.2334 17.7084 9.68342 17.7084 9.25842C17.7084 8.82509 17.3751 8.30009 16.5834 7.50843L12.4918 3.41676C11.7084 2.62509 11.1834 2.29176 10.7501 2.29176Z" fill="black"/>
<path id="Vector_5" d="M18.3334 18.958H1.66675C1.32508 18.958 1.04175 18.6747 1.04175 18.333C1.04175 17.9913 1.32508 17.708 1.66675 17.708H18.3334C18.6751 17.708 18.9584 17.9913 18.9584 18.333C18.9584 18.6747 18.6751 18.958 18.3334 18.958Z" fill="black"/>
</g>
</g>
</svg>
