<svg width="14" height="14" viewBox="0 0 14 14" fill="none" xmlns="http://www.w3.org/2000/svg">
<g id="Group 750">
<path id="Vector" d="M13.4991 4.30416C13.4673 3.60816 13.3568 3.13286 13.1951 2.71702C13.031 2.28073 12.7736 1.88554 12.441 1.55889C12.1144 1.22626 11.7191 0.968755 11.2829 0.804534C10.8669 0.643007 10.3917 0.532562 9.69572 0.500935C8.99843 0.469008 8.77564 0.461426 6.99994 0.461426C5.22423 0.461426 5.00145 0.469008 4.30416 0.500735C3.60816 0.532562 3.13296 0.643107 2.71702 0.804734C2.28073 0.968855 1.88554 1.22626 1.55889 1.55889C1.22626 1.88544 0.968755 2.28063 0.804534 2.71692C0.643007 3.13286 0.532562 3.60816 0.500935 4.30406C0.469008 5.00145 0.461426 5.22414 0.461426 6.99984C0.461426 8.77564 0.469008 8.99843 0.500935 9.69572C0.532661 10.3916 0.643206 10.8669 0.804833 11.2829C0.968955 11.719 1.22636 12.1143 1.55899 12.4409C1.88554 12.7735 2.28083 13.0309 2.71712 13.195C3.13296 13.3568 3.60826 13.4672 4.30426 13.499C5.00165 13.5309 5.22433 13.5383 7.00004 13.5383C8.77574 13.5383 8.99852 13.5309 9.69582 13.499C10.3918 13.4672 10.867 13.3568 11.283 13.195C12.1612 12.8554 12.8555 12.1611 13.1951 11.2829C13.3569 10.8669 13.4673 10.3916 13.4991 9.69572C13.5309 8.99833 13.5384 8.77564 13.5384 6.99994C13.5384 5.22414 13.5309 5.00145 13.4991 4.30416V4.30416ZM12.3222 9.64214C12.2931 10.2797 12.1866 10.6259 12.0971 10.8562C11.8771 11.4265 11.4264 11.8772 10.8561 12.0972C10.6258 12.1867 10.2796 12.2932 9.64204 12.3223C8.95273 12.3538 8.74591 12.3604 6.99994 12.3604C5.25387 12.3604 5.04714 12.3538 4.35773 12.3223C3.72031 12.2932 3.3741 12.1867 3.14364 12.0972C2.85969 11.9923 2.60278 11.8252 2.39187 11.608C2.17467 11.3971 2.00756 11.1403 1.9027 10.8562C1.81321 10.6259 1.70665 10.2797 1.67762 9.64214C1.64619 8.95273 1.63951 8.74591 1.63951 7.00004C1.63951 5.25407 1.64619 5.04734 1.67762 4.35783C1.70675 3.72031 1.81321 3.3741 1.9027 3.14374C2.00756 2.85969 2.17477 2.60278 2.39187 2.39187C2.60278 2.17467 2.85969 2.00756 3.14374 1.9028C3.3741 1.81321 3.72031 1.70675 4.35783 1.67762C5.04724 1.64619 5.25407 1.63951 6.99994 1.63951H6.99984C8.74571 1.63951 8.95253 1.64619 9.64204 1.67772C10.2796 1.70675 10.6257 1.81331 10.8561 1.9028C11.1401 2.00766 11.397 2.17477 11.6079 2.39187C11.8251 2.60278 11.9922 2.85969 12.097 3.14374C12.1866 3.3741 12.2931 3.72031 12.3222 4.35783C12.3536 5.04724 12.3603 5.25407 12.3603 6.99994C12.3603 8.74591 12.3537 8.95263 12.3222 9.64214Z" fill="white"/>
<path id="Vector_2" d="M6.99989 3.64233C5.14557 3.64233 3.64233 5.14566 3.64233 6.99999C3.64233 8.85431 5.14557 10.3575 6.99989 10.3575C8.85431 10.3575 10.3575 8.85431 10.3575 6.99999C10.3575 5.14566 8.85431 3.64233 6.99989 3.64233V3.64233ZM6.99989 9.17946C5.79626 9.17936 4.82042 8.20361 4.82052 6.99989C4.82052 5.79626 5.79626 4.82042 6.99999 4.82042C8.20371 4.82052 9.17946 5.79626 9.17946 6.99989C9.17946 8.20361 8.20361 9.17946 6.99989 9.17946V9.17946Z" fill="white"/>
<path id="Vector_3" d="M11.2748 3.50979C11.2748 3.94309 10.9236 4.29438 10.4903 4.29438C10.0569 4.29438 9.70557 3.94309 9.70557 3.50979C9.70557 3.07639 10.0569 2.7251 10.4903 2.7251C10.9236 2.7251 11.2748 3.07639 11.2748 3.50979V3.50979Z" fill="white"/>
</g>
</svg>
