<svg width="20" height="20" viewBox="0 0 20 20" fill="none" xmlns="http://www.w3.org/2000/svg">
<g id="vuesax/outline/lock-circle">
<g id="lock-circle">
<path id="Vector" d="M12.5 9.79134C12.1583 9.79134 11.875 9.50801 11.875 9.16634V8.33301C11.875 7.11634 11.575 6.45801 10 6.45801C8.425 6.45801 8.125 7.11634 8.125 8.33301V9.16634C8.125 9.50801 7.84167 9.79134 7.5 9.79134C7.15833 9.79134 6.875 9.50801 6.875 9.16634V8.33301C6.875 7.55801 6.875 5.20801 10 5.20801C13.125 5.20801 13.125 7.55801 13.125 8.33301V9.16634C13.125 9.50801 12.8417 9.79134 12.5 9.79134Z" fill="black"/>
<path id="Vector_2" d="M9.99998 12.792C9.38331 12.792 8.875 12.2837 8.875 11.667C8.875 11.0503 9.38331 10.542 9.99998 10.542C10.6166 10.542 11.125 11.0503 11.125 11.667C11.125 12.2837 10.6166 12.792 9.99998 12.792ZM9.99998 11.542C9.93331 11.542 9.87496 11.6003 9.87496 11.667C9.87496 11.8087 10.125 11.8087 10.125 11.667C10.125 11.6003 10.0666 11.542 9.99998 11.542Z" fill="black"/>
<path id="Vector_3" d="M12.0833 14.792H7.91659C5.91659 14.792 5.20825 14.0837 5.20825 12.0837V11.2503C5.20825 9.25033 5.91659 8.54199 7.91659 8.54199H12.0833C14.0833 8.54199 14.7916 9.25033 14.7916 11.2503V12.0837C14.7916 14.0837 14.0833 14.792 12.0833 14.792ZM7.91659 9.79199C6.59159 9.79199 6.45825 9.92533 6.45825 11.2503V12.0837C6.45825 13.4087 6.59159 13.542 7.91659 13.542H12.0833C13.4083 13.542 13.5416 13.4087 13.5416 12.0837V11.2503C13.5416 9.92533 13.4083 9.79199 12.0833 9.79199H7.91659Z" fill="black"/>
<path id="Vector_4" d="M10.0001 18.9587C5.05841 18.9587 1.04175 14.942 1.04175 10.0003C1.04175 5.05866 5.05841 1.04199 10.0001 1.04199C14.9417 1.04199 18.9584 5.05866 18.9584 10.0003C18.9584 14.942 14.9417 18.9587 10.0001 18.9587ZM10.0001 2.29199C5.75008 2.29199 2.29175 5.75033 2.29175 10.0003C2.29175 14.2503 5.75008 17.7087 10.0001 17.7087C14.2501 17.7087 17.7084 14.2503 17.7084 10.0003C17.7084 5.75033 14.2501 2.29199 10.0001 2.29199Z" fill="black"/>
</g>
</g>
</svg>
