<svg width="34" height="12" viewBox="0 0 34 12" fill="none" xmlns="http://www.w3.org/2000/svg">
<g id="logos:visa" clip-path="url(#clip0_159_2352)">
<path id="Vector" d="M17.3771 3.82082C17.3579 5.48578 18.7241 6.41484 19.7533 6.96728C20.8106 7.53402 21.1658 7.89749 21.1616 8.40439C21.1537 9.18005 20.3182 9.52241 19.5363 9.53571C18.1722 9.55899 17.3791 9.13002 16.7486 8.80559L16.2571 11.3385C16.8898 11.6596 18.0612 11.9396 19.2759 11.9519C22.1273 11.9519 23.9928 10.4014 24.0029 7.99754C24.014 4.94665 20.1719 4.77778 20.1982 3.41412C20.2073 3.00063 20.5654 2.55937 21.3503 2.44718C21.7388 2.39051 22.8112 2.34713 24.0271 2.9639L24.5044 0.513303C23.8505 0.251038 23.0101 -9.53674e-05 21.9638 -9.53674e-05C19.28 -9.53674e-05 17.3923 1.57147 17.3771 3.82082ZM29.09 0.210989C28.5693 0.210989 28.1305 0.545543 27.9347 1.05894L23.8616 11.7719H26.7109L27.2779 10.0458H30.7597L31.0887 11.7719H33.6L31.4085 0.210989H29.09ZM29.4886 3.33403L30.3109 7.67528H28.0589L29.4886 3.33403ZM13.9225 0.211134L11.6765 11.7718H14.3917L16.6366 0.210845H13.9225M9.90583 0.210845L7.07976 8.07981L5.93657 1.38916C5.80243 0.642266 5.27271 0.210989 4.68444 0.210989H0.0647062L0 0.5467C0.948412 0.773398 2.02597 1.13904 2.67881 1.53027C3.07834 1.76925 3.19226 1.97817 3.32351 2.54607L5.48874 11.7719H8.358L12.757 0.210989L9.90583 0.210845Z" fill="url(#paint0_linear_159_2352)"/>
</g>
<defs>
<linearGradient id="paint0_linear_159_2352" x1="1544.73" y1="35.9276" x2="1582.83" y2="-1191.35" gradientUnits="userSpaceOnUse">
<stop stop-color="#222357"/>
<stop offset="1" stop-color="#254AA5"/>
</linearGradient>
<clipPath id="clip0_159_2352">
<rect width="33.6" height="12" fill="white"/>
</clipPath>
</defs>
</svg>
