<svg width="30" height="18" viewBox="0 0 30 18" fill="none" xmlns="http://www.w3.org/2000/svg">
<g id="Mastercard">
<path id="Left" fill-rule="evenodd" clip-rule="evenodd" d="M15.3728 15.4705C13.8465 16.759 11.8667 17.5368 9.70332 17.5368C4.87611 17.5368 0.962891 13.6641 0.962891 8.88683C0.962891 4.10956 4.87611 0.236816 9.70332 0.236816C11.8667 0.236816 13.8465 1.01468 15.3728 2.30321C16.8991 1.01469 18.8789 0.236843 21.0423 0.236843C25.8695 0.236843 29.7827 4.10958 29.7827 8.88685C29.7827 13.6641 25.8695 17.5369 21.0423 17.5369C18.8789 17.5369 16.899 16.759 15.3728 15.4705Z" fill="#ED0006"/>
<path id="Right" fill-rule="evenodd" clip-rule="evenodd" d="M15.3726 15.4705C17.2519 13.8839 18.4435 11.5231 18.4435 8.88683C18.4435 6.25057 17.2519 3.88976 15.3726 2.30318C16.8988 1.01467 18.8786 0.236816 21.042 0.236816C25.8692 0.236816 29.7824 4.10956 29.7824 8.88683C29.7824 13.6641 25.8692 17.5368 21.042 17.5368C18.8786 17.5368 16.8988 16.759 15.3726 15.4705Z" fill="#F9A000"/>
<path id="Middle" fill-rule="evenodd" clip-rule="evenodd" d="M15.3727 15.4704C17.252 13.8839 18.4436 11.5231 18.4436 8.88682C18.4436 6.25059 17.252 3.88979 15.3727 2.30322C13.4934 3.88979 12.3018 6.25059 12.3018 8.88682C12.3018 11.5231 13.4934 13.8839 15.3727 15.4704Z" fill="#FF5E00"/>
</g>
</svg>
