<svg width="27" height="27" viewBox="0 0 27 27" fill="none" xmlns="http://www.w3.org/2000/svg">
<g id="vuesax/bold/messages-2">
<g id="messages-2">
<path id="Vector" d="M20.7787 18.9338L21.2174 22.4888C21.3299 23.4225 20.3287 24.075 19.5299 23.5912L15.6374 21.2738C15.3674 21.1162 15.2999 20.7787 15.4462 20.5087C16.0087 19.4737 16.3124 18.3037 16.3124 17.1337C16.3124 13.0162 12.7799 9.66375 8.43744 9.66375C7.54869 9.66375 6.68244 9.79875 5.87244 10.0687C5.45619 10.2037 5.05119 9.82125 5.15244 9.39375C6.17619 5.29875 10.1137 2.25 14.8162 2.25C20.3062 2.25 24.7499 6.40125 24.7499 11.52C24.7499 14.5575 23.1862 17.2463 20.7787 18.9338Z" fill="#2941FF"/>
<path id="Vector_2" d="M14.625 17.1338C14.625 18.4726 14.13 19.7101 13.2975 20.6888C12.1837 22.0388 10.4175 22.9051 8.4375 22.9051L5.50125 24.6488C5.00625 24.9526 4.37625 24.5363 4.44375 23.9626L4.725 21.7463C3.2175 20.7001 2.25 19.0238 2.25 17.1338C2.25 15.1538 3.3075 13.4101 4.9275 12.3751C5.92875 11.7226 7.1325 11.3513 8.4375 11.3513C11.8575 11.3513 14.625 13.9388 14.625 17.1338Z" fill="#2941FF"/>
</g>
</g>
</svg>
