<svg width="24" height="21" viewBox="0 0 24 21" fill="none" xmlns="http://www.w3.org/2000/svg">
<g id="PayPal">
<path id="Vector" fill-rule="evenodd" clip-rule="evenodd" d="M3.47842 14.781H1.67481C1.55138 14.781 1.44641 14.8713 1.42717 14.9938L0.697693 19.6477C0.683194 19.7396 0.753871 19.8224 0.846441 19.8224H1.7075C1.83093 19.8224 1.9359 19.7321 1.95514 19.6093L2.15189 18.3541C2.17087 18.2312 2.2761 18.141 2.39926 18.141H2.97022C4.15833 18.141 4.84397 17.5625 5.02313 16.4161C5.10381 15.9145 5.02655 15.5204 4.79308 15.2444C4.53679 14.9414 4.08205 14.781 3.47842 14.781ZM3.6865 16.4808C3.58789 17.132 3.09339 17.132 2.61526 17.132H2.34309L2.53402 15.9157C2.54536 15.8423 2.60865 15.7881 2.6825 15.7881H2.80724C3.13295 15.7881 3.44022 15.7881 3.599 15.9749C3.69358 16.0864 3.72263 16.252 3.6865 16.4808ZM8.86986 16.4599H8.00615C7.93255 16.4599 7.86897 16.5141 7.85762 16.5876L7.81942 16.8307L7.75901 16.7426C7.57204 16.4695 7.15513 16.3782 6.73896 16.3782C5.78445 16.3782 4.96931 17.1056 4.81053 18.126C4.72803 18.6349 4.84532 19.1216 5.13224 19.4611C5.39549 19.7731 5.77212 19.9032 6.22015 19.9032C6.98915 19.9032 7.4157 19.4056 7.4157 19.4056L7.37713 19.6471C7.36261 19.7395 7.43327 19.8222 7.52529 19.8222H8.30333C8.42708 19.8222 8.53143 19.732 8.55095 19.6092L9.01777 16.6345C9.03254 16.543 8.96212 16.4599 8.86986 16.4599ZM7.66589 18.1515C7.58253 18.648 7.19089 18.9813 6.69148 18.9813C6.44068 18.9813 6.24016 18.9003 6.11153 18.7469C5.98387 18.5947 5.9353 18.3778 5.97594 18.1363C6.0538 17.644 6.45203 17.2999 6.94387 17.2999C7.18906 17.2999 7.38848 17.3818 7.5198 17.5366C7.65136 17.6929 7.7036 17.911 7.66589 18.1515ZM12.6019 16.4598H13.4698C13.5914 16.4598 13.6623 16.597 13.5932 16.6973L10.7065 20.8902C10.6598 20.9581 10.5828 20.9985 10.5005 20.9985H9.63361C9.51157 20.9985 9.44029 20.8602 9.51096 20.7596L10.4098 19.4829L9.45384 16.6598C9.42076 16.5617 9.49277 16.4598 9.59651 16.4598H10.4494C10.5602 16.4598 10.6579 16.533 10.6899 16.6397L11.1972 18.3448L12.3944 16.5704C12.4412 16.5012 12.5191 16.4598 12.6019 16.4598Z" fill="#253B80"/>
<path id="Vector_2" fill-rule="evenodd" clip-rule="evenodd" d="M22.0121 19.6477L22.7523 14.9087C22.7636 14.8352 22.827 14.781 22.9006 14.7808H23.7339C23.8259 14.7808 23.8966 14.8638 23.882 14.9556L23.1521 19.6093C23.1331 19.7321 23.0281 19.8224 22.9045 19.8224H22.1602C22.0682 19.8224 21.9976 19.7396 22.0121 19.6477ZM16.3432 14.781H14.5393C14.4161 14.781 14.3112 14.8713 14.2919 14.9938L13.5624 19.6477C13.5479 19.7396 13.6186 19.8224 13.7107 19.8224H14.6363C14.7224 19.8224 14.796 19.7592 14.8094 19.6733L15.0164 18.3541C15.0354 18.2312 15.1406 18.141 15.2637 18.141H15.8344C17.0228 18.141 17.7083 17.5625 17.8876 16.4161C17.9685 15.9145 17.8908 15.5204 17.6574 15.2444C17.4012 14.9414 16.9469 14.781 16.3432 14.781ZM16.5513 16.4808C16.4529 17.132 15.9584 17.132 15.48 17.132H15.2081L15.3993 15.9157C15.4107 15.8423 15.4734 15.7882 15.5475 15.7882H15.6722C15.9977 15.7882 16.3053 15.7881 16.4639 15.9749C16.5586 16.0864 16.5874 16.252 16.5513 16.4808ZM21.7342 16.4599H20.8711C20.7969 16.4599 20.7339 16.5141 20.7228 16.5876L20.6846 16.8307L20.6239 16.7426C20.437 16.4695 20.0203 16.3782 19.6041 16.3782C18.6496 16.3782 17.8347 17.1056 17.676 18.126C17.5937 18.6349 17.7105 19.1216 17.9974 19.4611C18.2612 19.7731 18.6373 19.9032 19.0853 19.9032C19.8543 19.9032 20.2808 19.4056 20.2808 19.4056L20.2423 19.6471C20.2278 19.7395 20.2985 19.8222 20.3911 19.8222H21.1688C21.2919 19.8222 21.3969 19.732 21.4161 19.6092L21.8832 16.6345C21.8975 16.543 21.8268 16.4599 21.7342 16.4599ZM20.5303 18.1515C20.4475 18.648 20.0553 18.9813 19.5558 18.9813C19.3055 18.9813 19.1046 18.9003 18.9759 18.7469C18.8482 18.5947 18.8002 18.3778 18.8404 18.1363C18.9186 17.644 19.3164 17.2999 19.8082 17.2999C20.0535 17.2999 20.2528 17.3818 20.3842 17.5366C20.5163 17.6929 20.5685 17.911 20.5303 18.1515Z" fill="#179BD7"/>
<path id="Vector_3" d="M10.1531 13.1161L10.3749 11.6989L9.88097 11.6874H7.52246L9.16152 1.22957C9.16652 1.19799 9.18312 1.16856 9.20729 1.14766C9.23145 1.12675 9.26245 1.11523 9.29467 1.11523H13.2715C14.5918 1.11523 15.5028 1.39169 15.9786 1.93733C16.2015 2.19331 16.3436 2.4608 16.4123 2.75517C16.4843 3.06405 16.4857 3.43307 16.4152 3.88316L16.4101 3.91601V4.2044L16.6332 4.33155C16.821 4.43179 16.9702 4.54656 17.0846 4.67796C17.2755 4.89682 17.3989 5.17497 17.451 5.50475C17.5048 5.84392 17.487 6.2475 17.3989 6.70442C17.2971 7.23002 17.1326 7.68778 16.9105 8.06236C16.7061 8.4075 16.4457 8.6937 16.1367 8.91561C15.8416 9.12635 15.491 9.28637 15.0946 9.38879C14.7104 9.48937 14.2725 9.54021 13.7921 9.54021H13.4826C13.2614 9.54021 13.0463 9.6204 12.8777 9.76421C12.7085 9.91096 12.5965 10.1114 12.5622 10.3307L12.5389 10.4583L12.1471 12.9561L12.1293 13.0478C12.1246 13.0769 12.1166 13.0914 12.1047 13.1013C12.0941 13.1101 12.0789 13.1161 12.064 13.1161H10.1531Z" fill="#253B80"/>
<path id="Vector_4" d="M16.8443 3.94946C16.8325 4.02582 16.8189 4.10389 16.8037 4.1841C16.2791 6.89358 14.485 7.8296 12.1933 7.8296H11.0266C10.7464 7.8296 10.5102 8.03437 10.4665 8.31252L9.86912 12.1249L9.69997 13.2054C9.67153 13.3881 9.81152 13.5527 9.99459 13.5527H12.0641C12.3092 13.5527 12.5172 13.3736 12.5558 13.1304L12.5762 13.0246L12.9659 10.5365L12.9909 10.4C13.029 10.156 13.2376 9.97684 13.4826 9.97684H13.7921C15.7971 9.97684 17.3667 9.15772 17.8254 6.78735C18.0171 5.79716 17.9178 4.97037 17.4107 4.38888C17.2573 4.21354 17.0669 4.06806 16.8443 3.94946Z" fill="#179BD7"/>
<path id="Vector_5" d="M16.2955 3.7297C16.2155 3.70623 16.1327 3.6849 16.0479 3.66571C15.9627 3.64694 15.8753 3.6303 15.7855 3.6158C15.4709 3.5646 15.1262 3.54028 14.7569 3.54028H11.6399C11.5631 3.54028 11.4903 3.55777 11.425 3.58934C11.2812 3.65888 11.1744 3.79583 11.1485 3.96349L10.4853 8.18962L10.4663 8.31291C10.51 8.03475 10.7462 7.82997 11.0264 7.82997H12.1931C14.4847 7.82997 16.279 6.89354 16.8035 4.18448C16.8191 4.10428 16.8323 4.02621 16.8441 3.94985C16.7115 3.87902 16.5677 3.81844 16.4129 3.76681C16.3749 3.75402 16.3354 3.74165 16.2955 3.7297Z" fill="#222D65"/>
<path id="Vector_6" d="M11.1488 3.96328C11.1746 3.79561 11.2816 3.65867 11.4252 3.58955C11.491 3.55798 11.5635 3.54049 11.6401 3.54049H14.7573C15.1266 3.54049 15.4712 3.56481 15.7857 3.616C15.8757 3.63051 15.9631 3.64715 16.0483 3.66591C16.1331 3.68512 16.2157 3.70645 16.2959 3.72991C16.3357 3.74186 16.3751 3.75422 16.4137 3.7666C16.5684 3.81822 16.7122 3.87923 16.8448 3.94962C17.0009 2.94834 16.8436 2.2666 16.3056 1.64927C15.7125 0.969666 14.6419 0.678711 13.2721 0.678711H9.29516C9.01531 0.678711 8.77672 0.88348 8.73339 1.16207L7.077 11.7274C7.0443 11.9364 7.20454 12.125 7.41397 12.125H9.86926L10.4857 8.1894L11.1488 3.96328Z" fill="#253B80"/>
</g>
</svg>
