<svg width="22" height="22" viewBox="0 0 22 22" fill="none" xmlns="http://www.w3.org/2000/svg">
<g id="vuesax/outline/setting-2">
<g id="setting-2">
<path id="Vector" d="M11 14.4375C9.1025 14.4375 7.5625 12.8975 7.5625 11C7.5625 9.1025 9.1025 7.5625 11 7.5625C12.8975 7.5625 14.4375 9.1025 14.4375 11C14.4375 12.8975 12.8975 14.4375 11 14.4375ZM11 8.9375C9.86333 8.9375 8.9375 9.86333 8.9375 11C8.9375 12.1367 9.86333 13.0625 11 13.0625C12.1367 13.0625 13.0625 12.1367 13.0625 11C13.0625 9.86333 12.1367 8.9375 11 8.9375Z" fill="#292D32"/>
<path id="Vector_2" d="M13.9424 20.3408C13.7499 20.3408 13.5574 20.3133 13.3649 20.2674C12.7966 20.1116 12.3199 19.7541 12.0174 19.2499L11.9074 19.0666C11.3666 18.1316 10.6241 18.1316 10.0833 19.0666L9.98242 19.2408C9.67992 19.7541 9.20325 20.1208 8.63492 20.2674C8.05742 20.4233 7.46159 20.3408 6.95742 20.0383L5.38075 19.1308C4.82159 18.8099 4.41825 18.2874 4.24409 17.6549C4.07909 17.0224 4.16159 16.3716 4.48242 15.8124C4.74825 15.3449 4.82159 14.9233 4.66575 14.6574C4.50992 14.3916 4.11575 14.2358 3.57492 14.2358C2.23659 14.2358 1.14575 13.1449 1.14575 11.8066V10.1933C1.14575 8.85494 2.23659 7.7641 3.57492 7.7641C4.11575 7.7641 4.50992 7.60827 4.66575 7.34244C4.82159 7.0766 4.75742 6.65494 4.48242 6.18744C4.16159 5.62827 4.07909 4.96827 4.24409 4.34494C4.40909 3.71244 4.81242 3.18994 5.38075 2.8691L6.96659 1.9616C8.00242 1.34744 9.36825 1.70494 9.99158 2.7591L10.1016 2.94244C10.6424 3.87744 11.3849 3.87744 11.9258 2.94244L12.0266 2.76827C12.6499 1.70494 14.0158 1.34744 15.0608 1.97077L16.6374 2.87827C17.1966 3.1991 17.5999 3.7216 17.7741 4.3541C17.9391 4.9866 17.8566 5.63744 17.5358 6.1966C17.2699 6.6641 17.1966 7.08577 17.3524 7.3516C17.5083 7.61744 17.9024 7.77327 18.4433 7.77327C19.7816 7.77327 20.8724 8.8641 20.8724 10.2024V11.8158C20.8724 13.1541 19.7816 14.2449 18.4433 14.2449C17.9024 14.2449 17.5083 14.4008 17.3524 14.6666C17.1966 14.9324 17.2608 15.3541 17.5358 15.8216C17.8566 16.3808 17.9483 17.0408 17.7741 17.6641C17.6091 18.2966 17.2058 18.8191 16.6374 19.1399L15.0516 20.0474C14.7033 20.2399 14.3274 20.3408 13.9424 20.3408ZM10.9999 16.9491C11.8158 16.9491 12.5766 17.4624 13.0991 18.3699L13.1999 18.5441C13.3099 18.7366 13.4933 18.8741 13.7133 18.9291C13.9333 18.9841 14.1533 18.9566 14.3366 18.8466L15.9224 17.9299C16.1608 17.7924 16.3441 17.5633 16.4174 17.2883C16.4908 17.0133 16.4541 16.7291 16.3166 16.4908C15.7941 15.5924 15.7299 14.6666 16.1333 13.9608C16.5366 13.2549 17.3708 12.8516 18.4158 12.8516C19.0024 12.8516 19.4699 12.3841 19.4699 11.7974V10.1841C19.4699 9.6066 19.0024 9.12994 18.4158 9.12994C17.3708 9.12994 16.5366 8.7266 16.1333 8.02077C15.7299 7.31494 15.7941 6.3891 16.3166 5.49077C16.4541 5.25244 16.4908 4.96827 16.4174 4.69327C16.3441 4.41827 16.1699 4.19827 15.9316 4.0516L14.3458 3.1441C13.9516 2.90577 13.4291 3.04327 13.1908 3.4466L13.0899 3.62077C12.5674 4.52827 11.8066 5.0416 10.9908 5.0416C10.1749 5.0416 9.41409 4.52827 8.89159 3.62077L8.79075 3.43744C8.56159 3.05244 8.04825 2.91494 7.65409 3.1441L6.06825 4.06077C5.82992 4.19827 5.64659 4.42744 5.57325 4.70244C5.49992 4.97744 5.53659 5.2616 5.67409 5.49994C6.19659 6.39827 6.26075 7.3241 5.85742 8.02994C5.45409 8.73577 4.61992 9.1391 3.57492 9.1391C2.98825 9.1391 2.52075 9.6066 2.52075 10.1933V11.8066C2.52075 12.3841 2.98825 12.8608 3.57492 12.8608C4.61992 12.8608 5.45409 13.2641 5.85742 13.9699C6.26075 14.6758 6.19659 15.6016 5.67409 16.4999C5.53659 16.7383 5.49992 17.0224 5.57325 17.2974C5.64659 17.5724 5.82075 17.7924 6.05909 17.9391L7.64492 18.8466C7.83742 18.9658 8.06659 18.9933 8.27742 18.9383C8.49742 18.8833 8.68075 18.7366 8.79992 18.5441L8.90075 18.3699C9.42325 17.4716 10.1841 16.9491 10.9999 16.9491Z" fill="#292D32"/>
</g>
</g>
</svg>
