<svg width="18" height="18" viewBox="0 0 18 18" fill="none" xmlns="http://www.w3.org/2000/svg">
<g id="vuesax/outline/shopping-cart">
<g id="shopping-cart">
<path id="Vector" d="M13.6425 13.3125H5.65499C4.91249 13.3125 4.19999 12.9975 3.69749 12.45C3.19499 11.9025 2.94 11.1675 3 10.425L3.6225 2.955C3.645 2.7225 3.56249 2.4975 3.40499 2.325C3.24749 2.1525 3.03 2.0625 2.7975 2.0625H1.5C1.1925 2.0625 0.9375 1.8075 0.9375 1.5C0.9375 1.1925 1.1925 0.9375 1.5 0.9375H2.805C3.3525 0.9375 3.87 1.17 4.2375 1.5675C4.44 1.7925 4.59 2.055 4.6725 2.3475H14.04C14.7975 2.3475 15.495 2.6475 16.005 3.1875C16.5075 3.735 16.7625 4.4475 16.7025 5.205L16.2975 10.83C16.215 12.2025 15.015 13.3125 13.6425 13.3125ZM4.71 3.465L4.125 10.515C4.0875 10.95 4.23 11.3625 4.5225 11.685C4.815 12.0075 5.22 12.18 5.65499 12.18H13.6425C14.4225 12.18 15.1275 11.52 15.1875 10.74L15.5925 5.11501C15.6225 4.67251 15.48 4.25251 15.1875 3.94501C14.895 3.63001 14.49 3.45749 14.0475 3.45749H4.71V3.465Z" fill="#292D32"/>
<path id="Vector_2" d="M12.1875 17.0625C11.3625 17.0625 10.6875 16.3875 10.6875 15.5625C10.6875 14.7375 11.3625 14.0625 12.1875 14.0625C13.0125 14.0625 13.6875 14.7375 13.6875 15.5625C13.6875 16.3875 13.0125 17.0625 12.1875 17.0625ZM12.1875 15.1875C11.9775 15.1875 11.8125 15.3525 11.8125 15.5625C11.8125 15.7725 11.9775 15.9375 12.1875 15.9375C12.3975 15.9375 12.5625 15.7725 12.5625 15.5625C12.5625 15.3525 12.3975 15.1875 12.1875 15.1875Z" fill="#292D32"/>
<path id="Vector_3" d="M6.1875 17.0625C5.3625 17.0625 4.6875 16.3875 4.6875 15.5625C4.6875 14.7375 5.3625 14.0625 6.1875 14.0625C7.0125 14.0625 7.6875 14.7375 7.6875 15.5625C7.6875 16.3875 7.0125 17.0625 6.1875 17.0625ZM6.1875 15.1875C5.9775 15.1875 5.8125 15.3525 5.8125 15.5625C5.8125 15.7725 5.9775 15.9375 6.1875 15.9375C6.3975 15.9375 6.5625 15.7725 6.5625 15.5625C6.5625 15.3525 6.3975 15.1875 6.1875 15.1875Z" fill="#292D32"/>
<path id="Vector_4" d="M15.75 6.5625H6.75C6.4425 6.5625 6.1875 6.3075 6.1875 6C6.1875 5.6925 6.4425 5.4375 6.75 5.4375H15.75C16.0575 5.4375 16.3125 5.6925 16.3125 6C16.3125 6.3075 16.0575 6.5625 15.75 6.5625Z" fill="#292D32"/>
</g>
</g>
</svg>
