<svg width="40" height="28" viewBox="0 0 40 28" fill="none" xmlns="http://www.w3.org/2000/svg">
<g id="Payment Method/Visa">
<rect id="BASE" x="0.5" y="0.5" width="39" height="27" rx="2" fill="white" stroke="#5264F2"/>
<path id="visa-logo" fill-rule="evenodd" clip-rule="evenodd" d="M12.2176 18.968H9.79436L7.97723 11.8912C7.89098 11.5656 7.70785 11.2779 7.43848 11.1422C6.76621 10.8013 6.02542 10.5301 5.21729 10.3933V10.1208H9.12091C9.65967 10.1208 10.0637 10.5301 10.1311 11.0054L11.0739 16.1102L13.4959 10.1208H15.8518L12.2176 18.968ZM17.1987 18.968H14.9102L16.7946 10.1208H19.0832L17.1987 18.968ZM22.044 12.5717C22.1113 12.0952 22.5154 11.8228 22.9868 11.8228C23.7276 11.7544 24.5346 11.8912 25.208 12.2309L25.6121 10.326C24.9386 10.0536 24.1978 9.91675 23.5256 9.91675C21.3044 9.91675 19.6881 11.1422 19.6881 12.843C19.6881 14.1369 20.833 14.8163 21.6411 15.2256C22.5154 15.6337 22.8521 15.9061 22.7848 16.3142C22.7848 16.9264 22.1113 17.1988 21.4391 17.1988C20.6309 17.1988 19.8228 16.9948 19.0832 16.6539L18.6791 18.5599C19.4873 18.8996 20.3616 19.0365 21.1697 19.0365C23.6603 19.1037 25.208 17.8794 25.208 16.0418C25.208 13.7276 22.044 13.592 22.044 12.5717ZM33.2173 18.968L31.4002 10.1208H29.4484C29.0443 10.1208 28.6402 10.3933 28.5055 10.8013L25.1407 18.968H27.4966L27.9668 17.6753H30.8614L31.1308 18.968H33.2173ZM29.7851 12.5033L30.4573 15.8377H28.5728L29.7851 12.5033Z" fill="#172B85"/>
</g>
</svg>
