<svg width="302" height="38" viewBox="0 0 302 38" fill="none" xmlns="http://www.w3.org/2000/svg">
<path d="M15.427 2.211V4.949H4.216V13.644H13.318V16.382H4.216V28H0.849V2.211H15.427ZM28.3365 28.333C26.4372 28.333 24.7105 27.9013 23.1565 27.038C21.6272 26.1747 20.4185 24.9537 19.5305 23.375C18.6672 21.7717 18.2355 19.9217 18.2355 17.825C18.2355 15.753 18.6795 13.9277 19.5675 12.349C20.4802 10.7457 21.7135 9.52467 23.2675 8.686C24.8215 7.82267 26.5605 7.391 28.4845 7.391C30.4085 7.391 32.1475 7.82267 33.7015 8.686C35.2555 9.52467 36.4765 10.7333 37.3645 12.312C38.2772 13.8907 38.7335 15.7283 38.7335 17.825C38.7335 19.9217 38.2649 21.7717 37.3275 23.375C36.4149 24.9537 35.1692 26.1747 33.5905 27.038C32.0119 27.9013 30.2605 28.333 28.3365 28.333ZM28.3365 25.373C29.5452 25.373 30.6799 25.0893 31.7405 24.522C32.8012 23.9547 33.6522 23.1037 34.2935 21.969C34.9595 20.8343 35.2925 19.453 35.2925 17.825C35.2925 16.197 34.9719 14.8157 34.3305 13.681C33.6892 12.5463 32.8505 11.7077 31.8145 11.165C30.7785 10.5977 29.6562 10.314 28.4475 10.314C27.2142 10.314 26.0795 10.5977 25.0435 11.165C24.0322 11.7077 23.2182 12.5463 22.6015 13.681C21.9849 14.8157 21.6765 16.197 21.6765 17.825C21.6765 19.4777 21.9725 20.8713 22.5645 22.006C23.1812 23.1407 23.9952 23.9917 25.0065 24.559C26.0179 25.1017 27.1279 25.373 28.3365 25.373ZM46.5275 11.017C47.1195 9.85767 47.9582 8.95733 49.0435 8.316C50.1535 7.67467 51.4979 7.354 53.0765 7.354V10.832H52.1885C48.4145 10.832 46.5275 12.8793 46.5275 16.974V28H43.1605V7.724H46.5275V11.017ZM65.3253 7.391C67.0766 7.391 68.6059 7.77333 69.9133 8.538C71.2453 9.30267 72.2319 10.2647 72.8733 11.424V7.724H76.2773V28.444C76.2773 30.294 75.8826 31.9343 75.0933 33.365C74.3039 34.8203 73.1693 35.955 71.6893 36.769C70.2339 37.583 68.5319 37.99 66.5833 37.99C63.9193 37.99 61.6993 37.361 59.9233 36.103C58.1473 34.845 57.0989 33.1307 56.7783 30.96H60.1083C60.4783 32.1933 61.2429 33.18 62.4023 33.92C63.5616 34.6847 64.9553 35.067 66.5833 35.067C68.4333 35.067 69.9379 34.4873 71.0973 33.328C72.2813 32.1687 72.8733 30.5407 72.8733 28.444V24.189C72.2073 25.373 71.2206 26.3597 69.9133 27.149C68.6059 27.9383 67.0766 28.333 65.3253 28.333C63.5246 28.333 61.8843 27.889 60.4043 27.001C58.9489 26.113 57.8019 24.8673 56.9633 23.264C56.1246 21.6607 55.7053 19.8353 55.7053 17.788C55.7053 15.716 56.1246 13.903 56.9633 12.349C57.8019 10.7703 58.9489 9.54933 60.4043 8.686C61.8843 7.82267 63.5246 7.391 65.3253 7.391ZM72.8733 17.825C72.8733 16.2957 72.5649 14.9637 71.9483 13.829C71.3316 12.6943 70.4929 11.831 69.4323 11.239C68.3963 10.6223 67.2493 10.314 65.9913 10.314C64.7333 10.314 63.5863 10.61 62.5503 11.202C61.5143 11.794 60.6879 12.6573 60.0713 13.792C59.4546 14.9267 59.1463 16.2587 59.1463 17.788C59.1463 19.342 59.4546 20.6987 60.0713 21.858C60.6879 22.9927 61.5143 23.8683 62.5503 24.485C63.5863 25.077 64.7333 25.373 65.9913 25.373C67.2493 25.373 68.3963 25.077 69.4323 24.485C70.4929 23.8683 71.3316 22.9927 71.9483 21.858C72.5649 20.6987 72.8733 19.3543 72.8733 17.825ZM90.8102 28.333C88.9108 28.333 87.1842 27.9013 85.6302 27.038C84.1008 26.1747 82.8922 24.9537 82.0042 23.375C81.1408 21.7717 80.7092 19.9217 80.7092 17.825C80.7092 15.753 81.1532 13.9277 82.0412 12.349C82.9538 10.7457 84.1872 9.52467 85.7412 8.686C87.2952 7.82267 89.0342 7.391 90.9582 7.391C92.8822 7.391 94.6212 7.82267 96.1752 8.686C97.7292 9.52467 98.9502 10.7333 99.8382 12.312C100.751 13.8907 101.207 15.7283 101.207 17.825C101.207 19.9217 100.738 21.7717 99.8012 23.375C98.8885 24.9537 97.6428 26.1747 96.0642 27.038C94.4855 27.9013 92.7342 28.333 90.8102 28.333ZM90.8102 25.373C92.0188 25.373 93.1535 25.0893 94.2142 24.522C95.2748 23.9547 96.1258 23.1037 96.7672 21.969C97.4332 20.8343 97.7662 19.453 97.7662 17.825C97.7662 16.197 97.4455 14.8157 96.8042 13.681C96.1628 12.5463 95.3242 11.7077 94.2882 11.165C93.2522 10.5977 92.1298 10.314 90.9212 10.314C89.6878 10.314 88.5532 10.5977 87.5172 11.165C86.5058 11.7077 85.6918 12.5463 85.0752 13.681C84.4585 14.8157 84.1502 16.197 84.1502 17.825C84.1502 19.4777 84.4462 20.8713 85.0382 22.006C85.6548 23.1407 86.4688 23.9917 87.4802 24.559C88.4915 25.1017 89.6015 25.373 90.8102 25.373ZM109.741 10.499V22.45C109.741 23.4367 109.951 24.1397 110.37 24.559C110.789 24.9537 111.517 25.151 112.553 25.151H115.032V28H111.998C110.123 28 108.717 27.5683 107.78 26.705C106.843 25.8417 106.374 24.4233 106.374 22.45V10.499H103.747V7.724H106.374V2.618H109.741V7.724H115.032V10.499H109.741ZM146.218 9.759C146.218 11.905 145.478 13.6933 143.998 15.124C142.543 16.53 140.31 17.233 137.301 17.233H132.343V28H128.976V2.211H137.301C140.212 2.211 142.419 2.914 143.924 4.32C145.453 5.726 146.218 7.539 146.218 9.759ZM137.301 14.458C139.176 14.458 140.557 14.051 141.445 13.237C142.333 12.423 142.777 11.2637 142.777 9.759C142.777 6.577 140.952 4.986 137.301 4.986H132.343V14.458H137.301ZM149.145 17.788C149.145 15.716 149.564 13.903 150.403 12.349C151.241 10.7703 152.388 9.54933 153.844 8.686C155.324 7.82267 156.964 7.391 158.765 7.391C160.541 7.391 162.082 7.77333 163.39 8.538C164.697 9.30267 165.671 10.2647 166.313 11.424V7.724H169.717V28H166.313V24.226C165.647 25.41 164.648 26.3967 163.316 27.186C162.008 27.9507 160.479 28.333 158.728 28.333C156.927 28.333 155.299 27.889 153.844 27.001C152.388 26.113 151.241 24.8673 150.403 23.264C149.564 21.6607 149.145 19.8353 149.145 17.788ZM166.313 17.825C166.313 16.2957 166.004 14.9637 165.388 13.829C164.771 12.6943 163.932 11.831 162.872 11.239C161.836 10.6223 160.689 10.314 159.431 10.314C158.173 10.314 157.026 10.61 155.99 11.202C154.954 11.794 154.127 12.6573 153.511 13.792C152.894 14.9267 152.586 16.2587 152.586 17.788C152.586 19.342 152.894 20.6987 153.511 21.858C154.127 22.9927 154.954 23.8683 155.99 24.485C157.026 25.077 158.173 25.373 159.431 25.373C160.689 25.373 161.836 25.077 162.872 24.485C163.932 23.8683 164.771 22.9927 165.388 21.858C166.004 20.6987 166.313 19.3543 166.313 17.825ZM182.585 28.333C181.031 28.333 179.637 28.074 178.404 27.556C177.17 27.0133 176.196 26.2733 175.481 25.336C174.765 24.374 174.371 23.2763 174.297 22.043H177.775C177.873 23.0543 178.342 23.8807 179.181 24.522C180.044 25.1633 181.166 25.484 182.548 25.484C183.83 25.484 184.842 25.2003 185.582 24.633C186.322 24.0657 186.692 23.3503 186.692 22.487C186.692 21.599 186.297 20.9453 185.508 20.526C184.718 20.082 183.497 19.6503 181.845 19.231C180.34 18.8363 179.107 18.4417 178.145 18.047C177.207 17.6277 176.393 17.0233 175.703 16.234C175.037 15.42 174.704 14.3593 174.704 13.052C174.704 12.016 175.012 11.0663 175.629 10.203C176.245 9.33967 177.121 8.66133 178.256 8.168C179.39 7.65 180.685 7.391 182.141 7.391C184.385 7.391 186.198 7.95833 187.58 9.093C188.961 10.2277 189.701 11.7817 189.8 13.755H186.433C186.359 12.6943 185.927 11.8433 185.138 11.202C184.373 10.5607 183.337 10.24 182.03 10.24C180.821 10.24 179.859 10.499 179.144 11.017C178.428 11.535 178.071 12.2133 178.071 13.052C178.071 13.718 178.28 14.273 178.7 14.717C179.144 15.1363 179.686 15.4817 180.328 15.753C180.994 15.9997 181.906 16.2833 183.066 16.604C184.521 16.9987 185.705 17.3933 186.618 17.788C187.53 18.158 188.307 18.7253 188.949 19.49C189.615 20.2547 189.96 21.2537 189.985 22.487C189.985 23.597 189.676 24.596 189.06 25.484C188.443 26.372 187.567 27.075 186.433 27.593C185.323 28.0863 184.04 28.333 182.585 28.333ZM201.916 28.333C200.362 28.333 198.968 28.074 197.735 27.556C196.501 27.0133 195.527 26.2733 194.812 25.336C194.096 24.374 193.702 23.2763 193.628 22.043H197.106C197.204 23.0543 197.673 23.8807 198.512 24.522C199.375 25.1633 200.497 25.484 201.879 25.484C203.161 25.484 204.173 25.2003 204.913 24.633C205.653 24.0657 206.023 23.3503 206.023 22.487C206.023 21.599 205.628 20.9453 204.839 20.526C204.049 20.082 202.828 19.6503 201.176 19.231C199.671 18.8363 198.438 18.4417 197.476 18.047C196.538 17.6277 195.724 17.0233 195.034 16.234C194.368 15.42 194.035 14.3593 194.035 13.052C194.035 12.016 194.343 11.0663 194.96 10.203C195.576 9.33967 196.452 8.66133 197.587 8.168C198.721 7.65 200.016 7.391 201.472 7.391C203.716 7.391 205.529 7.95833 206.911 9.093C208.292 10.2277 209.032 11.7817 209.131 13.755H205.764C205.69 12.6943 205.258 11.8433 204.469 11.202C203.704 10.5607 202.668 10.24 201.361 10.24C200.152 10.24 199.19 10.499 198.475 11.017C197.759 11.535 197.402 12.2133 197.402 13.052C197.402 13.718 197.611 14.273 198.031 14.717C198.475 15.1363 199.017 15.4817 199.659 15.753C200.325 15.9997 201.237 16.2833 202.397 16.604C203.852 16.9987 205.036 17.3933 205.949 17.788C206.861 18.158 207.638 18.7253 208.28 19.49C208.946 20.2547 209.291 21.2537 209.316 22.487C209.316 23.597 209.007 24.596 208.391 25.484C207.774 26.372 206.898 27.075 205.764 27.593C204.654 28.0863 203.371 28.333 201.916 28.333ZM241.079 7.724L234.752 28H231.274L226.39 11.905L221.506 28H218.028L211.664 7.724H215.105L219.767 24.744L224.799 7.724H228.24L233.161 24.781L237.749 7.724H241.079ZM253.263 28.333C251.364 28.333 249.637 27.9013 248.083 27.038C246.554 26.1747 245.345 24.9537 244.457 23.375C243.594 21.7717 243.162 19.9217 243.162 17.825C243.162 15.753 243.606 13.9277 244.494 12.349C245.407 10.7457 246.64 9.52467 248.194 8.686C249.748 7.82267 251.487 7.391 253.411 7.391C255.335 7.391 257.074 7.82267 258.628 8.686C260.182 9.52467 261.403 10.7333 262.291 12.312C263.204 13.8907 263.66 15.7283 263.66 17.825C263.66 19.9217 263.192 21.7717 262.254 23.375C261.342 24.9537 260.096 26.1747 258.517 27.038C256.939 27.9013 255.187 28.333 253.263 28.333ZM253.263 25.373C254.472 25.373 255.607 25.0893 256.667 24.522C257.728 23.9547 258.579 23.1037 259.22 21.969C259.886 20.8343 260.219 19.453 260.219 17.825C260.219 16.197 259.899 14.8157 259.257 13.681C258.616 12.5463 257.777 11.7077 256.741 11.165C255.705 10.5977 254.583 10.314 253.374 10.314C252.141 10.314 251.006 10.5977 249.97 11.165C248.959 11.7077 248.145 12.5463 247.528 13.681C246.912 14.8157 246.603 16.197 246.603 17.825C246.603 19.4777 246.899 20.8713 247.491 22.006C248.108 23.1407 248.922 23.9917 249.933 24.559C250.945 25.1017 252.055 25.373 253.263 25.373ZM271.454 11.017C272.046 9.85767 272.885 8.95733 273.97 8.316C275.08 7.67467 276.425 7.354 278.003 7.354V10.832H277.115C273.341 10.832 271.454 12.8793 271.454 16.974V28H268.087V7.724H271.454V11.017ZM280.632 17.788C280.632 15.716 281.051 13.903 281.89 12.349C282.729 10.7703 283.876 9.54933 285.331 8.686C286.811 7.82267 288.464 7.391 290.289 7.391C291.868 7.391 293.335 7.761 294.692 8.501C296.049 9.21633 297.085 10.166 297.8 11.35V0.62H301.204V28H297.8V24.189C297.134 25.3977 296.147 26.3967 294.84 27.186C293.533 27.9507 292.003 28.333 290.252 28.333C288.451 28.333 286.811 27.889 285.331 27.001C283.876 26.113 282.729 24.8673 281.89 23.264C281.051 21.6607 280.632 19.8353 280.632 17.788ZM297.8 17.825C297.8 16.2957 297.492 14.9637 296.875 13.829C296.258 12.6943 295.42 11.831 294.359 11.239C293.323 10.6223 292.176 10.314 290.918 10.314C289.66 10.314 288.513 10.61 287.477 11.202C286.441 11.794 285.615 12.6573 284.998 13.792C284.381 14.9267 284.073 16.2587 284.073 17.788C284.073 19.342 284.381 20.6987 284.998 21.858C285.615 22.9927 286.441 23.8683 287.477 24.485C288.513 25.077 289.66 25.373 290.918 25.373C292.176 25.373 293.323 25.077 294.359 24.485C295.42 23.8683 296.258 22.9927 296.875 21.858C297.492 20.6987 297.8 19.3543 297.8 17.825Z" fill="url(#paint0_linear_692_2928)"/>
<defs>
<linearGradient id="paint0_linear_692_2928" x1="424.478" y1="-0.426891" x2="255.145" y2="254.261" gradientUnits="userSpaceOnUse">
<stop stop-color="#A9FCFF"/>
<stop offset="1" stop-color="#312BEC"/>
</linearGradient>
</defs>
</svg>
