<svg width="103" height="36" viewBox="0 0 103 36" fill="none" xmlns="http://www.w3.org/2000/svg">
<path d="M4.216 23.262H13.244V26H0.849V0.210999H4.216V23.262ZM25.6627 26.333C23.7634 26.333 22.0367 25.9013 20.4827 25.038C18.9534 24.1747 17.7447 22.9537 16.8567 21.375C15.9934 19.7717 15.5617 17.9217 15.5617 15.825C15.5617 13.753 16.0057 11.9277 16.8937 10.349C17.8064 8.74567 19.0397 7.52467 20.5937 6.686C22.1477 5.82267 23.8867 5.391 25.8107 5.391C27.7347 5.391 29.4737 5.82267 31.0277 6.686C32.5817 7.52467 33.8027 8.73333 34.6907 10.312C35.6034 11.8907 36.0597 13.7283 36.0597 15.825C36.0597 17.9217 35.591 19.7717 34.6537 21.375C33.741 22.9537 32.4954 24.1747 30.9167 25.038C29.338 25.9013 27.5867 26.333 25.6627 26.333ZM25.6627 23.373C26.8714 23.373 28.006 23.0893 29.0667 22.522C30.1274 21.9547 30.9784 21.1037 31.6197 19.969C32.2857 18.8343 32.6187 17.453 32.6187 15.825C32.6187 14.197 32.298 12.8157 31.6567 11.681C31.0154 10.5463 30.1767 9.70767 29.1407 9.165C28.1047 8.59767 26.9824 8.314 25.7737 8.314C24.5404 8.314 23.4057 8.59767 22.3697 9.165C21.3584 9.70767 20.5444 10.5463 19.9277 11.681C19.311 12.8157 19.0027 14.197 19.0027 15.825C19.0027 17.4777 19.2987 18.8713 19.8907 20.006C20.5074 21.1407 21.3214 21.9917 22.3327 22.559C23.344 23.1017 24.454 23.373 25.6627 23.373ZM48.8487 5.391C50.6 5.391 52.1294 5.77333 53.4367 6.538C54.7687 7.30267 55.7554 8.26467 56.3967 9.424V5.724H59.8007V26.444C59.8007 28.294 59.406 29.9343 58.6167 31.365C57.8274 32.8203 56.6927 33.955 55.2127 34.769C53.7574 35.583 52.0554 35.99 50.1067 35.99C47.4427 35.99 45.2227 35.361 43.4467 34.103C41.6707 32.845 40.6224 31.1307 40.3017 28.96H43.6317C44.0017 30.1933 44.7664 31.18 45.9257 31.92C47.085 32.6847 48.4787 33.067 50.1067 33.067C51.9567 33.067 53.4614 32.4873 54.6207 31.328C55.8047 30.1687 56.3967 28.5407 56.3967 26.444V22.189C55.7307 23.373 54.744 24.3597 53.4367 25.149C52.1294 25.9383 50.6 26.333 48.8487 26.333C47.048 26.333 45.4077 25.889 43.9277 25.001C42.4724 24.113 41.3254 22.8673 40.4867 21.264C39.648 19.6607 39.2287 17.8353 39.2287 15.788C39.2287 13.716 39.648 11.903 40.4867 10.349C41.3254 8.77033 42.4724 7.54933 43.9277 6.686C45.4077 5.82267 47.048 5.391 48.8487 5.391ZM56.3967 15.825C56.3967 14.2957 56.0884 12.9637 55.4717 11.829C54.855 10.6943 54.0164 9.831 52.9557 9.239C51.9197 8.62233 50.7727 8.314 49.5147 8.314C48.2567 8.314 47.1097 8.61 46.0737 9.202C45.0377 9.794 44.2114 10.6573 43.5947 11.792C42.978 12.9267 42.6697 14.2587 42.6697 15.788C42.6697 17.342 42.978 18.6987 43.5947 19.858C44.2114 20.9927 45.0377 21.8683 46.0737 22.485C47.1097 23.077 48.2567 23.373 49.5147 23.373C50.7727 23.373 51.9197 23.077 52.9557 22.485C54.0164 21.8683 54.855 20.9927 55.4717 19.858C56.0884 18.6987 56.3967 17.3543 56.3967 15.825ZM78.7219 0.210999V26H75.3549V0.210999H78.7219ZM94.3393 5.354C96.806 5.354 98.804 6.10633 100.333 7.611C101.863 9.091 102.627 11.237 102.627 14.049V26H99.2973V14.53C99.2973 12.5073 98.7917 10.9657 97.7803 9.905C96.769 8.81967 95.3877 8.277 93.6363 8.277C91.8603 8.277 90.442 8.832 89.3813 9.942C88.3453 11.052 87.8273 12.6677 87.8273 14.789V26H84.4603V5.724H87.8273V8.61C88.4933 7.574 89.3937 6.77233 90.5283 6.205C91.6877 5.63767 92.958 5.354 94.3393 5.354Z" fill="url(#paint0_linear_692_2905)"/>
<defs>
<linearGradient id="paint0_linear_692_2905" x1="148.031" y1="-2.42689" x2="-3.79289" y2="77.9059" gradientUnits="userSpaceOnUse">
<stop stop-color="#A9FCFF"/>
<stop offset="1" stop-color="#312BEC"/>
</linearGradient>
</defs>
</svg>
