<svg width="287" height="30" viewBox="0 0 287 30" fill="none" xmlns="http://www.w3.org/2000/svg">
<path d="M13.541 29.259C11.1483 29.259 8.96533 28.704 6.992 27.594C5.01867 26.4593 3.45233 24.893 2.293 22.895C1.15833 20.8723 0.591 18.603 0.591 16.087C0.591 13.571 1.15833 11.314 2.293 9.316C3.45233 7.29333 5.01867 5.727 6.992 4.617C8.96533 3.48233 11.1483 2.915 13.541 2.915C15.9583 2.915 18.1537 3.48233 20.127 4.617C22.1003 5.727 23.6543 7.281 24.789 9.279C25.9237 11.277 26.491 13.5463 26.491 16.087C26.491 18.6277 25.9237 20.897 24.789 22.895C23.6543 24.893 22.1003 26.4593 20.127 27.594C18.1537 28.704 15.9583 29.259 13.541 29.259ZM13.541 26.336C15.3417 26.336 16.9573 25.9167 18.388 25.078C19.8433 24.2393 20.978 23.043 21.792 21.489C22.6307 19.935 23.05 18.1343 23.05 16.087C23.05 14.015 22.6307 12.2143 21.792 10.685C20.978 9.131 19.8557 7.93467 18.425 7.096C16.9943 6.25733 15.3663 5.838 13.541 5.838C11.7157 5.838 10.0877 6.25733 8.657 7.096C7.22633 7.93467 6.09167 9.131 5.253 10.685C4.439 12.2143 4.032 14.015 4.032 16.087C4.032 18.1343 4.439 19.935 5.253 21.489C6.09167 23.043 7.22633 24.2393 8.657 25.078C10.1123 25.9167 11.7403 26.336 13.541 26.336ZM46.8089 3.211V5.949H39.7789V29H36.4119V5.949H29.3449V3.211H46.8089ZM68.1955 10.759C68.1955 12.905 67.4555 14.6933 65.9755 16.124C64.5202 17.53 62.2878 18.233 59.2785 18.233H54.3205V29H50.9535V3.211H59.2785C62.1892 3.211 64.3968 3.914 65.9015 5.32C67.4308 6.726 68.1955 8.539 68.1955 10.759ZM59.2785 15.458C61.1532 15.458 62.5345 15.051 63.4225 14.237C64.3105 13.423 64.7545 12.2637 64.7545 10.759C64.7545 7.577 62.9292 5.986 59.2785 5.986H54.3205V15.458H59.2785ZM103.557 3.211L93.8255 29H89.9405L80.2095 3.211H83.7985L91.9015 25.448L100.005 3.211H103.557ZM125.748 18.085C125.748 18.7263 125.711 19.4047 125.637 20.12H109.431C109.555 22.118 110.233 23.6843 111.466 24.819C112.724 25.929 114.241 26.484 116.017 26.484C117.473 26.484 118.681 26.151 119.643 25.485C120.63 24.7943 121.321 23.8817 121.715 22.747H125.341C124.799 24.6957 123.713 26.2867 122.085 27.52C120.457 28.7287 118.435 29.333 116.017 29.333C114.093 29.333 112.367 28.9013 110.837 28.038C109.333 27.1747 108.149 25.9537 107.285 24.375C106.422 22.7717 105.99 20.9217 105.99 18.825C105.99 16.7283 106.41 14.8907 107.248 13.312C108.087 11.7333 109.259 10.5247 110.763 9.686C112.293 8.82267 114.044 8.391 116.017 8.391C117.941 8.391 119.643 8.81033 121.123 9.649C122.603 10.4877 123.738 11.647 124.527 13.127C125.341 14.5823 125.748 16.235 125.748 18.085ZM122.27 17.382C122.27 16.0993 121.987 15.0017 121.419 14.089C120.852 13.1517 120.075 12.4487 119.088 11.98C118.126 11.4867 117.053 11.24 115.869 11.24C114.167 11.24 112.712 11.7827 111.503 12.868C110.319 13.9533 109.641 15.458 109.468 17.382H122.27ZM133.56 12.017C134.152 10.8577 134.99 9.95733 136.076 9.316C137.186 8.67467 138.53 8.354 140.109 8.354V11.832H139.221C135.447 11.832 133.56 13.8793 133.56 17.974V29H130.193V8.724H133.56V12.017ZM145.734 5.431C145.093 5.431 144.55 5.209 144.106 4.765C143.662 4.321 143.44 3.77833 143.44 3.137C143.44 2.49567 143.662 1.953 144.106 1.509C144.55 1.065 145.093 0.842999 145.734 0.842999C146.351 0.842999 146.869 1.065 147.288 1.509C147.732 1.953 147.954 2.49567 147.954 3.137C147.954 3.77833 147.732 4.321 147.288 4.765C146.869 5.209 146.351 5.431 145.734 5.431ZM147.362 8.724V29H143.995V8.724H147.362ZM161.352 11.499H157.097V29H153.73V11.499H151.103V8.724H153.73V7.281C153.73 5.01167 154.31 3.359 155.469 2.323C156.653 1.26233 158.54 0.731998 161.13 0.731998V3.544C159.65 3.544 158.602 3.84 157.985 4.432C157.393 4.99933 157.097 5.949 157.097 7.281V8.724H161.352V11.499ZM167.017 5.431C166.375 5.431 165.833 5.209 165.389 4.765C164.945 4.321 164.723 3.77833 164.723 3.137C164.723 2.49567 164.945 1.953 165.389 1.509C165.833 1.065 166.375 0.842999 167.017 0.842999C167.633 0.842999 168.151 1.065 168.571 1.509C169.015 1.953 169.237 2.49567 169.237 3.137C169.237 3.77833 169.015 4.321 168.571 4.765C168.151 5.209 167.633 5.431 167.017 5.431ZM168.645 8.724V29H165.278V8.724H168.645ZM173.125 18.825C173.125 16.7283 173.545 14.903 174.383 13.349C175.222 11.7703 176.381 10.5493 177.861 9.686C179.366 8.82267 181.08 8.391 183.004 8.391C185.496 8.391 187.543 8.99533 189.146 10.204C190.774 11.4127 191.847 13.09 192.365 15.236H188.739C188.394 14.0027 187.716 13.0283 186.704 12.313C185.718 11.5977 184.484 11.24 183.004 11.24C181.08 11.24 179.526 11.906 178.342 13.238C177.158 14.5453 176.566 16.4077 176.566 18.825C176.566 21.267 177.158 23.154 178.342 24.486C179.526 25.818 181.08 26.484 183.004 26.484C184.484 26.484 185.718 26.1387 186.704 25.448C187.691 24.7573 188.369 23.7707 188.739 22.488H192.365C191.823 24.56 190.737 26.225 189.109 27.483C187.481 28.7163 185.446 29.333 183.004 29.333C181.08 29.333 179.366 28.9013 177.861 28.038C176.381 27.1747 175.222 25.9537 174.383 24.375C173.545 22.7963 173.125 20.9463 173.125 18.825ZM195.6 18.788C195.6 16.716 196.019 14.903 196.858 13.349C197.696 11.7703 198.843 10.5493 200.299 9.686C201.779 8.82267 203.419 8.391 205.22 8.391C206.996 8.391 208.537 8.77333 209.845 9.538C211.152 10.3027 212.126 11.2647 212.768 12.424V8.724H216.172V29H212.768V25.226C212.102 26.41 211.103 27.3967 209.771 28.186C208.463 28.9507 206.934 29.333 205.183 29.333C203.382 29.333 201.754 28.889 200.299 28.001C198.843 27.113 197.696 25.8673 196.858 24.264C196.019 22.6607 195.6 20.8353 195.6 18.788ZM212.768 18.825C212.768 17.2957 212.459 15.9637 211.843 14.829C211.226 13.6943 210.387 12.831 209.327 12.239C208.291 11.6223 207.144 11.314 205.886 11.314C204.628 11.314 203.481 11.61 202.445 12.202C201.409 12.794 200.582 13.6573 199.966 14.792C199.349 15.9267 199.041 17.2587 199.041 18.788C199.041 20.342 199.349 21.6987 199.966 22.858C200.582 23.9927 201.409 24.8683 202.445 25.485C203.481 26.077 204.628 26.373 205.886 26.373C207.144 26.373 208.291 26.077 209.327 25.485C210.387 24.8683 211.226 23.9927 211.843 22.858C212.459 21.6987 212.768 20.3543 212.768 18.825ZM225.969 11.499V23.45C225.969 24.4367 226.178 25.1397 226.598 25.559C227.017 25.9537 227.745 26.151 228.781 26.151H231.26V29H228.226C226.351 29 224.945 28.5683 224.008 27.705C223.07 26.8417 222.602 25.4233 222.602 23.45V11.499H219.975V8.724H222.602V3.618H225.969V8.724H231.26V11.499H225.969ZM237.078 5.431C236.437 5.431 235.894 5.209 235.45 4.765C235.006 4.321 234.784 3.77833 234.784 3.137C234.784 2.49567 235.006 1.953 235.45 1.509C235.894 1.065 236.437 0.842999 237.078 0.842999C237.695 0.842999 238.213 1.065 238.632 1.509C239.076 1.953 239.298 2.49567 239.298 3.137C239.298 3.77833 239.076 4.321 238.632 4.765C238.213 5.209 237.695 5.431 237.078 5.431ZM238.706 8.724V29H235.339V8.724H238.706ZM253.288 29.333C251.388 29.333 249.662 28.9013 248.108 28.038C246.578 27.1747 245.37 25.9537 244.482 24.375C243.618 22.7717 243.187 20.9217 243.187 18.825C243.187 16.753 243.631 14.9277 244.519 13.349C245.431 11.7457 246.665 10.5247 248.219 9.686C249.773 8.82267 251.512 8.391 253.436 8.391C255.36 8.391 257.099 8.82267 258.653 9.686C260.207 10.5247 261.428 11.7333 262.316 13.312C263.228 14.8907 263.685 16.7283 263.685 18.825C263.685 20.9217 263.216 22.7717 262.279 24.375C261.366 25.9537 260.12 27.1747 258.542 28.038C256.963 28.9013 255.212 29.333 253.288 29.333ZM253.288 26.373C254.496 26.373 255.631 26.0893 256.692 25.522C257.752 24.9547 258.603 24.1037 259.245 22.969C259.911 21.8343 260.244 20.453 260.244 18.825C260.244 17.197 259.923 15.8157 259.282 14.681C258.64 13.5463 257.802 12.7077 256.766 12.165C255.73 11.5977 254.607 11.314 253.399 11.314C252.165 11.314 251.031 11.5977 249.995 12.165C248.983 12.7077 248.169 13.5463 247.553 14.681C246.936 15.8157 246.628 17.197 246.628 18.825C246.628 20.4777 246.924 21.8713 247.516 23.006C248.132 24.1407 248.946 24.9917 249.958 25.559C250.969 26.1017 252.079 26.373 253.288 26.373ZM277.991 8.354C280.457 8.354 282.455 9.10633 283.985 10.611C285.514 12.091 286.279 14.237 286.279 17.049V29H282.949V17.53C282.949 15.5073 282.443 13.9657 281.432 12.905C280.42 11.8197 279.039 11.277 277.288 11.277C275.512 11.277 274.093 11.832 273.033 12.942C271.997 14.052 271.479 15.6677 271.479 17.789V29H268.112V8.724H271.479V11.61C272.145 10.574 273.045 9.77233 274.18 9.205C275.339 8.63767 276.609 8.354 277.991 8.354Z" fill="url(#paint0_linear_692_2988)"/>
<defs>
<linearGradient id="paint0_linear_692_2988" x1="401.862" y1="0.573109" x2="228.997" y2="246.175" gradientUnits="userSpaceOnUse">
<stop stop-color="#A9FCFF"/>
<stop offset="1" stop-color="#312BEC"/>
</linearGradient>
</defs>
</svg>
